<?xml version="1.0" standalone="no"?>
<!DOCTYPE svg PUBLIC "-//W3C//DTD SVG 1.1//EN" "http://www.w3.org/Graphics/SVG/1.1/DTD/svg11.dtd" >
<svg xmlns="http://www.w3.org/2000/svg">
<metadata></metadata>
<defs>
<font id="angelova_scriptregular" horiz-adv-x="1185" >
<font-face units-per-em="2048" ascent="1638" descent="-410" />
<missing-glyph horiz-adv-x="614" />
<glyph horiz-adv-x="0" />
<glyph horiz-adv-x="682" />
<glyph unicode=" "  horiz-adv-x="614" />
<glyph unicode="&#x09;" horiz-adv-x="614" />
<glyph unicode="&#xa0;" horiz-adv-x="614" />
<glyph unicode="!" horiz-adv-x="370" d="M92 147q0 25 17.5 42.5t42.5 17.5q23 0 40 -17.5t17 -42.5q0 -23 -17 -40t-40 -17q-25 0 -42.5 17t-17.5 40zM162 328q0 19 2.5 106.5t10.5 252.5t20 284q16 155 32.5 275.5t28 185t22.5 105.5t17 53t10 12q27 0 35 -13q24 -44 10.5 -176.5t-47 -319t-69 -357.5 t-57 -291.5t-11.5 -120.5q-4 0 -4 4z" />
<glyph unicode="&#x22;" horiz-adv-x="294" d="M2 1407q0 27 16 45t41 18q26 0 43 -18t17 -45v-4q0 -29 -9 -60t-22 -55t-26.5 -43.5t-23 -30t-11.5 -10.5h-2q-6 0 0 6q-6 14 32 73q34 52 24 60q-6 4 -22 0q-23 -6 -40 15.5t-17 48.5zM168 1407q0 27 16 45t41 18q26 0 43 -18t17 -45v-4q0 -29 -9 -60t-22 -55 t-26.5 -43.5t-23 -30t-11.5 -10.5h-3q-6 0 0 6q-6 14 33 73q34 52 24 60q-6 4 -22 0q-23 -6 -40 15.5t-17 48.5z" />
<glyph unicode="#" horiz-adv-x="761" d="M-121 705l2 2l207 14q1 77 2.5 116t6.5 59.5t10.5 24t19.5 3.5q22 0 25 -66q3 -20 3.5 -30.5t0 -17t-1.5 -29.5t-2 -54l210 14q1 75 2.5 114.5t7 59t11 22.5t18.5 3q20 0 29 -68q2 -20 2.5 -29.5t0.5 -16t-1 -29t-2 -52.5l225 19q2 0 2 -4q0 -2 -2 -2l-227 -17 q-7 -177 -20 -301l251 21l5 -4q0 -6 -5 -6l-251 -17q-29 -279 -60 -289h-2l-4 2v5q10 41 18 276l-231 -12q-25 -278 -59 -285h-2v2q12 61 16 277l-195 -15q-1 0 -4 6q2 2 4 2l195 15v129q0 119 4 168l-203 -15h-4q-2 1 -2 5zM131 420l229 18v123q2 63 2 174l-210 -14 q-3 -124 -21 -301z" />
<glyph unicode="$" horiz-adv-x="624" d="M45 596q4 4 6 4l6 -4q0 -114 56 -183t135 -75l45 506h-4q-37 15 -59 25.5t-54.5 29t-52.5 38.5t-39.5 48t-29 64.5t-9.5 80.5q0 107 70 168q53 56 147 56q1 0 70 -6l8 147q0 2 10 2l2 -2l-14 -152q72 -22 120 -78t48 -135l-6 -10q-6 0 -6 10q0 78 -43.5 129.5 t-112.5 71.5l-39 -481l80 -29q45 -14 71.5 -24.5t57 -30.5t45 -50t14.5 -71q0 -164 -106 -248q-38 -33 -88 -52t-97 -19h-18l-10 -123l-4 -4l-6 4l10 125q-82 10 -142.5 81.5t-60.5 186.5zM129 1130q0 -115 44 -177.5t120 -96.5l39 479q-82 0 -139 -47q-64 -52 -64 -158z M258 338h12q91 0 148 72q65 80 65 235q0 75 -47 117t-137 78z" />
<glyph unicode="%" horiz-adv-x="956" d="M-55 1157q0 110 43.5 186t105.5 76q19 0 43 -8q50 -26 79.5 -95t29.5 -159q0 -87 -30 -157t-79 -95q-24 -8 -43 -8q-62 0 -105.5 76t-43.5 184zM0 4l735 1489h2l4 -4l-733 -1489q0 -4 -6 -4v4zM7.5 1094q6.5 -69 40 -119.5t85.5 -56.5q52 28 67.5 138.5t-6 217 t-61.5 127.5q-46 -3 -79.5 -51.5t-43 -117.5t-3 -138zM469 412q0 106 43 182t104 76q27 0 43 -8q49 -23 79 -93t30 -157q0 -91 -30 -162t-79 -94q-22 -11 -43 -11q-61 0 -104 78t-43 189zM533.5 347.5q5.5 -68.5 38 -120.5t83.5 -61q47 34 65.5 134.5t0 204.5t-65.5 146 q-44 -3 -76 -51.5t-41.5 -116t-4 -136z" />
<glyph unicode="&#x26;" horiz-adv-x="1054" d="M-49 391q0 112 52 209.5t151 218.5q-27 121 -27 266q0 43 4 87.5t13 100t28 102.5t45.5 87.5t69 64t94.5 23.5q122 0 98 -187q-21 -156 -123 -359q-73 -145 -117 -176q-7 -4 -12 -5q76 -465 310 -688q127 117 137 297t-107 313q-33 -35 -72 -55t-73.5 -23t-63.5 4.5 t-46 27t-17 44.5q0 31 26 54t65 31t89 -5.5t92 -50.5q24 22 64 65t63.5 64.5t62 47.5t83.5 37t102 11q8 0 6 -9t-6 -9q-53 0 -97 -12.5t-88 -44t-80 -66t-93 -96.5q89 -87 113.5 -210.5t-14 -239.5t-126.5 -193q162 -121 361 -121q16 -11 0 -21q-195 0 -363 119l-12 10 q-93 -75 -248 -81h-25q-151 0 -235 96t-84 272zM22 448q-8 -95 11 -181.5t82 -148t161 -73.5q158 6 244 74q-244 195 -356 653q-57 -54 -95.5 -141.5t-46.5 -182.5zM194 1221q-1 -44 4 -100t9.5 -96.5t10.5 -92t9 -78.5q30 9 95 141q94 189 122 344q33 183 -65 183 q-43 0 -76.5 -15.5t-53.5 -45t-33 -65t-17 -83.5t-5 -92zM358 752q0 -18 8 -28t23 -11.5t31 0.5t37 9.5t36 13.5t33 14t23 10q-18 18 -50 31.5t-63.5 17.5t-54.5 -10t-23 -47z" />
<glyph unicode="'" horiz-adv-x="178" d="M2 1407q0 27 16 45t41 18q26 0 43 -18t17 -45v-4q0 -29 -9 -60t-22 -55t-26.5 -43.5t-23 -30t-11.5 -10.5h-2q-6 0 0 6q-6 14 32 73q34 52 24 60q-6 4 -22 0q-23 -6 -40 15.5t-17 48.5z" />
<glyph unicode="(" horiz-adv-x="411" d="M14 698q0 155 30 303.5t84.5 267t138.5 191t184 72.5q2 0 2 -2l-2 -4q-96 0 -176.5 -133t-123 -332t-42.5 -408q0 -286 79 -473q93 -203 261 -203q4 0 4 -6q-2 -2 -4 -2q-221 0 -338 228q-97 205 -97 501z" />
<glyph unicode=")" horiz-adv-x="509" d="M14 -29q0 6 4 6q168 0 261 203q79 187 79 473q0 209 -42.5 408t-123 332t-176.5 133q-2 0 -2 4l2 2q100 0 184 -72.5t138.5 -191t84.5 -267t30 -303.5q0 -296 -97 -501q-117 -228 -338 -228z" />
<glyph unicode="*" horiz-adv-x="651" d="M55 1317q2 6 6 4l265 -94l-119 256q-3 3 4 6q8 4 10 0l121 -256l92 264q1 4 5 5.5t5 -1.5q1 1 2.5 -0.5t2.5 -3.5t0 -4l-97 -264l256 121l6 -4q2 -5 -2 -7l-258 -122l271 -97q2 2 3 -2q0 -3 -1 -6l-9 -4l-262 94l121 -256l-6 -6h-8l-121 254l-96 -262l-8 -2l-2 6l94 270 l-260 -123q-2 -2 -4 2v9l256 120l-263 95z" />
<glyph unicode="+" horiz-adv-x="659" d="M39 821l4 15h324v335q0 2 3.5 3t7.5 2h3q4 0 4 -5v-335h332q6 0 6 -15q0 -4 -6 -4h-332v-330q0 -4 -4 -4l-14 4v330h-324z" />
<glyph unicode="," horiz-adv-x="237" d="M2 143q0 27 16.5 45.5t40.5 18.5q26 0 43 -18.5t17 -45.5v-4q0 -46 -22.5 -95.5t-44 -76t-25.5 -26.5h-2q-11 12 27 71q35 54 31 64q-4 9 -24 4q-23 -6 -40 15t-17 48z" />
<glyph unicode="-" horiz-adv-x="772" d="M39 821l4 15h674q6 0 6 -15q0 -4 -6 -4h-674z" />
<glyph unicode="." horiz-adv-x="237" d="M70 150q0 30 20.5 51.5t48.5 21.5q31 0 52.5 -21t21.5 -52q0 -32 -21.5 -54t-52.5 -22q-28 0 -48.5 22t-20.5 54z" />
<glyph unicode="/" horiz-adv-x="612" d="M164 29l524 1476q0 2 2.5 3t5.5 1h2q6 -1 7 -4q-243 -687 -369 -1036.5t-145 -397.5t-23 -48t-4 6z" />
<glyph unicode="0" horiz-adv-x="694" d="M0 735q0 186 37 357t110.5 285t165.5 114q158 0 244 -229q76 -189 76 -496q0 -133 -17 -259.5t-48.5 -229.5t-82.5 -165.5t-112 -62.5q-186 0 -287 215q-86 183 -86 471zM66 760q0 -300 73 -486q39 -103 100 -158t134 -55q83 0 138.5 146.5t65 356t-10 419t-87.5 356 t-166 146.5q-56 0 -104 -64t-78.5 -168t-47.5 -232.5t-17 -260.5z" />
<glyph unicode="1" horiz-adv-x="514" d="M2 61v7q63 16 106.5 15.5t120.5 -11.5h11q-29 68 37 625q4 37 6 55q46 432 52 534q10 185 -16 211q-2 6 -6 6q-24 0 -53.5 -30t-56 -73.5t-49 -86.5t-36.5 -73l-14 -30l-6 -4l-4 4q1 1 26 52.5t53.5 105t68.5 99.5t71 46q18 0 31 -16q30 -34 39.5 -143t-1 -266.5 t-24.5 -307t-38.5 -320t-35.5 -246.5t-22 -142q119 -13 187 -11q4 0 4 -2q0 -6 -4 -6q-10 -4 -33 -4q-34 0 -86 5.5t-68 6.5l-6 -2q-6 0 -10 7h-17q-150 21 -223 -7q-4 0 -4 2z" />
<glyph unicode="2" horiz-adv-x="856" d="M0 74q0 42 56 80.5t124 38.5q59 0 115 -23q88 98 178 266q93 179 147 375t54 354q0 66 -11 123t-37.5 111.5t-80 86.5t-129.5 32q-105 0 -167.5 -135t-40.5 -269.5t122 -134.5q2 0 2 -6q0 -4 -2 -4q-63 0 -106 36t-60 85.5t-17 105.5q0 123 68 221q31 44 82.5 75.5 t118.5 31.5q168 0 248 -111q77 -103 77 -278q0 -159 -59.5 -351.5t-161.5 -365.5q-76 -140 -196 -264q9 -3 30 -13.5t33 -15.5q48 -27 83 -43.5t87.5 -32t111.5 -14t124 19.5l2 -4q0 -8 -2 -8q-78 -16 -129 -16q-54 0 -109.5 15.5t-87.5 30.5t-86 44q-20 10 -64 30 q-132 -114 -247 -114q-38 0 -50 10q-20 13 -20 31zM47 57q5 -14 23 -14q106 0 215 121q-64 22 -105 22q-65 0 -110 -59q-33 -43 -23 -70z" />
<glyph unicode="3" horiz-adv-x="765" d="M1 383q6 80 54 137h2q4 -2 4 -6q-34 -60 -35.5 -127t25 -124.5t69 -105t97.5 -75t109 -27.5q72 0 133.5 35.5t102 93t63 129.5t22.5 146q0 100 -47 187.5t-141 121.5q-94 -94 -201 -94q-38 0 -53 10q-21 14 -21 27q0 33 45.5 60.5t106.5 27.5q31 0 47 -4q8 0 21 -2t20 -2 q9 13 27.5 41.5t23.5 35.5q96 197 96 379q0 44 -7.5 85t-28 86t-65 72.5t-108.5 27.5q-101 0 -164 -135t-44 -269.5t120 -134.5q5 0 5 -6q-1 -4 -5 -4q-62 0 -104.5 36t-60 85.5t-17.5 105.5q0 125 70 221q30 44 81 75.5t119 31.5q134 0 205 -92q62 -91 62 -224 q0 -117 -43.5 -233.5t-118.5 -198.5q114 -40 176 -139.5t62 -218.5q0 -146 -93 -260q-100 -115 -286 -115q-99 0 -177 48t-116 132q-38 80 -32 160zM195 711q0 -12 14 -19q18 -12 49 -12q4 0 12 2t9 2q69 12 139 94q-20 10 -41 10q-5 0 -19 1.5t-22 1.5q-58 0 -99.5 -27 t-41.5 -53z" />
<glyph unicode="4" horiz-adv-x="874" d="M2 578q-6 18 23 47q76 60 143 86q47 86 61 118q48 119 76.5 242.5t28.5 220.5q0 226 -131 226q-61 0 -98 -50.5t-37 -115.5q0 -44 22 -76.5t66 -32.5q4 -2 4 -8l-4 -4q-43 0 -70 33t-27 88q0 67 40.5 119.5t103.5 52.5q98 0 149 -66t51 -188q0 -126 -49 -275.5 t-125 -263.5q191 53 414 0q26 146 64 309q84 387 67 412h-4q-2 0 -2 2q0 4 2 4q17 0 21 -6q15 -20 15.5 -77t-13.5 -158.5t-28.5 -186t-41.5 -227.5q-1 -11 -16 -96q55 -18 73 -27l6 -4q0 -2 -8 -2q-44 18 -73 24q-16 -94 -25 -147.5t-21.5 -134.5t-17 -130.5t-7.5 -102.5 t2 -85t17 -47q6 -8 19 -8l6 -4q39 -4 127 -4q8 0 8 -2q0 -6 -8 -6q-12 -4 -35 -4q-32 0 -184 16q-54 7 -86 9.5t-70.5 -0.5t-69.5 -15q-4 0 -4 2q0 4 4 8q30 11 70 13t72 -1t88 -10q7 0 22.5 -1t22.5 -1q-3 1 -6 3t-7 5.5t-8 5.5q-32 42 -34.5 151.5t13 225t46.5 285.5 q-227 55 -420 0q-104 -148 -199 -148q-4 0 -18 7zM12 584q0 -6 8 -6q4 0 11 3t10 3q51 9 115 112q-88 -45 -121 -78q-27 -27 -23 -34z" />
<glyph unicode="5" horiz-adv-x="819" d="M12 386q-5 -62 7.5 -104t37.5 -77q40 -68 109.5 -109t126.5 -41q87 0 156 35.5t110.5 95.5t62.5 131.5t21 149.5q0 90 -27 172t-87 148t-144 90q-15 -42 -35 -64q-17 -14 -45 -14q-18 0 -59 18q-25 0 -42.5 11.5t-17.5 29.5t27 27q32 12 80 12h29q17 72 -11.5 211 t-63.5 241.5t-40 104.5v4h4h2h12q4 0 51.5 -5t84.5 -8.5t98.5 -6t109.5 -1.5t99.5 8t85.5 21l4 -2q0 -10 -4 -10q-143 -52 -500 -10q39 -27 86 -144q35 -97 49.5 -212t-2.5 -201q137 -21 227 -121q105 -120 105 -291q0 -83 -27.5 -159.5t-79.5 -138t-134.5 -98t-184.5 -36.5 q-60 0 -133 43.5t-115 114.5q-87 147 -4 317q0 2 6 2q6 -2 0 -6q-30 -66 -35 -128zM197 858q0 -12 15 -22.5t36 -10.5q35 0 57 33q7 7 12 27q-3 0 -11 1t-13 1q-57 0 -74 -10q-22 -11 -22 -19z" />
<glyph unicode="6" horiz-adv-x="722" d="M0 412q0 158 53.5 342t143.5 344q101 177 220 272.5t238 95.5q7 0 7 -8q-1 -4 -7 -4q-101 0 -206 -99t-199 -282q-69 -140 -115 -291.5t-61 -289.5q6 19 49 92q52 76 123.5 121t140.5 45q67 0 112.5 -46t64 -109t18.5 -136q0 -108 -35.5 -204.5t-105.5 -159t-158 -62.5 q-137 0 -210 97.5t-73 281.5zM66 375q0 -157 51 -240q45 -80 133 -92h33q49 0 92.5 49t71 123t40.5 162t8.5 165.5t-32.5 133.5t-76 65q-68 0 -136.5 -44t-119.5 -122q-41 -59 -61 -124q-4 -27 -4 -76z" />
<glyph unicode="7" horiz-adv-x="923" d="M0 1352q0 67 39.5 119.5t101.5 52.5q16 0 37 -3t53 -10.5t51 -12.5t65.5 -17.5t62.5 -16.5q99 -39 200 -57q70 51 138 51q32 0 86 -6q28 -15 28 -33q0 -17 -33 -31t-75 -14q-41 0 -113 10q-86 -93 -192 -356q154 21 215 -61q3 0 3 -3t-3 -3q0 -5 -2 -5q-1 5 -7 5 q-56 78 -211 53q-5 -15 -28 -72q-74 -211 -121 -428.5t-47 -347.5q0 -70 12 -92q8 -31 35 -31q2 -4 2 -8l-2 -2q-52 0 -74 59q-24 58 -24 164q0 148 44 352.5t117 390.5q-6 -1 -14 -3.5t-14 -4t-11 -2.5q-130 -33 -180 -33q-4 5 -4 11l4 2q47 0 178 30q7 2 22.5 4.5 t22.5 4.5q111 280 242 389q-40 7 -198 55q-196 66 -265 66q-59 0 -96 -51t-37 -115q0 -44 21.5 -76.5t66.5 -32.5q4 -2 4 -8l-4 -4q-44 0 -70 32.5t-26 88.5zM649 1395q13 -1 49.5 -8t55.5 -7q28 0 52 7.5t35 16t11 15.5q0 15 -23 21q-27 12 -81 12q-45 0 -99 -57z" />
<glyph unicode="8" horiz-adv-x="700" d="M2.5 245q-2.5 45 5 88t33.5 105.5t48 107.5t66.5 119.5t72 117.5t79.5 124l10 13q-37 65 -64.5 116t-54.5 113t-39.5 110.5t-12 96t19.5 80.5q46 88 237 88q160 0 203 -76q13 -24 13.5 -56.5t-7 -66.5t-28 -80.5t-41 -86t-55 -95.5t-62 -97.5t-68.5 -103.5q24 -40 35 -63 q48 -82 75 -130t66 -122t57.5 -123.5t34.5 -106.5t12.5 -100.5t-22.5 -77.5q-57 -96 -258 -96q-39 0 -57 2q-222 15 -278 121q-18 34 -20.5 79zM49 228.5q1 -40.5 17 -70.5q48 -94 235 -103h57q95 0 141 19.5t76 68.5q52 93 -4.5 261t-183.5 391q-20 30 -35 57l-4 -6 q-49 -74 -76.5 -116.5t-70 -111t-65 -112t-47.5 -100.5t-33 -97t-7 -80.5zM193 1432q-76 -136 126 -506q38 58 53.5 82.5t49 77.5t47.5 79.5t37.5 70.5t32 70t17 57.5t6 54t-12.5 40.5q-29 60 -146 60q-87 0 -134.5 -21t-75.5 -65z" />
<glyph unicode="9" horiz-adv-x="722" d="M0 35q0 8 4 8q101 0 206.5 99.5t199.5 281.5q147 297 178 584q-11 -29 -51 -93q-53 -79 -124 -125.5t-139 -46.5q-51 0 -90 26.5t-60 71t-31.5 94.5t-10.5 105q0 164 72 287q36 58 92 98.5t131 40.5q136 0 210.5 -99.5t74.5 -281.5q0 -157 -54 -341t-145 -345 q-100 -174 -220 -270t-239 -96zM155.5 930.5q27.5 -174.5 118.5 -174.5q66 0 134.5 44t119.5 120q38 58 64 127q2 27 2 75q0 157 -51 240q-44 83 -133 92h-33q-125 0 -187 -174.5t-34.5 -349z" />
<glyph unicode=":" horiz-adv-x="350" d="M129 393q0 30 21 52t49 22q31 0 52 -21.5t21 -52.5q0 -32 -21 -54t-52 -22q-28 0 -49 22t-21 54zM129 862q0 30 21 52t49 22q31 0 52 -21.5t21 -52.5q0 -32 -21 -54t-52 -22q-28 0 -49 22t-21 54z" />
<glyph unicode=";" horiz-adv-x="350" d="M129 862q0 30 21 52t49 22q31 0 52 -21.5t21 -52.5q0 -32 -21 -54t-52 -22q-28 0 -49 22t-21 54zM135 401q0 26 16.5 45t41.5 19q26 0 42.5 -18.5t16.5 -45.5v-4q0 -46 -22.5 -95.5t-44 -76t-25.5 -26.5h-2q-11 12 27 71q36 54 32 64q-4 9 -24 4q-23 -6 -40.5 15 t-17.5 48z" />
<glyph unicode="&#x3c;" horiz-adv-x="518" d="M29 752l413 385q20 16 23 -11q0 -23 -14 -34l-385 -338q189 -148 279 -220.5t106.5 -89.5t15.5 -24q0 -3 -5.5 -4.5t-14.5 1.5t-15 9q-372 316 -403 326z" />
<glyph unicode="=" horiz-adv-x="966" d="M156 637l4 14h674q6 0 6 -14q0 -4 -6 -4h-674zM156 1018l4 14h674q6 0 6 -14q0 -4 -6 -4h-674z" />
<glyph unicode="&#x3e;" horiz-adv-x="518" d="M12 420q-1 7 16 24t106.5 89t279.5 221l-385 338q-15 12 -15 34q3 27 23 11l414 -385q-3 -1 -19.5 -12t-117 -92t-267.5 -222q-6 -6 -15 -9t-14.5 -1.5t-5.5 4.5z" />
<glyph unicode="?" horiz-adv-x="796" d="M46 1187q-29 90 24 209q53 121 153 183q68 41 142 41q72 0 125.5 -14t85 -39.5t49.5 -61t19.5 -79t-6 -92t-25.5 -102t-40.5 -107t-50 -108.5t-54.5 -106t-54 -100l-15 -27q-98 -184 -114 -233q-12 -36 -4 -49q3 -6 16 -15q-22 3 -31 15q-19 30 11 115.5t100 236.5 q104 230 137 323q119 341 -42 412q-45 19 -110 19q-113 0 -194 -119q-69 -102 -77 -222q-7 -114 51 -153q21 -14 51 -14l4 -4q0 -6 -4 -6q-116 0 -147 97zM238 160q0 29 16.5 48t42.5 19q27 0 44 -18.5t17 -48.5q0 -27 -17 -45.5t-44 -18.5q-26 0 -42.5 18.5t-16.5 45.5z " />
<glyph unicode="@" horiz-adv-x="1363" d="M27 334q0 110 25 224t79 222.5t129 193.5t183.5 137t234.5 52q299 0 432 -204q103 -157 81 -388q-19 -199 -118 -351q-96 -146 -220 -166q-17 -3 -34 -3q-27 0 -47.5 11t-32.5 32t-19.5 46t-9.5 59.5t-1.5 65t4.5 71t7.5 68.5t8.5 66q4 30 6 44q18 146 19 180 q-23 -57 -56.5 -135t-76.5 -172.5t-81.5 -158.5t-56.5 -64q-44 0 -71 45.5t-27 120.5q0 145 88 260q104 139 287 139q19 0 33 -14q26 -29 28.5 -122t-8.5 -194q-20 -263 51 -266q117 -3 207 125t107 312q20 214 -75 368q-121 197 -390 208q-17 1 -33 1q-125 0 -235.5 -74.5 t-185 -195t-117 -273t-42.5 -309.5q0 -93 16.5 -179.5t53.5 -166t92.5 -139t138.5 -96t185 -38.5q79 0 157 20t138.5 51.5t115.5 70.5t94.5 77.5t68.5 71.5t43 52.5t14 21.5l8 4q4 -4 0 -8q0 -1 -14.5 -21t-44 -53.5t-69 -73t-95.5 -79.5t-117.5 -72.5t-140 -53 t-158.5 -20.5q-120 3 -217 45.5t-159.5 108t-105 153.5t-60 178t-17.5 185zM463 244q0 -70 20 -70q25 0 107 172.5t162 370.5q-133 -5 -217 -178q-35 -72 -53.5 -153.5t-18.5 -141.5z" />
<glyph unicode="A" horiz-adv-x="1779" d="M6 20q-5 19 -5 39q0 43 24 88q30 66 94 103q41 22 89 22q38 0 81 -14q32 -16 59 -43q8 -8 0 -12q-6 -6 -12 0q-42 42 -96 52q-13 2 -27 2q-42 0 -86 -24q-57 -32 -87 -93q-21 -42 -21 -80q0 -18 4 -35q29 -107 241 -107q302 15 598 350q97 111 178 238q-60 -19 -90 -28 t-100 -25q-72 -15 -118 -19q-16 -1 -33 -2q-32 0 -69 4q-56 6 -93 29q-23 16 -23 51q0 3 3 5.5t5 0.5q4 0 7 -3t3 -5q0 -23 17 -37q19 -12 43.5 -19t55.5 -6.5t59.5 2.5t67 10.5t65.5 15t68 19.5t61 19.5t58 20t46 16.5q102 168 162 301q0 210 27 299q35 100 96 100 q7 0 11 -4t5 -8t1.5 -13.5t0.5 -12.5q-3 -66 -59 -213q-4 -53 -4 -110q0 -123 20 -265q22 0 58 -25q12 -11 18.5 -26t8 -29.5t1 -30t-3 -27t-5.5 -19.5l-1 -9q-2 -6 -10 -6q-9 3 -6 12t5.5 24t-0.5 48.5t-20 50.5q-17 14 -41 16q41 -269 138 -508q85 -204 198 -323 q126 -129 275 -129q10 0 10 -8q0 -9 -10 -9h-62q-154 0 -287 133q-117 123 -202 330q-74 178 -123 416l-12 74q-5 0 -7 -2l-188 -68q-8 -12 -10 -18q-174 -263 -361 -412q-227 -184 -456 -184h-7q-59 0 -103.5 12t-69 31.5t-37 38t-17.5 38.5zM1100 565q76 39 155 56 q-2 24 -9.5 90t-8.5 106q-61 -124 -137 -252z" />
<glyph unicode="B" horiz-adv-x="1351" d="M0 1053q0 74 56 129t153 55q81 0 138 -19.5t106 -82.5q47 -62 86 -170q49 107 110 174q94 98 221 98h62q44 0 85.5 -21t61.5 -65q10 -26 10 -56q0 -59 -38 -134q-58 -116 -191 -261q50 18 100 24q17 2 34 2q35 0 73 -9q57 -13 88 -53q37 -49 37 -140q0 -95 -43 -213 q-45 -115 -127 -221q-83 -106 -186 -168t-213 -74q-11 -58 -19 -77q-12 -43 -29 -43h-61q-42 0 -72 120q-118 9 -188 48q-80 39 -80 106q0 48 50.5 86.5t131.5 38.5q6 0 9 -6v-2q0 -8 -9 -8q-6 0 -41 -5q-46 -9 -79 -32q-43 -27 -43 -72q0 -59 71 -92q38 -20 84 -31 q44 -9 92 -12q0 4 -2 8q-26 144 -26 340q0 173 22 344q21 160 62 287q-28 115 -76 209q-89 165 -217 165q-17 0 -35 -3q-71 -12 -111.5 -59t-40.5 -105q0 -65 43 -105q38 -38 99 -47q12 -2 37 -2q10 0 10 -10l-2 -2q0 -6 -8 -6q-93 0 -146 53q-49 46 -49 119zM430 215 q0 -199 25 -336q2 -4 2 -8q2 -2 2 -4q18 -2 55 -2h31q11 91 16 184q3 81 3 158q0 336 -60 604q-74 -251 -74 -596zM463 -154q8 -34 17.5 -57.5t17.5 -33t14 -9.5l2 2q1 3 4.5 10.5t7.5 20.5q7 12 17 67h-80zM547 940q55 -155 75.5 -361.5t20.5 -383.5t-16 -318 q88 22 167.5 76t136.5 124.5t99 150.5t63 156t21 140q0 82 -35 129q-17 25 -45 37q-28 10 -52 12q-3 0 -7 1q-21 0 -57 -8q-42 -9 -60.5 -15t-62.5 -21l-70 -34q-8 0 -12 2q-4 9 2 12q192 195 258 330q36 72 36 125q0 28 -10 51q-15 36 -50.5 56t-78.5 20q-58 0 -108 -23 t-89.5 -65t-69 -88t-56.5 -105z" />
<glyph unicode="C" horiz-adv-x="1206" d="M4 912q12 68 64 118q93 93 274 93q118 0 274 -40q54 56 115 99q39 25 99 45q61 21 127 29q19 2 38 2q45 0 85 -14q58 -20 81 -73q11 -27 11 -55q0 -16 -4 -32q-10 -45 -40 -76q-40 -42 -112 -52q-33 -5 -65 -4q-37 0 -73 6q-66 12 -128 39q-62 26 -93 37q-3 -4 -17.5 -22 t-21.5 -29q-80 -117 -124.5 -259t-44.5 -278q0 -237 131 -380q42 -48 88 -76l20 10q30 15 90 30q62 14 130 22q18 2 35 2q47 0 83 -16q50 -20 51 -71q0 -28 -27.5 -56t-93.5 -28q-166 0 -321 70q-53 -33 -103 -70q-41 -34 -79 -71.5t-56 -57.5t-18 -22q-4 -4 -8 -4l-4 2 q-11 7 -2 12q0 2 18 23t57 59t82 72q44 35 96 67q-64 37 -114 90q-133 152 -133 393q0 150 47 287q40 130 125 260q22 32 49 62q-151 46 -266 46q-56 0 -103 -11q-90 -19 -143 -72q-46 -46 -58 -109q-4 -19 -3 -39q0 -43 18 -86q22 -54 70.5 -95.5t121.5 -55.5q27 -6 62 -6 q8 0 8 -9v-4q-4 -4 -8 -4q-102 0 -172 49q-71 44 -99 119q-19 46 -19 92q-1 21 3 42zM684 1065q19 -6 40.5 -14.5t49 -19.5t43.5 -17q101 -41 174 -40q78 0 125 46q27 26 35 67q3 15 3 29q0 25 -9 47q-18 44 -54 63q-28 15 -60 15q-9 1 -19 -1q-44 -6 -92 -23.5t-93.5 -45.5 t-82 -55t-60.5 -51zM686 -20q8 -14 49 -31.5t95 -29t106 -15.5q10 -1 21 -1q39 0 68 13q36 16 36 51q0 24 -33 42t-102 22q-125 0 -240 -51z" />
<glyph unicode="D" horiz-adv-x="1341" d="M0 1061q0 75 56 130.5t153 55.5q83 0 139 -20t105 -84q47 -62 86 -170q52 107 108 166q94 98 219 99q44 0 76.5 -5t65.5 -17.5t59 -39t45 -66.5q57 -111 57 -305q0 -160 -41 -327.5t-114 -303.5q-78 -147 -187 -233q-102 -78 -209 -93q-6 -47 -16 -77q-15 -43 -33 -43 h-61q-41 0 -68 125q-92 12 -168 57q-100 62 -100 129q0 41 45 63q48 25 133 25q2 0 4.5 -1t3.5 -1q0 -1 1 -3t1 -3q0 -8 -10 -8q-34 0 -69 -7q-35 -6 -56 -18q-35 -18 -35 -47q0 -27 24.5 -57.5t66.5 -55.5q51 -32 125 -49q15 -6 30 -6q-2 0 -2 4v10q-24 131 -24 330 q0 194 22 344q22 170 60 287l2 12q-26 104 -72 205q-91 165 -217 165q-17 0 -35 -3q-72 -10 -113 -57.5t-41 -106.5q0 -63 45 -105q38 -38 97 -47q12 -2 37 -2q10 0 10 -8q0 -2 -2 -4q0 -6 -8 -6q-90 0 -146 53q-49 46 -49 119zM426 215q0 -201 27 -336q0 -2 1 -5.5t1 -4.5 q23 -5 49 -5q19 0 39 3q12 100 14 182q3 86 3 167q0 337 -60 595q-74 -261 -74 -596zM459 -152q22 -102 49 -102q10 10 16 31l6 28l7 27q0 2 1 7t1 7h-35q-7 0 -22.5 1t-22.5 1zM549 948q48 -158 69 -373.5t21 -379.5q0 -174 -16 -312q185 63 315 299q71 135 112.5 300.5 t41.5 322.5q0 184 -58 297q-32 65 -88 95q-42 23 -92 23q-17 0 -35 -3q-167 -30 -270 -269z" />
<glyph unicode="E" d="M2 922q10 68 55 112q80 86 250 86h24q172 0 318 -41q62 72 151.5 115t180.5 43q44 0 82.5 -22t56.5 -64q12 -25 12 -52q0 -11 -2 -23q-7 -40 -36 -68q-50 -50 -137 -50q-76 0 -181 39q-13 5 -27 10.5t-31 11.5t-26 9q-19 -33 -28 -57q-21 -49 -22 -93v-6q0 -40 12 -72 q12 -35 40 -85l13 -15q30 0 75 -18q29 -15 47 -33q14 -14 20.5 -33.5t-2.5 -35t-36 -15.5q-76 0 -164 101q-80 -24 -141 -113q-78 -118 -78 -274q0 -155 84 -263l18 -18l31 18q96 52 178 52q24 0 54.5 -4t67 -13.5t61 -30t24.5 -49.5q0 -26 -20 -44.5t-53 -27t-58.5 -12 t-52.5 -4.5q-199 0 -266 70q-36 -27 -72 -59q-24 -22 -46.5 -47t-39 -44.5t-29 -35.5t-19.5 -25l-7 -10q0 -4 -7 -4q-1 0 -3 1t-3 1q-4 8 0 12q0 2 17 24t52 62.5t73 77.5q49 43 69 57q-31 27 -43 43q-88 108 -88 273q0 162 80 284q55 80 127 111q42 17 68 22l-9 11 q-54 76 -54 161q0 54 22 111q14 35 43 72q-179 53 -320 53q-160 0 -237 -82q-41 -41 -50 -99q-2 -15 -2 -30q0 -43 19 -88q28 -66 84.5 -111.5t130.5 -60.5q30 -6 65 -6q9 0 9 -9q0 -2 -2 -4q-4 -4 -7 -4q-105 0 -188 56q-72 49 -111 131q-18 41 -18 88q-1 18 2 37zM543 -14 q81 -70 213 -86q21 1 44 4t55 10.5t52.5 22t20.5 34.5q0 29 -47.5 50.5t-141.5 27.5q-29 0 -59 -6q-70 -15 -137 -57zM715 1059q55 -15 129 -45q35 -14 60 -21q26 -7 60 -12q12 -2 22 -2q22 0 42 7q30 10 53 34q25 26 31 60q2 10 2 20q0 23 -10 45q-23 58 -76 69 q-15 3 -31 3q-39 0 -82 -19q-60 -27 -112.5 -64t-87.5 -75zM721 682q0 -24 55 -59q38 -23 52 -23q4 0 7 2q2 2 2 4q0 9 -20 31q-26 30 -94 45h-2z" />
<glyph unicode="F" horiz-adv-x="1097" d="M4 -311q-2 8 -2 17q0 22 14 42q20 30 62 51q73 40 164 40q109 0 245 -58q47 78 64 127q37 114 50.5 261t19.5 372q-79 0 -109 37q-8 10 -11 21t-2 20.5t3 17.5t4 13l2 5q3 7 12 4q6 -6 2 -10l-2 -5q-1 -4 -2 -10.5t-1.5 -14t2.5 -16t7 -15.5q19 -27 95 -31q11 324 49 455 q19 75 59 131q-111 21 -209 24q-20 1 -39 1q-69 0 -125 -9q-181 -43 -254 -131q-51 -60 -63 -135q-3 -21 -3 -42q0 -51 21 -97q23 -50 65 -82t97 -41q24 -4 39 -4q8 0 8 -9q0 -2 -2 -2q0 -6 -6 -6q-72 0 -129 35.5t-86 97.5q-25 51 -25 111q0 18 2 37q12 81 68 149 q92 109 266 136q53 11 128 11q17 0 36 -1h30q100 0 202 -17l8 7q33 33 83.5 47t141.5 14q8 0 8 -8t-8 -8q-101 0 -160 -68q29 -4 86 -20q107 -30 252 -33q82 4 125 8q107 12 182.5 37.5t94.5 54.5q15 21 -2 41q-5 5 2 12q1 3 4 3t8 -5q13 -16 13 -32q0 -14 -11 -27 q-21 -37 -92.5 -65t-134.5 -35q-102 -13 -198 -13q-184 0 -351 47q-30 -40 -53 -118q-41 -150 -48 -447q72 7 123 23q-5 13 -5 27q0 21 10 43q17 38 53 38q46 0 43 -32q-3 -33 -46 -68q-15 -12 -30 -19l10 -14q21 -24 57 -43q3 -2 4.5 -5t-1.5 -5q0 -6 -7 -6q-4 0 -4 2 q-47 22 -78 61q-97 -22 -129 -22q-5 -167 -9 -246t-19 -195t-41 -196q-41 -121 -88 -162q67 -47 133 -113q7 -7 0 -14q-2 -2 -6 -2t-4 4q-60 60 -134 111q-70 -82 -218 -112q-57 -11 -108 -12q-82 0 -149 29q-49 21 -53 56zM20 -307q12 -42 95 -58q37 -5 72 -5 q185 0 288 132q-93 50 -190 58q-17 1 -33 1q-81 0 -166 -34q-68 -42 -67 -82q-1 -6 1 -12zM840 588q24 8 51 41q16 19 16 30q0 12 -18 14q-3 1 -8 1q-27 0 -39 -30q-6 -17 -6 -32q0 -13 4 -24z" />
<glyph unicode="G" d="M2 965q10 77 59 118q60 48 136 67q55 15 114 15q23 0 46 -3q84 -7 156.5 -24t158.5 -46q37 37 76 65q128 98 268 98q86 0 133 -86q12 -31 12 -60q0 -42 -26 -78q-44 -61 -127 -77q-115 0 -209 43q-53 24 -92 39q-58 -69 -95 -131q-87 -140 -137.5 -310t-50.5 -321 q0 -168 65 -268q45 -69 99 -91q28 -11 55 -11q26 0 51 10q52 22 98 66.5t82 107.5q2 2 19 31q1 14 4 65.5t5.5 75.5t8 65.5t15 74.5t22.5 63q21 37 47 37q17 0 17 -33v-2q-15 -103 -39.5 -348t-46.5 -373h2q-2 -2 -2 -4q103 -9 209 -43q68 -24 157 -66q5 -5 5 -9q0 -2 -1 -3 q-3 -10 -12 -4q-193 94 -362 109q-8 -62 -38 -122t-78 -104.5t-111 -55.5q-16 -3 -32 -3q-49 0 -104 26q-42 18 -55 54q-7 17 -7 34q0 49 54 95q45 42 118 67.5t158 28.5h21q35 211 39 330q-35 -66 -96 -116t-137 -68q-24 -6 -46 -6q-54 0 -106 30q-50 26 -90 82 q-66 104 -66 278q0 162 53 336l7 17q55 166 131 288q56 94 106 146q-9 3 -64.5 20t-75 22.5t-72 18.5t-79 15t-72.5 4h-18q-35 0 -60 -6q-30 -8 -65.5 -23.5t-64.5 -40.5q-43 -43 -52 -105q-2 -15 -2 -31q0 -48 21 -99q28 -71 92 -128t150 -75q27 -6 59 -6q8 0 8 -9v-4 q-4 -4 -8 -4q-108 0 -199 66q-78 58 -118 151q-22 58 -22 114q0 12 1 24zM518 -475q18 -47 103 -60q11 -1 22 -1q25 0 47 5q30 7 52 26t37.5 39.5t28 55.5t20 62.5t16.5 71.5v4h-17q-41 -2 -106 -17q-102 -22 -158 -78q-49 -42 -49 -84q0 -12 4 -24zM735 1069 q45 -17 131 -55q78 -35 142 -41q68 8 109 65q24 33 24 71q0 26 -11 54q-20 48 -60 63q-23 8 -46 8q-19 0 -40 -6q-44 -12 -94.5 -41t-88 -59t-66.5 -59z" />
<glyph unicode="H" horiz-adv-x="1517" d="M4 893q9 80 62 145q126 148 412 148h30h24q90 0 205 -19q68 68 203 68q46 -1 68 -33q12 -18 12 -36q0 -14 -8 -28q-18 -32 -68 -32q-10 -1 -23 -1q-51 0 -135 23q-44 -58 -71 -161q-44 -159 -51 -486q37 -6 75 -6q89 0 179 37q128 53 235 156q26 167 70 293 q43 133 93 204.5t101 71.5q11 0 15 -10q9 -9 8 -31q0 -52 -47 -178q-61 -157 -146 -268q-35 -231 -35 -375q0 -322 107 -516q123 -228 377 -228q10 0 10 -10q0 -8 -10 -8q-96 0 -166 12t-133 53q-95 59 -156 172q-108 193 -108 525q0 92 10 209q-93 -70 -191 -99 q-95 -28 -290 -28v-56q0 -9 -2.5 -63t-3 -67.5t-3 -60.5t-4 -65.5t-4.5 -58.5t-6 -62.5t-7.5 -54t-10 -57t-11.5 -49.5q-16 -55 -18 -58q29 -11 80 -41q84 -55 151 -137q5 -5 -2 -12q-2 -2 -4 -2q-4 0 -8 4q-101 123 -221 172q-49 -99 -115.5 -137.5t-171.5 -38.5 q-94 0 -134 22.5t-46 51.5q-2 7 -2 14q0 24 19 49q24 32 71 55q77 37 183 36q59 0 128 -11q8 25 10 37q18 68 29.5 166.5t15 171.5t7.5 198q0 41 2 64q-72 9 -142 33q-8 3 -8 12q4 8 12 4l54 -14q51 -14 84 -19v13q9 241 35.5 399t95.5 248q-111 21 -205 24h-31 q-282 0 -399 -141q-48 -58 -58 -130q-3 -19 -2 -38q0 -51 21 -100q51 -105 166 -127q28 -4 43 -4q8 0 8 -9v-4q-4 -4 -8 -4q-75 0 -133.5 37t-89.5 103q-25 49 -25 107q0 18 2 36zM137 -309q9 -40 90 -56q24 -3 47 -3q167 0 234 165q-64 26 -139 26h-6q-79 -1 -146 -34 q-42 -21 -64 -47q-17 -21 -18 -41zM807 1153q18 -2 65 -15.5t74 -13.5q37 1 50 24.5t-3.5 47t-52.5 23.5q-70 0 -133 -66zM1255 793l17 22q85 128 123 268q22 70 22 89q0 8 -3 8q-7 0 -28 -29q-49 -79 -88 -195q-26 -84 -43 -163z" />
<glyph unicode="I" horiz-adv-x="962" d="M4 924q12 89 76 159q114 127 385 127h24q130 0 254 -30q64 61 166 61q80 0 101 -51q7 -13 8 -25q0 -15 -13 -29q-22 -24 -57 -32q-8 -3 -28 -1t-27 2t-26.5 5t-26.5 7t-27 8t-27 8q-44 -55 -69 -162q-17 -73 -26 -178.5t-10 -178.5t-1 -208q0 -385 -35 -541 q-8 -36 -29 -92q102 -40 158 -144q8 -8 -4 -12h-2q-2 0 -5.5 1t-4.5 1q-53 97 -148 137l-6 -10l-8 -14q-9 -16 -31 -47q-23 -36 -71 -57q-48 -20 -102 -22h-19q-43 0 -85 6q-50 7 -82 24t-32 36q0 28 30 56.5t83 46.5q69 24 160 24q45 0 96 -6q12 28 22 76q35 154 35 537 q0 149 2 228.5t12.5 195t36.5 193t68 128.5q-143 38 -254 41h-30q-234 0 -341 -121q-58 -61 -72 -145q-4 -25 -5 -49q0 -57 24 -109q25 -56 68.5 -91t99.5 -44q10 -2 35 -2q8 0 8 -8v-5q0 -6 -8 -6q-72 0 -130 39.5t-89 108.5q-25 54 -25 115q0 24 4 49zM227 -352 q11 -4 37 -8q33 -6 63 -6q140 0 203 128q-42 16 -98 16q-62 0 -139 -20q-47 -15 -77 -39q-27 -22 -26 -39q0 -16 37 -32zM811 1163l86 -28q31 -11 49 -13q25 6 41 22q10 10 10 23q0 8 -4 17q-13 36 -51 36h-2q-37 0 -71 -18q-35 -18 -58 -39z" />
<glyph unicode="J" horiz-adv-x="923" d="M4 932q15 96 84 168q120 123 351 123q133 0 304 -41q65 59 156 59q33 0 63.5 -12t41.5 -39q6 -15 6 -28q0 -17 -10 -29q-18 -21 -52 -25q-19 -2 -38 -2q-14 0 -29 1q-34 3 -58 11l-41 15q-46 -62 -77 -191q-19 -79 -30.5 -198t-14.5 -193t-7 -232q-8 -380 -35 -563 q21 -4 72 -20q101 -31 240 -105q8 0 4 -12q-5 -5 -12 -2q-164 89 -312 123q0 -3 -1 -8.5t-1 -7.5q-29 -129 -86 -199q-33 -39 -83 -57.5t-140 -18.5q-105 0 -133 78q-9 22 -9 45q0 22 9 46q16 48 59 85q87 74 235 74h19h60q30 172 34 542q4 145 7.5 230t15 201.5t29.5 197.5 q35 136 92 205q-79 24 -154 36t-162 13h-6q-84 0 -160 -28q-79 -29 -135 -87q-45 -47 -66 -107q-17 -51 -17 -98q0 -8 1 -16q3 -54 23 -100q51 -117 164 -133q10 -2 33 -2q8 0 8 -8v-5q-6 -6 -8 -6q-77 0 -132 43q-54 39 -81 103q-25 56 -25 122q0 25 4 52zM182 -467 q12 -31 44.5 -49.5t72.5 -18.5q86 0 150 70q52 64 79 193l7 26q-33 9 -74 9q-37 0 -79 -7q-89 -16 -144 -65q-40 -35 -55 -77q-8 -22 -8 -43q0 -20 7 -38zM809 1163q96 -35 136 -35h4q41 2 41 37q0 8 -3 19q-15 33 -51 34h-4q-33 0 -63 -16q-32 -16 -60 -39z" />
<glyph unicode="K" horiz-adv-x="1390" d="M2 897q13 80 64 143q52 63 132 100q78 36 174 44q62 6 120 7q30 -1 60 -3q84 -4 183 -19q72 72 176 73q83 0 105 -48q16 -28 -8 -55q-42 -29 -96 -29l-3 -1q-54 0 -123 21q-47 -59 -71 -159q-36 -131 -47 -365q79 -3 153 -49q53 22 98.5 58t74.5 71t56.5 87.5t41.5 86.5 t34 88q41 102 76 140q41 44 96 44q17 0 35 -4q4 0 4 -6q0 -8 -8 -8q-17 0 -31.5 -9.5t-25 -22.5t-24 -39.5t-21 -45.5t-21.5 -57q-27 -67 -40 -98.5t-46 -89.5t-69 -99q-87 -90 -193 -125q38 -31 72 -79q66 -97 160 -338q33 -84 49.5 -123.5t47 -102t58.5 -104.5 q104 -148 254 -148q8 0 8 -8t-8 -8h-61q-86 0 -154 41q-61 40 -113 113q-31 42 -62 103t-49.5 107.5t-47.5 122.5q-89 239 -160 336q-25 40 -64 74q-46 -10 -126 -10q0 -18 -1.5 -50.5t-1.5 -47.5q-1 -32 -3 -110.5t-3.5 -113.5t-6 -99t-11 -104t-18 -90.5t-27.5 -93.5 q14 -7 27.5 -15.5t28 -21.5t24 -21.5t25.5 -26.5t22 -25t23.5 -28.5t21.5 -25.5q2 -3 1.5 -7.5t-3.5 -4.5q-2 -2 -6 -2t-6 2q-79 94 -173 148q-34 -84 -102 -116t-174 -34q-159 0 -180 72q-2 8 -2 15q1 24 19 48q24 32 73 58q71 36 172 36q63 0 139 -14q21 79 34.5 184.5 t16.5 159t9 191.5q1 26 2 39q0 16 1 48t1 50q-68 2 -107 16t-39 37q0 49 150 49q9 190 37 325.5t90 213.5q-63 13 -124 19q-57 6 -127 6h-11q-77 0 -142 -13t-127.5 -45t-103.5 -82q-50 -60 -60 -132q-3 -18 -2 -36q0 -53 23 -102q52 -106 166 -125q24 -4 43 -4q8 0 8 -8v-5 q-3 -6 -8 -6q-74 0 -133 37.5t-92 104.5q-24 52 -24 116q0 13 1 27zM137 -307q9 -40 90 -53q31 -6 59 -6q59 0 107 28q71 42 115 137q-80 27 -150 27q-78 0 -143 -33q-41 -22 -63 -49q-17 -21 -16 -40q0 -6 1 -11zM455 557q0 -20 129 -37v2q0 1 0.5 5t1 10.5t0.5 19.5v31 q-29 0 -80 -8t-51 -23zM664 522q52 3 96 15q-45 31 -94 43q0 -9 -1 -28.5t-1 -29.5zM807 1157q7 -2 41 -12q34 -11 56 -15q12 -3 26 -3q12 1 24 3q28 4 41 21q8 12 8 24q0 6 -2 13q-19 32 -57 32h-1q-39 0 -74 -19t-62 -44z" />
<glyph unicode="L" horiz-adv-x="1146" d="M2 918q6 82 59 141q84 104 271 129q69 9 146 9q131 0 282 -26v3q67 67 178 67q46 0 78 -18q23 -15 29 -36t-11 -48l-14 -13q-28 -19 -76 -19q-36 0 -82 11l-53 12q-42 -55 -66 -139q-43 -156 -47 -520q-3 -119 -5.5 -183t-12.5 -156.5t-27 -154.5q-2 -11 -8 -30t-8 -27 q3 -1 31 -18q230 -169 428 -181q98 6 186 55t158 130q24 30 43.5 60.5t28 46.5t8.5 18q3 7 12 4q4 -4 4 -6t-2 -4q0 -3 -8 -19.5t-28 -47.5t-46 -62q-142 -176 -356 -193q-243 0 -482 170q-15 -31 -45 -61q-61 -64 -159 -64h-62q-60 0 -76 43q-4 11 -4 22q0 21 12 46 q18 38 56 65q27 19 64.5 27t111.5 8q32 0 53 -8q2 4 5 14.5t5 14.5q17 62 26.5 158t11.5 149t5 186q3 121 6 192t14 167t30 163q28 98 71 152q-150 30 -283 30q-61 0 -118 -6q-110 -24 -169.5 -52.5t-92.5 -69.5q-46 -55 -54 -127q-1 -14 -1 -28q0 -58 26 -112 q28 -60 77 -98t109 -49q28 -4 45 -4q9 0 9 -8v-5q-3 -6 -9 -6q-81 0 -147.5 43.5t-101.5 118.5q-26 61 -26 121q0 11 1 23zM287 -203q9 -33 59 -33q68 0 120.5 40t84.5 110q-45 22 -76 27q-19 4 -37 4q-55 0 -94 -35q-32 -24 -48 -56q-11 -22 -12 -40q0 -9 3 -17zM829 1159 q72 -17 97 -22q25 -6 44 -7q34 0 52 21q9 13 9 24q0 12 -11 22q-20 19 -55 24q-83 -9 -136 -62z" />
<glyph unicode="M" horiz-adv-x="1787" d="M0 1075q0 70 49 119q54 51 146 51q83 0 140 -20.5t105 -83.5q72 -93 115 -258q26 -87 45 -209q126 381 250 381q65 0 100.5 -16t63.5 -66t55 -154q20 -71 33 -168q56 118 121 205q113 143 211 143q105 0 133 -40q22 -31 21 -109q0 -22 -1 -49q-2 -44 -39 -269 q-53 -295 -57 -436v-15q0 -226 88 -333q92 -108 291 -108q8 0 8 -11q0 -8 -8 -8q-61 0 -86 0.5t-73.5 8t-86.5 22.5q-73 28 -119 86q-92 109 -92 332v28q2 140 55 439q3 19 11 59q12 61 17 93q4 32 12 86q6 43 6 70v13q-2 29 -8.5 61.5t-24.5 47t-47 14.5q-99 -8 -199 -135 q-69 -99 -129 -225q11 -178 14 -253q1 -22 1 -49q0 -61 -5 -141q-7 -116 -31 -209q-18 -75 -45 -116q-14 -24 -41.5 -36t-91.5 -12q-30 0 -30 72q0 91 44 270.5t117 358.5q-12 176 -47 309q-7 32 -16.5 62t-27 71t-43 65.5t-54.5 24.5q-61 0 -133 -129q-61 -113 -111 -276 q9 -53 12 -107q2 -10 3.5 -29.5t3.5 -29.5q10 -143 10 -266q0 -168 -17 -301q-2 -16 -5 -30t-13.5 -40.5t-34 -42.5t-57.5 -16q-49 0 -49 141q0 216 86 565q-3 37 -17 152q-38 271 -112 422q-23 41 -46.5 71.5t-55.5 58.5q-32 27 -72 39q-25 7 -51 8q-16 0 -33 -3 q-68 -10 -105 -53t-37 -97q0 -67 50 -117q43 -37 106 -49q14 -2 47 -2q10 0 10 -10q-2 -2 -2 -4q-4 -4 -8 -4q-104 0 -164 57q-55 49 -55 129zM477 -88q0 -54 8 -94q9 -31 23 -31q24 0 36 67q12 66 14 174q1 41 1 80q1 64 -1 122q-2 94 -9 190q-72 -315 -72 -508zM893 -123 q0 -55 14 -55q65 0 101 151q36 134 36 348q0 68 -4 144q-66 -173 -106.5 -338.5t-40.5 -249.5z" />
<glyph unicode="N" horiz-adv-x="1245" d="M0 1102q0 57 43 100q49 43 137 43q82 0 136.5 -18t99.5 -76q64 -79 106 -231q42 -139 60 -342q10 27 26 77q89 262 172 410q100 180 176 180q127 0 157 -100q10 -33 10 -90q0 -68 -14 -169q-3 -23 -10 -71q-9 -68 -14 -104q-12 -98 -18 -151t-14 -150t-8 -157t4.5 -143 t18.5 -140t39 -116t62 -100q102 -114 299 -114q3 0 7 -4t4 -7q0 -8 -11 -8q-37 0 -55 2q-2 -2 -6 -2q-102 0 -184 31q-81 38 -127 92q-120 132 -129 434v15q0 171 41 520q18 143 25 223q4 47 4 93q0 33 -2 67q-5 80 -31 110q-13 23 -48 23q-63 0 -151 -153.5t-180 -424.5 q-23 -63 -39 -119v-12q0 -24 2 -70q4 -60 8 -128t6 -149q1 -24 0 -47q0 -56 -4 -107q-6 -73 -19.5 -134t-44 -97t-75.5 -36q-37 0 -37 88q0 161 94 516q-3 162 -22 318q-35 250 -105 391q-86 164 -209 164q-79 0 -125 -41q-37 -30 -37 -86q0 -48 34.5 -87.5t90.5 -45.5 q3 0 9.5 -1t9.5 -1q2 0 5 -3t3 -6q-3 -8 -8 -8q-73 0 -117.5 46.5t-44.5 105.5zM438 -160q0 -69 21 -69q10 25 18 50.5t14 56t10 52.5t7 60t4.5 56t2.5 62.5t1.5 58t1 65t0.5 61.5q-80 -307 -80 -453z" />
<glyph unicode="O" horiz-adv-x="1497" d="M2 935q8 69 55 116q81 84 252 84q31 0 59.5 -1.5t57 -6.5t48 -8.5t50 -12t44 -12.5t49 -15.5t47.5 -15.5q65 85 122 127q100 74 213 74q42 0 77 -7t68.5 -23.5t49.5 -50.5q12 -25 12 -57q0 -12 -2 -26q46 -52 88 -154q78 -205 78 -471q0 -285 -94 -465q-42 -88 -117 -147 t-170 -66q-140 0 -235 56q-83 48 -144 147q-110 179 -110 459q0 148 34 291.5t95 253.5l30 47q-192 67 -350 67q-165 0 -239 -80q-41 -41 -50 -99q-2 -15 -3 -30q0 -44 20 -90q24 -60 81 -110t138 -66q46 -8 70 -8q8 0 8 -8q0 -4 -2 -4q-2 -5 -6 -5q-111 0 -193 58 q-77 53 -113 135q-21 42 -21 92q1 15 3 32zM580 459q0 -90 13 -176t44 -169t77 -146.5t116.5 -104.5t158.5 -47q180 12 271 202q94 183 94 457q0 265 -80 467q-35 86 -74 137q-8 -31 -35 -61q-35 -30 -89 -44q-47 -12 -91 -11h-13q-52 2 -102 14q3 -24 19 -37q18 -15 65 -18 q3 0 6 -3t3 -6q0 -8 -9 -8q-48 0 -77 23q-25 21 -25 53q-75 26 -127 47l-18 -33q-60 -109 -93.5 -249.5t-33.5 -286.5zM735 1042q10 -2 40.5 -14t54.5 -21t24 -6q0 7 4 19q16 46 60 84q69 63 163 63q5 0 18 -1t21 -1q-24 53 -67 67q-20 7 -41 6q-24 0 -48 -8 q-46 -16 -92.5 -48.5t-82.5 -70t-54 -69.5zM870 995q38 -10 75 -12h11q32 0 66 9q40 11 68 38q37 39 37 91q0 9 -1 18q-17 10 -45 10q-87 0 -153 -57q-44 -44 -54 -78q-4 -12 -4 -19z" />
<glyph unicode="P" horiz-adv-x="1263" d="M0 1079q0 69 49 115q57 51 156 51q66 0 118.5 -18.5t88.5 -48.5t65 -79.5t47.5 -98.5t38.5 -119q26 -112 33 -156q62 230 121 354q76 166 149 166q90 0 147 -26.5t97 -106.5q40 -87 40 -190q0 -19 -1 -39q-13 -138 -84 -228q-62 -75 -147 -98q-52 -16 -120 -16 q-80 0 -180 22v-10q0 -31 5 -89q6 -70 11 -145t10 -163q3 -46 2 -90q0 -40 -2 -76q-4 -78 -16.5 -142.5t-43 -102.5t-76.5 -38q-25 0 -37 45q-10 45 -10 111q0 247 84 649l-6 61q-17 4 -41 4q-38 0 -96 -11q-92 -18 -126 -62q-17 -24 -17 -46q0 -12 5 -22q18 -38 86 -47 q10 -2 35 -2q10 0 10 -8l-2 -4q0 -6 -8 -6q-108 0 -137 59q-7 16 -7 32q0 29 23 56q24 29 61.5 46t61 21t80.5 8t70 5l-13 90q-43 256 -112 383q-86 160 -207 160q-76 0 -144 -47q-45 -42 -45 -103q0 -52 37.5 -92.5t102.5 -50.5q24 -4 37 -4q10 0 10 -8q0 -2 -2 -2 q0 -7 -8 -7q-90 0 -141.5 49t-51.5 115zM479 -137q0 -72 8 -105q11 -34 21 -34h3q25 0 38 72q14 76 15 198v53q0 93 -2 181q-4 112 -11 221q-72 -357 -72 -586zM604 682l12 -92q51 -23 170 -29q126 10 203 107q48 58 68 140q14 58 14 114q0 22 -2 44q-8 77 -37 138 q-26 53 -69 89t-97 36q-62 0 -135 -156q-70 -160 -125 -381q-2 -4 -2 -10z" />
<glyph unicode="Q" horiz-adv-x="1507" d="M2 935q7 68 55 116q81 84 252 84q200 0 371 -54q54 70 106 109q49 37 119 58q64 18 125 18h12q67 -2 114 -44t48 -122q46 -52 88 -154q78 -205 78 -471q0 -285 -94 -465q-49 -102 -127 -155q-34 -24 -62 -35q-57 -21 -96 -23q12 -27 31 -49q64 -73 168 -96 q56 -12 123 -12q8 0 8 -11q0 -4 -2 -6t-6 -2q-103 0 -185 31q-67 26 -118 86q-25 32 -39 59q-125 0 -217 56q-84 51 -144 147q-110 179 -110 459q0 148 34 291.5t95 253.5l30 47q-192 67 -350 67q-165 0 -239 -80q-41 -41 -50 -99q-2 -15 -2 -30q0 -44 19 -90 q33 -82 114.5 -133t174.5 -51q8 0 8 -8q0 -4 -2 -4q0 -5 -6 -5q-98 0 -183.5 51.5t-122.5 141.5q-20 43 -20 94q0 15 2 30zM580 459q0 -111 21 -214t64 -196t119.5 -155t178.5 -76q-45 99 -45 260v20l18 -2q-1 -18 -1 -36q0 -147 46 -244q88 0 160.5 56.5t118.5 145.5 q94 177 94 457q0 265 -80 467q-35 86 -74 137q-8 -31 -35 -61q-59 -53 -174 -53q-54 0 -121 12q3 -24 19 -37q18 -15 65 -18q9 0 9 -9q0 -8 -9 -8q-48 0 -77 23q-23 20 -23 53q-48 15 -72 25l-57 22l-18 -33q-60 -109 -93.5 -249.5t-33.5 -286.5zM735 1042l56 -20 q41 -16 63 -23q19 66 64 105q67 61 181 61h21q-20 45 -52 63q-24 14 -51 14q-8 0 -17 -1q-36 -6 -75 -26t-75.5 -51t-66 -62t-48.5 -60zM870 995q50 -12 91 -12q82 0 129 47q37 39 37 91q0 9 -1 18q-21 15 -48 15q-8 0 -17 -2q-38 -5 -73 -21.5t-60 -38.5q-54 -54 -58 -97z " />
<glyph unicode="R" horiz-adv-x="1214" d="M0 1108q0 54 43 94q48 43 123 43q83 0 139 -20.5t103 -83.5q65 -85 110 -258q24 -86 35 -158q68 240 121 354q79 166 153 166q51 0 79.5 -3t64.5 -20.5t61 -52.5q49 -70 49 -178q0 -181 -123 -317q-85 -93 -213 -135q49 -37 93.5 -91t87.5 -132.5t67 -128.5t68 -146 q87 -202 143 -283q77 -118 166 -118q3 0 6.5 -4t3.5 -7q0 -8 -10 -8q-44 0 -69 3t-58 14t-61 37.5t-56 70.5q-59 93 -143 289q-39 88 -62.5 138t-63 121t-77.5 122q-46 62 -104 108q-30 -6 -92 -10q-2 -2 -2 -4q14 -178 14 -317q0 -203 -18 -338q-10 -79 -22 -102 q-24 -46 -91 -46q-27 0 -39 45q-8 33 -8 109q0 252 86 651v2q-54 0 -98 14q-39 14 -39 39q0 43 125 43q-1 17 -11 78q-38 248 -110 383q-86 156 -230 156q-52 -7 -86 -37q-39 -36 -39 -82q0 -47 35 -74q32 -22 76 -28q12 -2 39 -2q8 0 8 -11v-4q-4 -4 -8 -4q-81 0 -127 37 q-39 31 -39 86zM385 567q0 -12 27 -20q15 -7 39 -10q35 -5 51 -5q0 5 -8 62q-17 0 -32 -1t-18 -1q-19 -2 -33 -6.5t-20 -9.5t-6 -9zM434 -139q0 -63 10 -105q6 -32 21 -32q8 8 15 25t12 43.5t8.5 49t6 58t3.5 53.5t2.5 53.5t1.5 40.5q0 47 2 72v131q0 67 -8 199 q-74 -367 -74 -588zM561 684l10 -76h15q46 -3 121 -43q104 39 178 121q56 62 87.5 142t31.5 163q0 55 -17 107t-59 91.5t-101 39.5q-64 0 -137 -158q-70 -149 -127 -381q-2 -2 -2 -6zM575 582q-1 -2 -1 -7q0 -6 2 -17q3 -18 2 -23q7 1 31.5 5.5t33.5 6.5z" />
<glyph unicode="S" horiz-adv-x="1019" d="M2 -229q-1 5 -1 9q0 32 36 67q41 39 110 61q74 25 147 25q118 0 234 -66l23 22q65 65 102 151t37 169q0 106 -57 166q-67 67 -180 67q-196 0 -303 84q-95 79 -95 209q0 94 56 209q55 108 155 201q104 97 230 149q138 60 307 60q62 -3 106 -37q43 -37 43 -84 q0 -61 -59 -90q-16 -8 -37 -15q-48 -6 -53 -6q-10 0 -10 11q0 8 10 8q63 0 98 28t35 64q0 43 -37 70q-36 29 -96 32q-265 -16 -463 -202q-95 -87 -150 -194.5t-55 -203.5q0 -126 86 -194q103 -80 293 -80q126 0 193 -76q63 -66 63 -176q0 -86 -38.5 -173.5t-106.5 -158.5 q-3 -5 -10.5 -14t-21 -20.5t-24.5 -16.5l17 -14q79 -69 135 -179q3 -6 -4 -10q0 -2 -4 -2q-6 0 -6 6q-64 117 -152 189q-135 -109 -397 -109q-146 0 -156 64zM18 -225q6 -34 80 -47q32 -4 60 -4q197 0 350 126q-105 65 -219 65q-43 0 -88 -9q-21 -5 -47 -15 q-64 -22 -101.5 -56t-34.5 -60z" />
<glyph unicode="T" horiz-adv-x="1128" d="M4 891q12 82 68 147q119 146 400 146h30q18 1 37 1q129 0 284 -36l23 25q33 33 84 48t141 15q4 0 7 -3t3 -5q0 -10 -10 -10q-113 0 -178 -89q48 -12 59.5 -14.5t66 -14t79.5 -13.5q24 -2 78 -8q35 -4 61 -4q13 0 25 1q32 3 79.5 9.5t80 21t67 37.5t59.5 55q12 18 -4 41 q-8 4 0 12q4 2 6 2q4 0 6 -4q14 -17 14 -34q0 -14 -9 -27q-20 -33 -49.5 -58.5t-68.5 -39.5t-77 -23t-88 -9h-46h-41q-37 0 -91 7t-83 11t-78 13t-62 11q-28 -47 -41 -98q-17 -61 -27.5 -152t-13.5 -153.5t-7 -190.5q-4 -145 -8 -223t-19 -191.5t-42 -191.5 q-12 -36 -36.5 -86t-49.5 -78q73 -48 133 -111q8 -8 0 -12q-2 -2 -6 -2t-6 2q-67 67 -131 111q-55 -57 -138.5 -87.5t-169 -30.5t-168.5 23q-42 20 -55 56q-6 28 14 58.5t60 53.5q75 43 175 42h25q116 -6 212 -64q51 93 63 129q25 74 40 176.5t19.5 185t9.5 206.5q1 24 1 36 q4 175 13.5 292t35.5 208q15 63 45 110q-172 44 -305 47h-29q-264 0 -387 -139q-50 -60 -62 -136q-3 -20 -4 -41q0 -53 23 -99q48 -105 160 -121q28 -4 41 -4q8 0 8 -9v-4q-3 -6 -8 -6q-72 0 -129 36t-86 99q-26 51 -26 108q0 20 3 40zM111 -309q9 -40 90 -56q37 -7 74 -7 q61 0 123 20q98 32 169 110q-59 32 -123 50q-51 14 -109 14h-29q-74 -4 -132 -39q-35 -19 -52 -44q-13 -18 -13 -36q0 -6 2 -12z" />
<glyph unicode="U" d="M2 1082v5q0 61 43 105q51 45 141 45q63 0 108.5 -17t73 -45t44 -73.5t22.5 -93t8 -113.5q1 -15 1 -33q0 -120 -23 -391q-23 -264 -23 -379v-18q6 -193 64 -254q27 -22 53 -22l1 -1q27 1 57 29t58 66.5t57 94.5t53.5 110.5t47.5 115.5l25 68q-25 177 -25 360q0 185 25 313 q24 133 68 133t65 -51q19 -46 19 -125q0 -183 -88 -489q2 -17 8.5 -71.5t9.5 -77t10 -70.5t13.5 -78.5t17 -72t22.5 -79.5q53 -159 127 -249q86 -95 193 -95q8 0 8 -8t-8 -8q-87 0 -149 19t-117 81q-80 92 -131 252q-27 90 -62 279l-14 -35q-73 -190 -152 -309 q-59 -86 -110 -115q-25 -18 -58 -18q-61 0 -98 40q-23 25 -38 62.5t-21 94t-8 104.5q-1 17 -1 38q1 38 3 91q4 82 8 130.5l12 145.5q2 22 8 73q22 204 22 330q0 46 -3 81q-22 262 -183 262q-77 0 -129 -41q-36 -31 -39 -74v-10q0 -36 19 -68q22 -36 62.5 -61t86.5 -25 q11 0 11 -8q0 -2 -2 -4q0 -6 -9 -6q-84 0 -137 53q-45 43 -47 107zM868 641q0 -58 4 -168q74 261 74 438q0 95 -26 138q-16 -37 -27 -99q-25 -125 -25 -309z" />
<glyph unicode="V" horiz-adv-x="1136" d="M2 1072q2 62 37 112q38 53 96 53q105 0 159 -34.5t77 -137.5q16 -75 16 -170v-15q0 -127 -31 -413q-28 -240 -28 -397q0 -196 57 -256q23 -17 49 -14t49.5 14.5t49.5 40t49.5 60.5t48.5 77t47.5 90t46.5 98q87 188 137.5 383.5t50.5 343.5q0 88 -26 172q-2 0 -30.5 -4.5 t-37.5 -5t-33.5 -2t-37.5 1.5t-30.5 9t-29.5 16q-27 20 -36.5 50.5t-2.5 55.5q16 37 45 37q69 0 117 -34t86 -99q153 61 279 149q3 2 6 2q4 0 6 -6q2 -3 2 -5q0 -3 -4 -5q-130 -91 -285 -152l6 -14q23 -77 23 -166q0 -158 -53 -362q-49 -173 -136 -373q-88 -188 -170 -291 q-57 -75 -106 -102q-30 -19 -57 -19q-58 0 -99 41q-31 37 -47 102q-14 58 -14 143v23q2 101 9 183t22 217q2 47 7.5 116t11.5 125t10 124q3 52 2 96v24q-1 52 -11 104t-28.5 85.5t-53 54.5t-82.5 21q-45 0 -84 -48q-33 -45 -33 -97q0 -46 30 -84q30 -40 87 -50h25 q2 0 5 -2.5t3 -5.5v-4q-6 -6 -8 -6q-79 0 -121 45q-37 41 -37 98v7zM668 1194q-3 -9 -3 -20q-1 -10 3 -24q8 -26 30 -42q30 -25 88 -24q15 0 31 1q28 3 62 15q-26 46 -92 88q-52 34 -82 34q-16 0 -26 -9q-8 -7 -11 -19z" />
<glyph unicode="W" horiz-adv-x="1624" d="M0 1063q0 68 43.5 121t112.5 53q50 0 89.5 -10t67.5 -25.5t48 -43t32.5 -55t18.5 -69.5q6 -40 8 -76q1 -21 1 -49v-38q-1 -51 -4 -91t-6.5 -97.5t-4.5 -98.5q-17 -197 -17 -306v-22q9 -161 62 -217q25 -28 54 -29q51 0 113 90q65 92 125 252l2 4q-36 241 -36 469 q0 140 18 246q18 103 57 103q51 0 78 -64q21 -52 21 -154q0 -197 -76 -462q31 -236 56 -346q69 -295 172 -295h8q48 5 104 77q84 108 160 273q80 180 127 366t47 328q0 84 -23 166q-11 -1 -40.5 -6t-42.5 -6.5t-36.5 -1.5t-44.5 5t-43 15q-39 23 -56 58q-12 24 -12 44 q0 10 3 19q12 40 48 49q13 3 27 3q24 0 50 -10q41 -16 78.5 -42t54.5 -51q21 -42 24 -52q136 71 246 181q4 4 7 4t5 -4q3 -2 3 -6t-3 -7q-47 -47 -76 -73.5t-79.5 -61t-95.5 -47.5v-2l4 -18q20 -75 20 -156q0 -149 -51 -348q-51 -183 -127 -352q-67 -158 -160 -277 q-58 -70 -102 -96q-45 -17 -58 -17q-80 0 -138 128.5t-111 386.5q-58 -147 -119 -232q-45 -63 -92 -90q-29 -18 -61 -18q-50 0 -105 45q-30 34 -45.5 88.5t-17.5 141.5v55q0 52 2 93q3 61 12 179q7 95 10 146.5t4 133.5v22q0 66 -5 108q-6 49 -21.5 99t-41.5 78 q-45 48 -116 48q-63 -3 -101.5 -50.5t-38.5 -105.5q0 -48 27 -83.5t82 -39.5h16q9 0 9 -8v-2q0 -8 -9 -8q-72 0 -106.5 42t-34.5 99zM788 825q0 -102 15 -282q61 230 61 413q0 47 -16 126q-10 52 -20 52q-8 0 -16 -36q-2 -13 -5 -31q-19 -93 -19 -242zM1202 1186 q-2 -7 -2 -14q0 -18 11 -38q15 -30 49 -49q28 -17 63 -21q15 -2 29 -1q18 1 32 3q26 4 68 15q-7 22 -25 47q-12 21 -45 44q-34 23 -70 38q-28 12 -53 12q-7 0 -15 -2q-32 -4 -42 -34z" />
<glyph unicode="X" horiz-adv-x="1292" d="M0 -281q0 28 33.5 68t89.5 80q131 88 250 88h10l37 55q110 173 299 596q-105 268 -156 366q-106 204 -221 239q-27 8 -55 8h-19q-57 -6 -84.5 -41.5t-27.5 -83.5q0 -56 35.5 -101.5t89.5 -46.5q0 -2 4 -2q5 0 8 -6v-2q0 -8 -8 -8q-66 0 -107 53q-39 48 -39 113 q0 57 36.5 100t111.5 43q87 0 154.5 -34t112.5 -88.5t89 -141.5q63 -124 119 -268q41 90 67 145t60.5 125t59.5 110.5t53 79t52.5 55.5t47.5 17q4 0 7 -3t3 -5q0 -10 -10 -10q-58 0 -152 -168q-60 -104 -178 -369q14 -49 98 -276q118 -334 173 -456q20 -45 40 -83 q59 -112 121 -174q67 -64 135 -64q9 0 9 -8t-9 -8q-34 0 -47.5 1t-46.5 6t-60.5 20.5t-54.5 40.5q-58 58 -124 178q-76 147 -213 540q-42 117 -64 185q-171 -381 -295 -582l-31 -49q28 -3 58 -16q39 -17 67 -56q66 -84 66 -260q0 -8 -8 -8q-11 0 -11 8q0 170 -59 250 q-48 57 -127 63q-127 -181 -244 -231q-24 -11 -57 -18q-14 -2 -27 -2q-25 0 -49 8q-12 12 -12 28zM16 -281q0 -8 9 -14q9 -7 28 -6q15 0 37 4q133 25 275 225l6 11q-17 0 -62 -9q-92 -19 -176 -80q-50 -33 -83.5 -71t-33.5 -60z" />
<glyph unicode="Y" horiz-adv-x="1128" d="M0 1094q0 55 49 98q51 45 131 45t131 -19.5t78 -64t37.5 -98t13.5 -140.5q0 -92 -22 -385q-21 -223 -21 -340v-20q6 -176 60 -233q27 -23 54 -25t58 22.5t58.5 59.5t57 86t54 101.5t47.5 107.5l13 26v174q0 307 8 416q5 71 20 129q14 53 47 53q44 0 68 -49 q19 -40 19 -116q0 -166 -84 -439q-4 -79 -4.5 -235.5t-7 -288t-27.5 -248.5q71 -8 168 -41q65 -22 110 -43q3 0 4 -3q1 -2 1 -3q0 -2 -1 -4q-5 -9 -10 -4q-151 63 -274 82q-21 -95 -48 -150q-23 -46 -64.5 -73t-125.5 -27q-51 0 -74 37q-17 27 -17 60q0 12 3 26q9 48 41 80 q69 64 209 69q7 49 13 94t9.5 92.5t6 77t4.5 80t2.5 67.5t2 73.5t1.5 66.5q-75 -166 -148 -268q-56 -74 -104 -100q-43 -19 -62 -19q-62 0 -102 43q-32 35 -47.5 95t-15.5 151q-1 10 -1 19q0 80 5 147q4 73 16 196q1 43 5.5 107.5t9 116t5.5 113.5q1 23 1 44q0 36 -1 65 q-3 48 -14 95t-30.5 77.5t-54 49.5t-81.5 19q-20 0 -30 -2q-49 -6 -91 -39q-41 -35 -41 -84q0 -46 37 -70q24 -21 74 -31q14 -2 47 -2q2 0 5 -3t3 -7q-2 -2 -2 -4q-4 -4 -6 -4q-90 0 -133 36.5t-43 84.5zM527 -431q-4 -15 -4 -28q0 -24 11 -45q18 -33 64 -35q27 4 33 7 q47 14 82 86q27 59 41 141l-11 2q-40 1 -59 -4q-70 -14 -121 -58q-26 -26 -36 -66zM877 547q65 224 65 375q0 70 -16 110q-6 12 -11 12q-18 0 -29 -133q-1 -6 -1 -8q-8 -125 -8 -356z" />
<glyph unicode="Z" horiz-adv-x="884" d="M0 1110q0 51 37 88q45 39 119 39q102 0 166 -30.5t165 -119.5q66 -54 97 -77q39 57 80 57h16.5h19t18.5 -0.5t20 -2.5t18 -5t17 -8t12 -12t9 -16.5t3 -21.5q0 -29 -19 -45q-30 -22 -86 -22q-30 0 -67 6l-19 -33q-32 -74 -121 -332q-82 -249 -131 -352q-9 -27 -26 -57 q11 -1 61 -16q71 -26 121 -76q90 -87 90 -232q0 -52 -12 -108q-1 -2 1.5 -4t8.5 -5t11.5 -5.5t14.5 -5.5l13.5 -4.5t12.5 -3.5l7 -3q70 -23 152 -76q6 -2 6 -6q0 -2 -2 -6q-8 -4 -12 -2q-120 74 -221 94q-24 -74 -72 -137q-96 -125 -299 -125q-47 0 -59 37q-4 12 -4 26 q0 25 14 58q26 48 80 92q92 75 229 80q6 0 19.5 -1t19.5 -1q12 42 12 106q0 23 -3 47.5t-15.5 63.5t-33.5 71t-62.5 64t-96.5 49q-54 -85 -146 -85q-42 0 -93 18q-29 22 -29 43q0 25 29.5 45t79.5 20q4 0 14.5 -0.5t33 -1t54.5 -0.5l27 53q41 88 131 353q79 241 120 331 q20 46 25 54q-38 22 -141 108l-28 25q-28 24 -35 29.5t-32.5 25.5t-39.5 26.5t-37 18t-43.5 15.5t-42.5 4q-21 0 -29 -2q-51 -6 -78 -33q-33 -26 -33 -74q0 -44 32.5 -81t82.5 -38h6q4 0 8 -8v-2q0 -2 -2.5 -5t-5.5 -3q-60 0 -98.5 42t-38.5 95zM59 113q0 -22 27.5 -31.5 t58.5 -9.5q19 0 38.5 15t30 28.5t26.5 38.5q-40 6 -105 6q-34 -3 -55 -17t-21 -30zM166 -514q9 -25 43 -25q100 0 178.5 74.5t114.5 183.5q-3 0 -12 1t-13 1h-8q-51 -4 -72 -10q-86 -18 -147 -67q-48 -38 -71 -84q-16 -32 -16 -55q0 -11 3 -19zM641 975q19 -10 39 -16 q18 -5 39 -5h7q26 1 40 15q12 12 12 32q0 19 -14 34.5t-39 15.5q-14 0 -29 -11q-26 -17 -55 -65z" />
<glyph unicode="[" horiz-adv-x="331" d="M41 659q0 348 22 545q30 250 76 250h271q4 0 4 -12q0 -10 -4 -10h-205q-38 0 -68 -228q-24 -214 -24 -545q0 -218 13 -395t34 -272.5t45 -95.5h207q2 0 2 -11q0 -8 -4 -8l-271 -2q-28 0 -48.5 79t-30.5 206.5t-14.5 250.5t-4.5 248z" />
<glyph unicode="\" horiz-adv-x="612" d="M35 1505q-2 0 0 2t6 2q10 0 10 -4l524 -1476q0 -6 -4 -6t-23.5 49t-144 395.5t-368.5 1037.5z" />
<glyph unicode="]" horiz-adv-x="331" d="M41 -115q0 11 2 11h207q24 0 45 95.5t34 272.5t13 395q0 322 -25 545q-30 228 -67 228h-205q-4 0 -4 10q0 12 4 12h270q46 0 76 -250q23 -206 23 -545q0 -124 -4.5 -247.5t-14.5 -251t-31 -206.5t-49 -79l-270 2q-2 0 -3 2t-1 4v2z" />
<glyph unicode="^" horiz-adv-x="565" d="M23 1079v2l225 353h10l33 -50l231 -292l-22 -13q-8 -8 -8 0l-234 289q-3 -5 -25.5 -46.5t-44 -77.5t-50.5 -77.5t-58 -66.5t-53 -25v4h-4z" />
<glyph unicode="_" horiz-adv-x="772" d="M39 49l4 12h674q6 0 6 -12q0 -18 -6 -18h-674z" />
<glyph unicode="`" horiz-adv-x="440" d="M31.5 1536.5q1.5 3.5 7.5 5.5q52 0 77 -10q40 -16 197 -127q14 -10 78 -55q5 0 0 -7q-3 -4 -8 -2l-348 189q-5 3 -3.5 6.5z" />
<glyph unicode="a" horiz-adv-x="638" d="M0 299q0 127 45 233q54 123 131 123q45 0 76.5 -41.5t34.5 -91.5l30 127q0 11 20 14q8 1 15 1l25 -3q20 -5 20 -14q-1 -23 -5 -83q-12 -176 -13 -285q0 -89 9 -134q13 -67 43 -67q49 0 142 178q27 53 54.5 112t42 92t14.5 34q4 7 10 4q5 -3 5 -8q0 -2 -1 -5 q-49 -118 -108 -235q-82 -155 -136 -207q-36 -35 -65 -35q-32 0 -51 48t-24 122q-5 68 -5 133q1 7 1 13q0 72 2 142q1 47 1 71v18q-16 -76 -47 -164q-85 -260 -182 -260q-45 0 -66 53q-18 40 -18 115zM78 299q0 -69 18 -109q9 -21 23 -21q27 0 71 85q32 62 60 143 q13 49 13 94q0 40 -10 76q-15 55 -46 55h-2q-39 -2 -82 -96q-45 -102 -45 -227z" />
<glyph unicode="b" horiz-adv-x="661" d="M0 510q2 56 6 127q6 59 17 128.5t29 156t45.5 169.5t61.5 159.5t80.5 137t98.5 91.5q44 27 98 35q18 3 35 3q35 1 71 -11q52 -18 83 -64q33 -51 33 -116q0 -95 -70 -220q-80 -143 -204.5 -268t-301.5 -265q0 -80 1 -115.5t5.5 -102t17 -119.5t33.5 -103q20 174 127 293 q60 72 111 72h18.5h19.5t17.5 -0.5t19 -2t16.5 -3.5t16.5 -5.5t14 -8.5t14.5 -11.5t11 -15t11 -19.5q16 -39 16 -92q0 -26 -4 -55q26 32 52 65t44.5 58t33 45t22.5 31l8 12q5 5 12 0q4 0 4 -5q0 -3 -2 -8q-94 -143 -180 -233q-3 -10 -13.5 -41.5t-16 -45t-16.5 -37.5 t-24.5 -43t-30.5 -36q-44 -47 -94 -47q-39 0 -57 18q-19 15 -19 35q6 27 34 44.5t69 36t63 38.5q28 68 34 136q2 17 1 33q0 47 -14 83q-10 25 -31 41t-49 16q-40 0 -98 -67q-49 -54 -84 -136t-41 -174v-34q0 -18 4 -54q4 -4 -4 -8q-4 -2 -11 2q-45 38 -75 99.5t-44 123 t-20 141.5q-4 63 -4 111v25zM84 598q354 277 489 516q55 98 65 180q2 17 1 33q0 61 -29 103q-34 52 -92 60l-20 2q-46 0 -90 -28q-62 -38 -115.5 -118.5t-89 -175.5t-62.5 -203.5t-40 -200.5t-17 -168zM289 51q-1 -2 -1 -3q0 -11 23 -23h2q27 7 54 34t55 78 q-24 -12 -76.5 -44.5t-56.5 -41.5z" />
<glyph unicode="c" horiz-adv-x="528" d="M0 309q0 54 16.5 113t46.5 112t81 87t112 34q26 0 45.5 -16t29.5 -41.5t14.5 -52t4.5 -53.5q0 -9 -8 -9t-8 9q0 80 -26 114q-17 22 -41 22q-13 0 -29 -7q-44 -19 -93 -89q-67 -98 -67 -223q0 -105 34 -150q26 -35 63 -35q11 0 23 4q53 14 112.5 58.5t117.5 114.5 q22 27 45 56.5t40 53t31 43t22 30.5l7 12q5 5 13 0q4 0 4 -5q0 -3 -2 -8q-66 -96 -148 -192q-26 -31 -38 -45t-45.5 -49t-57.5 -53.5t-57 -35t-60 -16.5q-85 0 -133.5 63t-48.5 154z" />
<glyph unicode="d" horiz-adv-x="671" d="M0 276q0 126 51 244q29 65 66 100t76 35q32 0 55 -24.5t31 -59.5q3 18 12 91.5t17 121t18 95.5q47 218 116 374q73 171 162 226q45 27 98 35q17 3 35 3q35 1 71 -11q54 -18 85 -64q32 -50 32 -114q0 -95 -69 -222q-40 -74 -94 -143.5t-126.5 -139t-129 -118 t-148.5 -123.5q-1 -21 -4.5 -102.5t-3.5 -118.5t5.5 -100t19.5 -114q30 -104 66 -104q33 0 88 94q17 27 67 119q28 53 56 112.5t42 92.5l15 33q4 8 12 4q7 -4 4 -13q-52 -118 -113 -235q-1 -2 -10.5 -20t-16 -29.5t-18.5 -33.5t-22 -37.5t-23.5 -35.5t-26 -34t-26 -26.5 t-26.5 -19t-25 -6.5q-82 0 -121 133q-28 102 -28 221q0 22 1 44q-8 -29 -26 -71.5t-44 -90t-59.5 -80.5t-64.5 -33q-76 0 -76 145zM78 276q0 -57 16 -94q6 -12 15 -12q20 0 55 53l9 15q5 7 7 10q73 109 90 246q0 79 -22 112q-12 19 -28 19q-12 0 -26 -10q-33 -24 -65 -101 q-51 -118 -51 -238zM362 606q352 278 478 508q56 98 66 180q2 17 2 34q0 60 -29 102q-33 54 -91 62q-11 1 -22 1q-47 0 -90 -29q-86 -53 -158 -217q-70 -166 -112 -370q-36 -183 -44 -271z" />
<glyph unicode="e" horiz-adv-x="512" d="M-14 272q0 54 17 118t47.5 124.5t83 100.5t114.5 40q44 0 65 -41q12 -21 12 -46q0 -23 -10 -51q-21 -57 -59 -101q-67 -75 -188 -94q-2 -16 -2 -50q0 -91 36 -149q38 -43 73 -52q7 -2 14 -2q29 -1 65 29q44 36 69.5 65.5t86.5 110.5l2 2q36 47 72 101.5t54 85.5l19 31 q1 3 5 3.5t5 -1.5q5 0 5 -6q0 -3 -1 -7q-65 -108 -147 -217q-159 -223 -258 -223q-88 0 -134 67t-46 162zM70 340h8q77 0 166 88q40 49 54 100q6 24 7 43q0 21 -8 35q-21 22 -45 22q-42 0 -90 -68q-76 -107 -92 -220z" />
<glyph unicode="f" horiz-adv-x="497" d="M-16 -422q-8 76 -8 176q0 127 14 293q24 294 82 598q61 325 137 533q88 245 180 301q44 27 97 35q17 3 35 3l71 -11q53 -18 84 -64q20 -28 30 -65q3 -15 3 -37q0 -30 -7 -74q-14 -73 -61 -160q-69 -123 -199 -256q-115 -124 -303 -272q-4 -8 -5 -17t-1.5 -22.5 t-1.5 -18.5q89 -218 208 -218q7 0 15 1q49 11 95.5 59.5t69 87.5t22.5 44q4 8 12 4q9 -5 4 -13q0 -2 -6.5 -15t-22.5 -37.5t-34 -47.5q-43 -56 -97 -86q-35 -15 -72 -15q-56 0 -116 33q33 -157 33 -373v-36q-3 -162 -31 -287q-6 -28 -16 -58.5t-27.5 -71.5t-43 -67 t-54.5 -26q-68 0 -86 180zM63 -420q0 -1 1 -7q18 -134 42 -134q3 0 5 1t4 3q47 45 75 169t33 296q2 40 2 79q0 182 -35 341q-33 24 -79 75q-56 -391 -56 -647q0 -98 8 -176zM143 604q354 279 482 512q35 63 51 118q16 49 16 86v6q-2 39 -9.5 63.5t-20.5 42.5q-35 52 -92 59 q-10 1 -20 1q-47 0 -91 -28q-87 -56 -170 -290q-74 -202 -139 -533z" />
<glyph unicode="g" horiz-adv-x="477" d="M-80 -623q0 118 60 244q87 179 241 252q60 28 123 37q-10 85 -12 96q-26 152 -96 324q-22 -34 -47 -65t-54 -56t-55.5 -38t-51.5 -8.5t-42 30.5q-13 26 -13 65q0 121 60 250q14 29 31 58.5t45 59t51 29.5q34 0 57 -28t31 -62.5t8 -72.5q0 -11 -10 -11q-8 0 -8 11 q0 63 -12.5 94t-31.5 28t-41.5 -32.5t-41.5 -79.5q-58 -128 -58 -244q0 -63 26 -63q30 0 96 86q11 14 29 40q20 28 25 33q9 9 39.5 9.5t36.5 -11.5q8 -17 21 -46.5t41.5 -119t44.5 -176.5q8 -70 10 -92q150 0 244 -47q6 -3 6 -8q0 -12 -13 -6q-107 39 -233 39q1 -27 1 -54 q0 -65 -8 -131q-12 -93 -42.5 -186.5t-90.5 -173t-143 -127.5q-32 -18 -80 -20q-6 -1 -12 -1q-40 0 -71 15q-60 41 -60 159zM-61 -623q0 -115 51 -143q26 -18 55 -18q56 0 120 69q97 105 153 286q37 121 37 224q0 52 -9 99l-33 -9q-201 -49 -317 -270q-57 -120 -57 -238z " />
<glyph unicode="h" horiz-adv-x="745" d="M6 637q9 96 30.5 207.5t59 242.5t100.5 238.5t140 153.5q46 27 98 35q17 3 34 3q35 1 71 -11q53 -18 84 -64q35 -50 35 -115q0 -94 -72 -221q-64 -122 -197 -258q-135 -141 -307 -275q-7 -18 -7 -61q1 -12 1 -26q2 -64 8.5 -121t13.5 -99q12 -63 41 -133q17 173 125 293 q60 72 111 72h61q18 0 25.5 -35.5t15.5 -138.5q11 -176 27 -218q11 -30 29 -30q25 0 63 53q33 45 78 129q28 52 57.5 111t44.5 92l15 33q0 3 3.5 4.5t6.5 -0.5q5 -3 5 -8q0 -2 -1 -5q-51 -118 -117 -235q-1 -2 -13 -24t-19 -35t-22.5 -38.5t-27 -42.5t-28 -38t-30 -33.5 t-28.5 -21.5t-28 -9q-46 0 -70 109q-12 62 -25 207q-4 104 -11 127q-8 28 -27 28q-25 0 -68 -48q-7 -8 -15 -17q-49 -54 -83.5 -136t-38.5 -174q0 -70 2 -88q5 -5 -4 -8q-2 -1 -4 -1q-3 0 -5 3q-88 73 -123 252q-20 100 -20 229q0 69 6 146zM82 598q352 275 491 516 q55 97 64 180q2 17 2 32q0 62 -29 104q-33 54 -91 62q-11 1 -21 1q-47 0 -90 -29q-115 -69 -207 -306t-115 -523z" />
<glyph unicode="i" horiz-adv-x="395" d="M0 328q0 27 1 55t3 49t4 38t3 26l1 10q35 9 55 9q23 0 23 -13v-2q-4 -32 -6.5 -70t-3.5 -116v-10q0 -74 14 -136q15 -68 45 -102q14 -12 27 -12q16 0 30 17q28 32 90 144q7 11 10.5 18t9.5 17.5t11 19.5q29 53 59.5 112.5t45.5 92.5l16 33q4 8 13 4q5 -5 5 -9q0 -2 -1 -3 q0 -1 -15.5 -34t-45.5 -91t-60 -111q-130 -252 -182 -252q-51 0 -89 41q-63 76 -63 275zM6 848q0 29 20 48t50 19q29 0 48 -19t19 -48t-19 -48.5t-48 -19.5t-49.5 19.5t-20.5 48.5z" />
<glyph unicode="j" horiz-adv-x="382" d="M-307 -608q0 125 59 243q56 116 154 197t221 94q0 99 -8 164q-5 46 -12.5 93.5t-16 86.5t-17 75.5t-16 64t-13.5 48t-10 31.5l-3 11q-2 5 8 9q28 11 58 5q10 -2 12 -6l3 -11q4 -11 10 -32t14 -48.5t16.5 -64t17 -76t16 -87.5t13.5 -95q8 -118 10 -162q101 0 229 -47 q5 0 5 -5q0 -2 -1 -5q-3 -7 -12 -4q-113 38 -199 41q-16 0 -22 -2q0 -328 -156 -539q-75 -97 -139 -131q-32 -19 -80 -21h-11q-40 0 -71 13q-59 38 -59 160zM-291 -608q0 -114 51 -144q16 -9 34 -9q73 0 183 145q146 190 150 512v14l-45 -10q-54 -14 -102.5 -41t-81 -56 t-61 -65t-43 -60t-27.5 -49q-58 -129 -58 -237zM-41 848q0 29 19.5 48t48.5 19t48 -19t19 -48t-19 -48.5t-48 -19.5t-48.5 19.5t-19.5 48.5z" />
<glyph unicode="k" horiz-adv-x="761" d="M8 651q21 272 111 514q99 254 219 328q46 27 98 35q16 3 33 2l73 -12q52 -18 83 -64q19 -28 29 -66q4 -15 3 -37q1 -31 -7 -73q-14 -74 -62 -160q-61 -114 -197 -256q-138 -141 -309 -274v-50q0 -169 18 -257q15 -81 43 -142q3 30 9 70q27 196 116 295q71 74 174 74h11 q21 0 32 -0.5t29 -3.5t28 -10t18 -20.5t9 -33.5v-6q0 -74 -67 -148q-74 -84 -183 -96q9 -51 109 -135q59 -48 113 -74q58 37 153 219q27 53 54.5 112t42 92t14.5 34q1 2 3.5 3.5t5.5 1t5 -1.5q3 -2 3 -6q0 -2 -1 -5q-49 -119 -110 -236q-118 -241 -201 -241q-21 0 -65 27 t-89 63q-107 88 -116 149q0 6 6 14q101 6 180 91q63 70 63 135v6q0 21 -12.5 36t-34.5 15q-98 0 -159 -67q-89 -91 -115 -283q-10 -103 -10 -178q4 -4 -4 -7q-3 -1 -5 -1q-3 0 -6 2q-89 76 -123 251q-18 107 -18 228q0 71 6 147zM84 610q355 280 489 518q55 98 65 180 q2 17 1 33q0 61 -29 103q-34 53 -92 60q-10 1 -19 1q-47 0 -91 -28q-114 -68 -206.5 -305t-115.5 -523q0 -6 -1 -19.5t-1 -19.5z" />
<glyph unicode="l" horiz-adv-x="393" d="M2 484q7 199 51 415q43 210 111 371q76 169 164 223q46 27 98 35q17 3 33 3l71 -12q52 -18 84 -65q14 -20 22 -46.5t10 -67.5v-11q0 -37 -14 -87q-17 -58 -54 -124q-63 -117 -199 -256q-116 -125 -291 -262q-1 -30 -3.5 -91.5t-2.5 -93.5v-17v-62q2 -48 7.5 -88.5 t16.5 -79.5q29 -112 69 -112q38 1 103 113q21 35 56 101q27 54 55 112.5t42.5 91.5t14.5 34q4 7 13 4q7 -3 4 -12q0 -1 -15 -34t-43 -91t-55 -111q0 -1 -14.5 -28t-23.5 -42t-26.5 -44.5t-32 -48t-32.5 -38.5t-35 -30t-32 -10q-87 0 -125 141q-28 100 -28 254q0 32 1 66z M90 625q342 272 473 503q55 98 65 180q2 17 1 33q0 61 -29 103q-34 53 -92 60q-10 1 -20 1q-47 0 -91 -28q-82 -50 -153 -215q-69 -158 -113 -367q-31 -157 -41 -270z" />
<glyph unicode="m" horiz-adv-x="968" d="M6 166q-6 70 -7 153q0 86 7 185q0 5 6 7t15.5 2.5t19 0l19 -1t12.5 -0.5q8 0 8 -8q-5 -116 -6 -203q0 -157 18 -221q24 66 52 194q26 152 57 234q43 121 108 121h62q9 0 16 -3.5t12 -11.5t9 -16t7 -21t4.5 -21.5t3 -24t2 -22t1 -20.5t0.5 -16q1 -23 1 -56q0 -66 -3 -173 v-133q65 212 105.5 306.5t82.5 94.5h62q18 0 24 -34t13 -140q8 -130 20 -203q10 -61 33 -61q12 0 28 17q26 30 99 171q2 5 4 8q27 53 54.5 112t42 92t14.5 34q4 8 12 4q5 -2 5 -7q0 -2 -1 -5q-1 0 -15 -32.5t-41.5 -92.5t-53.5 -111q-72 -136 -114 -187q-46 -54 -79 -54 q-45 -1 -63 67q-18 64 -17 142v8v30q1 68 -3 132q-4 78 -24 94q-32 0 -77 -111q-27 -63 -90 -270q-31 -116 -44 -144q-14 -30 -26 -30q-4 0 -8 4q-17 17 -21 95q-2 39 -2 90.5t2 113.5q2 80 2 229q0 27 -10.5 82t-28.5 55q-52 0 -92 -106q-19 -52 -59 -234 q-40 -247 -98 -247q-48 0 -60 143z" />
<glyph unicode="n" horiz-adv-x="585" d="M3 200q-1 37 -1 79q0 100 8 225q0 12 39 17q41 7 40 -9q0 -2 -1 -4q-7 -143 -7 -236q0 -62 3 -100q10 78 27 156q22 117 57 202q42 99 90 99h61q10 0 21 -11q16 -18 17 -80q0 -9 1 -19q0 -58 -6 -142q-8 -146 -8 -192v-9q3 -111 32 -111q31 1 107 140q14 25 35 65 q27 52 54.5 111.5t41.5 92.5l15 34q5 9 10 4q7 -2 7 -8q0 -2 -1 -4q-49 -119 -110 -236q-1 -2 -13 -24t-19 -35t-22.5 -38.5t-27 -42t-28 -37.5t-30.5 -33.5t-29.5 -21.5t-29.5 -9q-21 0 -37 16q-29 31 -33 133q-1 26 -1 53q0 76 7 152q5 91 5 145q0 40 -3 58q0 9 -4 19.5 t-12 10.5q-73 0 -131 -286q-3 -14 -11 -54.5t-12 -62t-9.5 -55.5t-8 -63.5t-2.5 -57.5q0 -8 -10 -8q-17 0 -33 16q-33 35 -38 161z" />
<glyph unicode="o" horiz-adv-x="628" d="M0 346q0 120 57 205q18 30 49 53q8 63 54 78q17 5 33 6q31 0 65 -18q52 -27 76 -72q47 -73 47 -201q0 -41 -4 -61q42 -16 98 -21q24 3 47.5 15.5t42.5 29.5t36.5 37t30.5 39.5t22 35t14 26.5l6 10q4 7 10 4q6 -2 6 -12l-8 -15q-7 -15 -22.5 -39.5t-32.5 -46.5 q-50 -62 -99 -86q-34 -17 -83 -17q-32 0 -70 7q-11 -85 -49 -158q-26 -50 -66.5 -86t-89.5 -36q-78 0 -125 96q-45 88 -45 227zM76 346q0 -136 43 -221q30 -56 64 -69q11 -4 23 -4q22 0 43 16q32 26 60 84q35 68 47 153q-101 25 -166 94q-49 49 -71 117q0 2 -2 4 q-41 -74 -41 -174zM194 557q9 -62 70 -145q42 -45 96 -68q5 40 5 53q0 144 -67 210q-29 29 -57 29q-10 0 -19 -4q-30 -12 -30 -53q0 -10 2 -22z" />
<glyph unicode="p" horiz-adv-x="649" d="M-244 -723v28q0 61 14 138q19 96 38 170.5t42 148.5q76 255 193 506q-13 95 -18.5 156t-6.5 130v10q0 62 11 104q12 46 37 75q35 41 104 41q36 0 47 -20.5t0.5 -53t-23.5 -58t-28 -48.5q-32 -53 -70 -100q2 -33 10 -107q60 118 123.5 199.5t114.5 81.5q6 0 24.5 0.5 t26.5 0.5t23.5 -2t24.5 -6.5t20 -13t18 -20.5q21 -37 21 -102q0 -66 -21.5 -149.5t-58.5 -156.5q-7 -14 -39 -67q75 0 130.5 49.5t104.5 134.5q22 37 40 77t26 63l8 22q0 2 3.5 3.5t6.5 0.5q8 -4 8 -8q0 -1 -1 -2q0 -2 -7.5 -23t-26 -62t-40.5 -79q-74 -133 -168 -178 q-36 -17 -98 -21q-63 -82 -125 -82q-39 0 -58 19q-21 22 -13.5 51t34.5 47q23 17 55 17q23 0 51 -9q47 74 79 173.5t32 179.5q0 50 -21 94q-22 33 -59 33q-40 0 -101.5 -77.5t-131.5 -217.5l-2 -2q2 -14 12.5 -83.5t13.5 -91t11.5 -84.5t11 -92.5t7.5 -85t6 -92.5t1 -84 q1 -7 1 -13q0 -40 -3 -75q-18 -307 -188 -440q-37 -32 -89 -46q-21 -6 -41 -6q-30 0 -59 13q-32 22 -37 92zM-219 -612q-6 -50 -6 -88q0 -80 28 -99q9 -7 21.5 -7t21.5 3t23.5 12t21 13.5t19.5 15.5q164 130 182 428q2 33 2 71q0 193 -47 499q-100 -220 -182 -480 q-70 -234 -84 -368zM96 530q51 73 56 82q48 76 48 124q0 5 -1 10q-3 20 -15 20q-6 0 -15 -6q-13 -8 -30 -29q-43 -51 -43 -183v-18zM188 111q0 -30 17 -30t53 33q23 20 37 38q-17 5 -27 7.5t-27 4.5h-9q-11 0 -18 -3q-10 -4 -18 -16.5t-8 -33.5z" />
<glyph unicode="q" horiz-adv-x="557" d="M-35 -125q0 10 6 10l29 11q95 31 178 34q31 3 58 0q0 13 1 37.5t1 36.5q0 124 34 447q-6 -16 -15 -47t-13 -44q-52 -144 -90 -204q-51 -99 -107 -99q-35 0 -54.5 38.5t-19.5 107.5q0 146 62 297q25 66 64.5 118t88.5 52q39 0 66.5 -35.5t30.5 -79.5q2 17 14 57t12 52 q0 3 20 6q11 2 22 2l18 -2q20 -2 20 -11q-67 -301 -76 -655v-82q43 -10 101 -35q156 -74 241 -252q60 -126 60 -243q0 -119 -60 -160q-30 -14 -61 -14h-10q-37 3 -66 12.5t-59.5 33.5t-54.5 48.5t-50 58.5q-73 95 -100 271q-18 114 -18 264q-18 4 -62 8q-100 -7 -199 -43 q-8 -4 -12 4zM53 203q0 -32 4.5 -54.5t14 -35t27.5 -0.5t42 51q45 82 86 203l31 92q11 42 11 77q0 53 -25 87q-12 15 -25.5 15t-26.5 -12t-25.5 -28t-23.5 -37.5t-18 -36.5t-12 -28q-60 -158 -60 -293zM315 -98v-19q3 -132 21 -237q27 -178 94 -262q8 -11 16 -20.5t21.5 -25 t26.5 -28.5t29 -27t31.5 -23t31.5 -16q14 -5 28 -5h4q16 1 29 9q51 28 51 144q0 117 -57 237q-11 24 -26 49t-43 60.5t-60.5 64.5t-81 56t-102.5 41q-2 0 -6.5 1t-6.5 1z" />
<glyph unicode="r" horiz-adv-x="544" d="M-119 721q0 82 35 141q28 48 64 74q34 25 65 24h3q32 -2 58.5 -22t37.5 -69q6 -26 6 -56q0 -28 -5 -59q-18 -136 -79 -265q52 -31 115.5 -52t88.5 -35.5t25 -49.5q1 -32 -39 -188q-36 -142 -35 -182v-7q7 -42 28 -42q49 0 177 236q19 35 53 101q27 52 54.5 111.5 t42.5 92.5l14 34q4 7 10 4q5 -2 5 -7q0 -2 -1 -5q-47 -119 -108 -236q-213 -403 -287 -403q-43 0 -57 38q-9 23 -9 53q-1 20 3 44q10 58 26.5 117t32.5 113.5t16 70.5q0 56 -34 93t-77 52t-93 36t-72 46q-64 73 -64 197zM-39 721q0 -145 90 -221q66 145 76 256q3 28 3 51 q0 88 -40 102q-7 2 -14 2q-30 0 -63 -41q-52 -63 -52 -149z" />
<glyph unicode="s" horiz-adv-x="442" d="M-59 761q-16 66 -16 113q0 125 112 125q98 0 97 -136q0 -51 -13 -120q-11 -65 -41 -153q128 -289 168 -406q160 134 237 324q4 7 13 4q5 -2 5 -7q0 -2 -1 -5q-77 -192 -248 -332q22 -57 22 -114q0 -63 -27 -126q-37 -87 -102 -119q-26 -13 -49 -13q-44 0 -80 44 q-15 18 -28 45q-10 20 -11.5 38.5t7 36.5t18 31.5t32 32.5t38.5 31.5t47 34.5q38 27 61 45q-7 44 -92 236q-119 269 -149 390zM-4 -77.5q0 -15.5 8 -31.5q27 -61 71 -61q9 0 19 3q49 13 81 80q27 55 27 115q0 43 -14 89q-11 -9 -30 -22t-25 -17t-21.5 -15t-25.5 -18 t-25.5 -19.5t-25.5 -22.5t-20 -24.5t-14.5 -27.5t-4.5 -28.5zM6 944q-14 -21 -14 -59q0 -90 78 -273q49 156 49 247q0 60 -21 93q-16 25 -39 25q-3 -1 -6 -1q-27 -4 -47 -32z" />
<glyph unicode="t" horiz-adv-x="419" d="M-78 758q-1 2 -1 3q0 4 7 7q37 16 84 15q23 0 47 -3q1 5 23 119q44 215 113 371q73 168 159 223q37 22 79 22q13 0 25 -2q56 -9 101 -47q70 -58 99 -148q14 -44 15 -89q0 -47 -16 -94q-19 -56 -60.5 -99.5t-90 -69t-113 -43t-118.5 -25t-117 -11.5q-10 -46 -19 -115 q54 7 107 31q7 3 10.5 -4t-2.5 -13q-29 -10 -119 -32q-27 -177 -27 -331t27 -255q30 -112 69 -112q38 1 102 111q20 36 56 103q28 54 55.5 112.5t42.5 91.5t15 34q4 8 12 4t5 -12q0 -1 -15 -34t-43.5 -91t-56.5 -111q-1 -2 -9.5 -18t-13.5 -25.5t-16 -29t-19 -33 t-20.5 -32.5t-22.5 -32t-23 -27.5t-24 -23t-23 -14.5t-22 -6q-49 0 -81 40.5t-48 100.5q-27 102 -27 257.5t27 336.5q-10 0 -37 2t-46.5 0.5t-37.5 -8.5q-8 0 -12 6zM162 903q100 5 180.5 24t130.5 43t87 56.5t54 59t27 55.5q15 48 15 93q0 44 -14 86q-28 84 -93 134 q-16 13 -29 20.5t-29 13.5q-11 4 -22 3q-5 -1 -11 -1q-16 -2 -32 -13q-81 -47 -156 -215q-65 -152 -108 -359z" />
<glyph unicode="u" horiz-adv-x="684" d="M0 268q2 60 8 187l4 49q0 17 24 16h15q39 -6 39 -16l-4 -49q-18 -89 -18 -166q0 -72 16 -134q22 -88 64 -90h3q52 0 102 138q11 30 21 65q29 110 39 230q-2 5 2 10t11 4q4 -1 22.5 0.5t31.5 -0.5t13 -10q2 -20 2 -154q-1 -46 -1 -87v-57q2 -64 7 -107.5t18 -59t35.5 -1.5 t58 66t85.5 144q32 59 64.5 123.5t49.5 100.5t17 38q3 7 12 4q3 -2 3 -7q0 -2 -1 -5q0 -2 -17 -38t-49.5 -101t-64.5 -123q-145 -268 -219 -268q-19 0 -33 18q-12 12 -20 26.5t-13 38.5t-8 42.5t-4 57t-1 61.5t0.5 76t0.5 83q-4 -37 -24 -109q-27 -105 -68 -164 q-19 -27 -48 -48.5t-65 -28.5q-7 -1 -13 -1q-28 0 -50 25q-27 27 -37 94q-9 59 -10 112v15z" />
<glyph unicode="v" horiz-adv-x="630" d="M0 504q0 17 40 13t40 -13q0 -214 47 -343q30 -81 67 -81q10 0 21 7q61 37 117 275q-10 10 -13 19q-43 66 -43 151q0 74 37 74q30 0 43 -30t13 -68q0 -17 -4 -45q3 -71 37 -115q26 -34 62 -34q10 0 21 3q23 5 45.5 18t40.5 30.5t34.5 36.5t28.5 38t21 33.5t14 24.5l5 10 q4 7 10 4q7 -2 7 -8q0 -2 -1 -4l-8 -15q-7 -15 -22.5 -39.5t-32.5 -46.5q-73 -91 -140 -100q-13 -3 -27 -3q-57 0 -116 48q-17 -78 -41 -137q-45 -122 -92 -164q-21 -20 -46 -20h-3q-26 1 -50.5 15.5t-41.5 37.5q-30 35 -50 123q-20 96 -20 305z" />
<glyph unicode="w" horiz-adv-x="931" d="M0 504q2 12 21.5 16.5t38 -0.5t18.5 -16q0 -89 29 -227q45 -207 108 -207h4q52 4 109 147q-47 130 -47 244q0 119 61 119q35 0 35 -119q0 -49 -6 -107q18 -112 65 -205q43 -82 82 -82q18 0 36 17q31 32 58 119q23 75 35 149q-15 21 -29 49q-45 90 -45 191q0 86 37 86 q28 0 44.5 -27t20 -63.5t4.5 -74t-1 -58.5q24 -100 110 -138q23 6 45 19t40 30.5t34.5 36.5t28.5 37.5t20.5 33.5t13.5 24l5 10q4 7 10 4q7 -2 7 -8q0 -2 -1 -4l-8 -15q-8 -15 -23.5 -39.5t-33.5 -46.5q-58 -78 -138 -100q-15 -3 -29 -3q-53 0 -95 40q-11 -66 -35 -139 q-23 -73 -56 -121q-12 -17 -30 -35q-33 -18 -47 -18q-16 0 -31 6t-25.5 12.5t-23.5 21.5t-19 23t-19 27t-16 24q-14 28 -24 51l-2 -4q-10 -33 -25.5 -63.5t-46 -57t-65.5 -26.5q-37 0 -65.5 17t-47.5 49t-29.5 61t-21.5 69q-35 128 -35 271z" />
<glyph unicode="x" horiz-adv-x="667" d="M-94 31q0 10 8 10q74 0 180 158l27 49v2q-94 196 -94 397q0 71 16 121q20 51 53 51q12 0 23.5 -12t11.5 -25q1 -9 1.5 -18.5t0 -17t-2.5 -19.5l-3 -18t-5 -19.5t-5 -17t-5.5 -18.5t-5.5 -17q0 -136 62 -307q30 56 84 176q47 101 68 136.5t36 35.5q9 0 9 -8t-9 -8 q-4 0 -32 -48q-4 -8 -24 -48.5t-32 -69.5l-92 -189q18 -41 37.5 -77t46.5 -71t55 -56q29 -21 63 -27q9 -1 18 -1l50 11q34 16 74.5 62t79.5 122q27 52 54.5 111.5t41.5 92.5l15 34q5 9 10 4q7 -2 7 -8q0 -2 -1 -4q-50 -119 -111 -236q-50 -97 -108.5 -154t-121.5 -71 q-14 -3 -29 -3q-49 0 -100 36q-66 48 -124 157l-24 -39q-70 -111 -138 -151h-2q-29 -16 -55 -16q-8 0 -8 8z" />
<glyph unicode="y" horiz-adv-x="710" d="M4 334q-3 21 -3 42q0 65 22 132q0 8 25 8q8 0 18 -1q34 -3 32 -13q-19 -62 -19 -121q0 -22 3 -43q9 -79 53 -139q30 -46 76 -62q61 28 113 168q13 40 23.5 85t15 68.5t4.5 26.5q0 9 21 14.5t41 1.5t17 -18q73 -300 78 -546v-5q5 0 15.5 -1t15.5 -1q85 -3 180 -34 q7 -1 31 -11q5 0 5 -5q0 -2 -1 -5q-4 -7 -10 -4q-110 38 -193 41q-29 0 -41 -2q0 -346 -143 -539q-81 -100 -139 -131q-40 -21 -86 -21q-37 0 -78 13q-60 41 -60 160q0 117 60 243q84 177 242 252q61 28 122 37v10q-3 231 -67 508q-49 -247 -141 -311q-23 -11 -25 -12 q-15 -6 -31 -6q-65 0 -121 75q-46 62 -55 146zM37 -608q0 -114 51 -144q16 -9 35 -9q4 0 8 1q23 2 43 15q58 33 133 129q136 180 139 507v17l-34 -8q-67 -17 -124 -52.5t-95 -79t-60 -76t-37 -63.5q-59 -124 -59 -237z" />
<glyph unicode="z" horiz-adv-x="454" d="M-61 696q0 144 32 222q31 81 78 81q14 0 29 -12q47 -47 47 -156v-18q-3 -123 -51 -268q29 -29 99.5 -49.5t98.5 -42.5q41 -27 41 -84q0 -39 -17 -82t-32 -65t-39 -54q-22 -31 -24 -37h6q8 1 17 1q102 0 184 -138q16 -26 32 -70q46 7 91 7q103 0 204 -35l29 -11q5 0 5 -5 q0 -2 -1 -5q0 -8 -12 -4q-121 44 -228 44q-42 0 -82 -7q29 -90 34 -181q1 -15 1 -30q0 -75 -21 -155q-25 -94 -81 -171q-75 -96 -137 -131q-52 -25 -93 -25q-39 0 -69 22q-62 46 -62 155q0 123 60 243q85 178 241 252l48 21q-13 35 -37 78q-40 69 -88 102q-38 27 -78 27 q-10 0 -19 -2q-16 0 -22 10q-1 3 -1.5 5.5t0.5 6t2.5 6l4.5 7.5t5.5 8.5t7.5 10t8 11.5q83 108 83 191q0 39 -28 64.5t-64 35.5t-79 26t-64 37q-59 53 -59 164zM16 696q0 -93 43 -139q44 132 44 241q0 34 -4 65q-10 71 -33 74h-2q-24 0 -38 -86q-10 -62 -10 -155zM37 -608 q-1 -79 25 -116q21 -31 53 -31q7 0 13 1q40 7 86 43t89 95q75 96 99 244q7 46 7 89q0 94 -36 172q-59 -20 -109.5 -55t-84 -74.5t-53 -71t-32.5 -59.5q-57 -120 -57 -237z" />
<glyph unicode="{" horiz-adv-x="313" d="M0 614v9l2 1q76 46 115 149q28 75 28 171q0 209 52.5 347t132.5 147h12q6 0 6 -2t-6 -2q-22 0 -39 -9.5t-30 -30t-22 -45t-15 -61.5t-10 -71.5t-6 -84t-2.5 -90.5t-0.5 -98q0 -61 -16.5 -114t-40 -87t-53.5 -61t-51.5 -39.5t-39.5 -19.5q19 -4 39.5 -12t51 -31.5 t53.5 -56t40 -90.5t17 -130v-82t1.5 -73.5t4.5 -70t8 -57.5t13.5 -51.5t20 -36.5t28 -27.5t37.5 -10.5q3 0 10.5 -2.5t7.5 -6.5q0 -2 -6 -2h-16q-85 15 -134 126.5t-49 293.5q0 61 -8 110.5t-20 81t-27.5 55.5t-30.5 35.5t-27 18.5t-20 8l-8 2h-2z" />
<glyph unicode="|" horiz-adv-x="612" d="M295 483.5q1 361.5 8 1052.5q-2 0 0 2t6 2q10 0 10 -4l-12 -1536q-3 -6 -6 -6q-4 0 -5.5 64t-0.5 425.5z" />
<glyph unicode="}" horiz-adv-x="313" d="M0 -115q0 4 7.5 6.5t10.5 2.5q21 2 37.5 10.5t28 27.5t20 36.5t13.5 51.5t8 57.5t4.5 70t1.5 73.5v82q0 72 17 130t40 90.5t53.5 56t51 31.5t39.5 12q-18 7 -39.5 19.5t-51.5 39.5t-53.5 61t-40 87t-16.5 114q0 57 -0.5 98t-2.5 90.5t-6 84t-10 71.5t-15 61.5t-22 45 t-30 30t-39 9.5q-6 0 -6 2t6 2h12q80 -9 132.5 -147t52.5 -347q0 -66 14 -122.5t31.5 -89t41 -59t35.5 -35.5t21 -14l2 -1v-9h-2q-6 -1 -15.5 -3.5t-33.5 -21t-43 -48t-34 -92.5t-15 -146q0 -182 -48.5 -293.5t-133.5 -126.5h-17z" />
<glyph unicode="~" horiz-adv-x="964" d="M49 1165q35 74 78 116.5t87 54t92 6.5t96.5 -21.5t97 -34.5t97 -29t93 -8t88.5 33t80 88q0 8 8 0v-4q-83 -142 -185 -166.5t-245 51.5q-27 14 -41.5 21t-40 17.5t-41.5 13.5t-40.5 6t-42 -2.5t-41 -15t-44 -27.5t-43.5 -45t-45 -62z" />
<glyph unicode="&#xa2;" horiz-adv-x="690" d="M10 664q0 128 104 251.5t265 178.5l8 233q2 4 6 4l2 -4l-8 -229q100 28 184 28q4 0 4 -2q0 -4 -4 -4q-100 0 -188 -45l-33 -710q94 -27 221 -27l4 -4q0 -2 -4 -2q-116 0 -221 18l-4 -172l-4 -2l-6 2l10 172q-115 19 -207 80q-129 88 -129 234zM115 666q0 -143 104 -230 q47 -40 127 -69l33 706q-118 -59 -191 -173.5t-73 -233.5z" />
<glyph unicode="&#xa3;" horiz-adv-x="856" d="M52 281.5q0 28.5 24 70.5q17 26 40 31.5t44 -2.5t57 -29q35 119 35 291v62l-168 -13q-2 0 -2 2q0 4 2 4l168 17q15 326 143 442q57 55 121 55h2v-2h6l-6 -4q-1 -2 -2 -2q-40 0 -88 -41q-121 -121 -133 -444l231 20l4 -4q0 -8 -4 -8l-231 -20v-64q0 -196 -55 -309 q43 -27 68.5 -40.5t78.5 -33t99 -22t112.5 9.5t136.5 45q0 3 3 1l3 -1v-6q-72 -34 -139.5 -47.5t-116 -10.5t-99 21t-80 35t-68.5 43q-23 -55 -56 -84t-63 -29h-4q-4 -4 -6 -4q-20 0 -41 25q-16 17 -16 45.5zM59.5 282q0.5 -27 16.5 -44q14 -24 49 -13q56 18 88 119 q-61 35 -84 35q-25 0 -47 -31q-23 -39 -22.5 -66z" />
<glyph unicode="&#xa5;" horiz-adv-x="524" d="M6 768q0 4 2 4l291 14v115l-217 320v4h55l217 -316l221 332q0 2 5 2v-4l-224 -338v-113l205 11q6 0 6 -2q0 -4 -6 -4l-205 -11v-278l222 10q2 0 2 -2t-2 -2l-222 -12v-297q0 -2 -2 -2h-53q-2 0 -2 2v295l-274 -15h-2q-5 2 -5 4l5 2l276 15v278l-291 -16z" />
<glyph unicode="&#xa8;" horiz-adv-x="624" d="M70 1278q0 31 20.5 52.5t48.5 21.5q31 0 52.5 -21.5t21.5 -52.5q0 -32 -21.5 -54t-52.5 -22q-28 0 -48.5 22t-20.5 54zM389 1278q0 30 21 52t49 22q31 0 52 -21.5t21 -52.5q0 -32 -21 -54t-52 -22q-28 0 -49 22t-21 54z" />
<glyph unicode="&#xab;" horiz-adv-x="724" d="M29 752l413 385q20 16 23 -11q0 -23 -14 -34l-385 -338q189 -148 279 -220.5t106.5 -89.5t15.5 -24q0 -3 -5.5 -4.5t-14.5 1.5t-15 9q-372 316 -403 326zM195 752l413 385q20 16 23 -11q0 -22 -15 -34l-385 -338q190 -149 279.5 -221t106.5 -89t16 -24q0 -3 -5.5 -4.5 t-14.5 1.5t-15 9q-372 316 -403 326z" />
<glyph unicode="&#xad;" horiz-adv-x="772" d="M39 821l4 15h674q6 0 6 -15q0 -4 -6 -4h-674z" />
<glyph unicode="&#xb4;" horiz-adv-x="440" d="M32 1347q-1 3 1 3l1 1h1l1 1l1 1l1 1h1l1 1l1 1h1l1 1l1 1l1 1h1l1 1l1 1h1l1 1l2 1q200 142 240 162q35 17 80 17h7h6q6 -2 7.5 -5.5t-3.5 -6.5l-348 -189q-8 -4 -9 6z" />
<glyph unicode="&#xb8;" horiz-adv-x="612" d="M293 -254q0 57 41 111.5t94 54.5q33 0 55 29q15 17 16 44.5t-5 46.5l-7 19q0 12 7 12q6 0 6 -4q3 -9 7 -24.5t3.5 -50.5t-16.5 -56q-13 -26 -66 -26q-47 0 -83 -48.5t-36 -107.5q0 -51 35 -84q34 -39 117 -39q5 0 5.5 -0.5t0.5 -5.5q0 -6 -6 -6q-87 0 -129 39 q-39 39 -39 96z" />
<glyph unicode="&#xbb;" horiz-adv-x="724" d="M12 422q-1 7 16 24t106.5 89t279.5 221l-385 338q-15 12 -15 34q3 27 23 11l414 -385q-3 -1 -19.5 -12t-117 -92t-267.5 -222q-6 -6 -15 -9t-14.5 -1.5t-5.5 4.5zM178 422q-1 7 16 24t106.5 89t279.5 221l-385 338q-15 12 -15 34q3 27 23 11l413 -385q-3 -1 -19.5 -12 t-117 -92t-266.5 -222q-6 -6 -15 -9t-14.5 -1.5t-5.5 4.5z" />
<glyph unicode="&#xbf;" horiz-adv-x="796" d="M35.5 289.5q-1.5 43.5 6 92t25.5 102t40.5 107t50 108.5t54.5 106t54 100l15 27q98 184 114 233q12 36 4 49q-3 6 -16 15q22 -3 31 -15q19 -30 -11 -115.5t-100 -236.5q-103 -228 -135 -317q-120 -337 31 -413q46 -23 118 -23q113 0 195 120q68 100 77 219q7 115 -51 154 q-21 14 -51 14l-4 5q0 6 4 6q116 0 147 -97q29 -90 -23 -209q-53 -121 -153 -183q-68 -42 -143 -42q-72 0 -125.5 14t-85 39.5t-49.5 61t-19.5 79zM322 1556q0 27 17 45.5t44 18.5q26 0 42.5 -18.5t16.5 -45.5q0 -29 -16.5 -48t-42.5 -19q-27 0 -44 18.5t-17 48.5z" />
<glyph unicode="&#xc0;" horiz-adv-x="1779" d="M6 20q-16 62 19 127q30 66 94 103q74 40 170 8q32 -16 59 -43q8 -8 0 -12q-6 -6 -12 0q-42 42 -96.5 52t-112.5 -22q-57 -32 -87.5 -93t-16.5 -115q29 -107 241 -107q302 15 598 350q97 111 178 238q-60 -19 -90 -28t-100.5 -25t-117 -19.5t-102.5 3t-93 28.5 q-23 16 -23 51q0 3 3 5.5t5 0.5q4 0 7 -3t3 -5q0 -23 17 -37q19 -12 43.5 -19t55.5 -6.5t59.5 2.5t67 10.5t65.5 15t68 19.5t61 19.5t58 20t46 16.5q102 168 162 301q0 210 27 299q35 100 96 100q7 0 11 -4t5 -8t1.5 -13.5t0.5 -12.5q-3 -66 -59 -213q-14 -166 16 -375 q22 0 58 -25q12 -11 18.5 -26t8 -29.5t1 -30t-3 -27t-4.5 -19.5l-2 -9q-2 -6 -10 -6q-9 3 -6 12t5.5 24t-0.5 48.5t-20 50.5q-17 14 -41 16q41 -269 138 -508q85 -204 198 -323q126 -129 275 -129q10 0 10 -8q0 -9 -10 -9h-62q-154 0 -287 133q-117 123 -202 330 q-74 178 -123 416l-12 74q-5 0 -7 -2l-188 -68q-8 -12 -10 -18q-174 -263 -361 -412q-231 -187 -463 -184q-59 0 -103.5 12t-69 31.5t-37 38t-17.5 38.5zM1100 565q76 39 155 56q-2 24 -9.5 90t-8.5 106q-61 -124 -137 -252zM1161.5 1532.5q1.5 3.5 7.5 5.5q52 0 77 -10 q41 -16 199 -128q20 -14 77 -54q5 0 -1 -7q-3 -4 -8 -2l-348 189q-5 3 -3.5 6.5z" />
<glyph unicode="&#xc1;" horiz-adv-x="1779" d="M6 20q-16 62 19 127q30 66 94 103q74 40 170 8q32 -16 59 -43q8 -8 0 -12q-6 -6 -12 0q-42 42 -96.5 52t-112.5 -22q-57 -32 -87.5 -93t-16.5 -115q29 -107 241 -107q302 15 598 350q97 111 178 238q-60 -19 -90 -28t-100.5 -25t-117 -19.5t-102.5 3t-93 28.5 q-23 16 -23 51q0 3 3 5.5t5 0.5q4 0 7 -3t3 -5q0 -23 17 -37q19 -12 43.5 -19t55.5 -6.5t59.5 2.5t67 10.5t65.5 15t68 19.5t61 19.5t58 20t46 16.5q102 168 162 301q0 210 27 299q35 100 96 100q7 0 11 -4t5 -8t1.5 -13.5t0.5 -12.5q-3 -66 -59 -213q-14 -166 16 -375 q22 0 58 -25q12 -11 18.5 -26t8 -29.5t1 -30t-3 -27t-4.5 -19.5l-2 -9q-2 -6 -10 -6q-9 3 -6 12t5.5 24t-0.5 48.5t-20 50.5q-17 14 -41 16q41 -269 138 -508q85 -204 198 -323q126 -129 275 -129q10 0 10 -8q0 -9 -10 -9h-62q-154 0 -287 133q-117 123 -202 330 q-74 178 -123 416l-12 74q-5 0 -7 -2l-188 -68q-8 -12 -10 -18q-174 -263 -361 -412q-231 -187 -463 -184q-59 0 -103.5 12t-69 31.5t-37 38t-17.5 38.5zM1100 565q76 39 155 56q-2 24 -9.5 90t-8.5 106q-61 -124 -137 -252zM1138 1333q-1 4 1 4q214 151 253 172 q38 21 82 21h17q6 -2 7.5 -5.5t-3.5 -6.5l-348 -189q-7 -4 -9 4z" />
<glyph unicode="&#xc2;" horiz-adv-x="1779" d="M6 20q-16 62 19 127q30 66 94 103q74 40 170 8q32 -16 59 -43q8 -8 0 -12q-6 -6 -12 0q-42 42 -96.5 52t-112.5 -22q-57 -32 -87.5 -93t-16.5 -115q29 -107 241 -107q302 15 598 350q97 111 178 238q-60 -19 -90 -28t-100.5 -25t-117 -19.5t-102.5 3t-93 28.5 q-23 16 -23 51q0 3 3 5.5t5 0.5q4 0 7 -3t3 -5q0 -23 17 -37q19 -12 43.5 -19t55.5 -6.5t59.5 2.5t67 10.5t65.5 15t68 19.5t61 19.5t58 20t46 16.5q102 168 162 301q0 210 27 299q35 100 96 100q7 0 11 -4t5 -8t1.5 -13.5t0.5 -12.5q-3 -66 -59 -213q-14 -166 16 -375 q22 0 58 -25q12 -11 18.5 -26t8 -29.5t1 -30t-3 -27t-4.5 -19.5l-2 -9q-2 -6 -10 -6q-9 3 -6 12t5.5 24t-0.5 48.5t-20 50.5q-17 14 -41 16q41 -269 138 -508q85 -204 198 -323q126 -129 275 -129q10 0 10 -8q0 -9 -10 -9h-62q-154 0 -287 133q-117 123 -202 330 q-74 178 -123 416l-12 74q-5 0 -7 -2l-188 -68q-8 -12 -10 -18q-174 -263 -361 -412q-231 -187 -463 -184q-59 0 -103.5 12t-69 31.5t-37 38t-17.5 38.5zM1100 565q76 39 155 56q-2 24 -9.5 90t-8.5 106q-61 -124 -137 -252zM1141 1292v2l225 353h10l33 -50l231 -292 l-22 -13q-8 -8 -8 0l-234 289q-3 -5 -25.5 -46.5t-44 -77.5t-50.5 -77.5t-58 -66.5t-53 -25v4h-4z" />
<glyph unicode="&#xc3;" horiz-adv-x="1779" d="M6 20q-16 62 19 127q30 66 94 103q74 40 170 8q32 -16 59 -43q8 -8 0 -12q-6 -6 -12 0q-42 42 -96.5 52t-112.5 -22q-57 -32 -87.5 -93t-16.5 -115q29 -107 241 -107q302 15 598 350q97 111 178 238q-60 -19 -90 -28t-100.5 -25t-117 -19.5t-102.5 3t-93 28.5 q-23 16 -23 51q0 3 3 5.5t5 0.5q4 0 7 -3t3 -5q0 -23 17 -37q19 -12 43.5 -19t55.5 -6.5t59.5 2.5t67 10.5t65.5 15t68 19.5t61 19.5t58 20t46 16.5q102 168 162 301q0 210 27 299q35 100 96 100q7 0 11 -4t5 -8t1.5 -13.5t0.5 -12.5q-3 -66 -59 -213q-14 -166 16 -375 q22 0 58 -25q12 -11 18.5 -26t8 -29.5t1 -30t-3 -27t-4.5 -19.5l-2 -9q-2 -6 -10 -6q-9 3 -6 12t5.5 24t-0.5 48.5t-20 50.5q-17 14 -41 16q41 -269 138 -508q85 -204 198 -323q126 -129 275 -129q10 0 10 -8q0 -9 -10 -9h-62q-154 0 -287 133q-117 123 -202 330 q-74 178 -123 416l-12 74q-5 0 -7 -2l-188 -68q-8 -12 -10 -18q-174 -263 -361 -412q-231 -187 -463 -184q-59 0 -103.5 12t-69 31.5t-37 38t-17.5 38.5zM903 1360q35 74 78 116.5t87 54t92 6.5t96.5 -21.5t97 -34.5t97 -29t93 -8t88.5 33t80 88q0 8 8 0v-4 q-83 -142 -185 -166.5t-245 51.5q-27 14 -41.5 21t-40 17.5t-41.5 13.5t-40.5 6t-42 -2.5t-41 -15t-44 -27.5t-43.5 -45t-45 -62zM1100 565q76 39 155 56q-2 24 -9.5 90t-8.5 106q-61 -124 -137 -252z" />
<glyph unicode="&#xc4;" horiz-adv-x="1779" d="M6 20q-16 62 19 127q30 66 94 103q74 40 170 8q32 -16 59 -43q8 -8 0 -12q-6 -6 -12 0q-42 42 -96.5 52t-112.5 -22q-57 -32 -87.5 -93t-16.5 -115q29 -107 241 -107q302 15 598 350q97 111 178 238q-60 -19 -90 -28t-100.5 -25t-117 -19.5t-102.5 3t-93 28.5 q-23 16 -23 51q0 3 3 5.5t5 0.5q4 0 7 -3t3 -5q0 -23 17 -37q19 -12 43.5 -19t55.5 -6.5t59.5 2.5t67 10.5t65.5 15t68 19.5t61 19.5t58 20t46 16.5q102 168 162 301q0 210 27 299q35 100 96 100q7 0 11 -4t5 -8t1.5 -13.5t0.5 -12.5q-3 -66 -59 -213q-14 -166 16 -375 q22 0 58 -25q12 -11 18.5 -26t8 -29.5t1 -30t-3 -27t-4.5 -19.5l-2 -9q-2 -6 -10 -6q-9 3 -6 12t5.5 24t-0.5 48.5t-20 50.5q-17 14 -41 16q41 -269 138 -508q85 -204 198 -323q126 -129 275 -129q10 0 10 -8q0 -9 -10 -9h-62q-154 0 -287 133q-117 123 -202 330 q-74 178 -123 416l-12 74q-5 0 -7 -2l-188 -68q-8 -12 -10 -18q-174 -263 -361 -412q-231 -187 -463 -184q-59 0 -103.5 12t-69 31.5t-37 38t-17.5 38.5zM1098 1509q0 31 20.5 52.5t48.5 21.5q31 0 52.5 -21.5t21.5 -52.5q0 -32 -21.5 -53.5t-52.5 -21.5q-28 0 -48.5 21.5 t-20.5 53.5zM1100 565q76 39 155 56q-2 24 -9.5 90t-8.5 106q-61 -124 -137 -252zM1417 1509q0 30 21 52t49 22q31 0 52.5 -21.5t21.5 -52.5q0 -32 -21.5 -53.5t-52.5 -21.5q-28 0 -49 21.5t-21 53.5z" />
<glyph unicode="&#xc7;" horiz-adv-x="1206" d="M4.5 911.5q-12.5 -67.5 15.5 -133.5q28 -75 99 -119q70 -49 172 -49q4 0 8 4v4q0 9 -8 9q-35 0 -62 6q-73 14 -121.5 55.5t-70.5 95.5q-27 62 -15 125t58 109q53 53 143 72q144 33 369 -35q-27 -30 -49 -62q-85 -130 -125 -260q-47 -137 -47 -287q0 -241 133 -393 q50 -53 114 -90q-52 -32 -96 -67q-43 -34 -82 -72t-57 -59t-18 -23q-9 -5 2 -12l4 -2q4 0 8 4q0 2 18 22t56 57.5t79 71.5q50 37 103 70q58 -26 92 -35q0 -1 2 -7.5t3 -11t2.5 -13t2 -14.5t0 -15t-2 -16t-5 -15t-8.5 -14q-22 -29 -55 -29q-53 0 -94.5 -54.5t-41.5 -111.5 t39 -96q42 -39 129 -39q3 0 4.5 1.5t1.5 2.5l1 2q0 6 -7 6q-82 0 -116 39q-35 33 -35 84q0 59 36 107.5t83 48.5q52 0 65 26q27 38 10 115q109 -31 215 -31q66 0 93.5 28t27.5 56q0 51 -50.5 71.5t-119 13t-129 -22t-90.5 -29.5l-20 -10q-46 28 -88 76q-131 143 -131 380 q0 136 44.5 278t124.5 259q7 11 21.5 29t17.5 22q31 -11 93 -37q61 -26 127.5 -38.5t138 -2t112.5 51.5q31 31 40.5 76t-7.5 87q-23 52 -80.5 72.5t-123.5 12t-126.5 -28.5t-99.5 -45q-61 -43 -115 -99q-394 101 -548 -53q-51 -51 -63.5 -118.5zM684 1065q24 24 60.5 51 t82 55t93.5 45.5t91.5 23t79.5 -13.5t54 -63q14 -35 6 -76t-35 -67q-90 -90 -299 -6q-16 6 -43.5 17t-49 19.5t-40.5 14.5zM686 -20q115 51 240 51q69 -4 102 -22t33 -42q0 -35 -36 -51t-88.5 -12t-106.5 15.5t-95 29t-49 31.5z" />
<glyph unicode="&#xc8;" d="M2.5 921.5q9.5 67.5 54.5 112.5q80 86 250 86q186 3 342 -41q62 72 151.5 115t180.5 43q44 0 82.5 -22t56.5 -64q17 -35 10 -74.5t-36 -68.5q-94 -94 -318 -11q-13 5 -27 10.5t-31 11.5t-26 9q-19 -33 -28 -57q-21 -49 -22 -92.5t11.5 -78.5t40.5 -85l13 -15q30 0 75 -18 q29 -15 47 -33q14 -14 20.5 -33.5t-2.5 -35t-36 -15.5q-76 0 -164 101q-80 -24 -141 -113q-78 -118 -78 -274q0 -155 84 -263l18 -18l31 18q96 52 178 52q24 0 54.5 -4t67 -13.5t61 -30t24.5 -49.5q0 -26 -20 -44.5t-53 -27t-58.5 -12t-52.5 -4.5q-199 0 -266 70 q-36 -27 -72 -59q-24 -22 -46.5 -47t-39 -44.5t-29 -35.5t-19.5 -25l-7 -10q0 -4 -7 -4q-1 0 -3 1t-3 1q-4 8 0 12q0 2 17 24t52 62.5t73 77.5q49 43 69 57q-31 27 -43 43q-88 108 -88 273q0 162 80 284q55 80 127 111q42 17 68 22l-9 11q-89 125 -32 272q14 35 43 72 q-179 53 -320 53q-160 0 -237 -82q-41 -41 -50 -99t17 -118q28 -66 84.5 -111.5t130.5 -60.5q30 -6 65 -6q9 0 9 -9q0 -2 -2 -4q-4 -4 -7 -4q-105 0 -188 56q-72 49 -111 131q-25 57 -15.5 124.5zM543 -14q81 -70 213 -86q21 1 44 4t55 10.5t52.5 22t20.5 34.5 q0 29 -47.5 50.5t-141.5 27.5q-29 0 -59 -6q-70 -15 -137 -57zM572.5 1530.5q1.5 3.5 7.5 5.5h1h1h1h2q49 0 78 -13q39 -17 212 -140h1l1 -1l1 -1l1 -1h1l1 -1l1 -1h1l1 -1l1 -1h1l1 -1l1 -1h1l1 -1l1 -1l1 -1h1l1 -1l1 -1h1l1 -1l1 -1h1l2 -2h1v-1l1 -1l1 -1h1l1 -1l1 -1h1 l1 -1l1 -1h1l1 -1l1 -1h1l1 -1l1 -1h1l1 -1l1 -1l1 -1h1l1 -1l1 -1h1l1 -1l1 -1h1l1 -1l1 -1l1 -1h1l1 -1q4 0 0 -5q-3 -6 -8 -3l-349 189q-4 3 -2.5 6.5zM715 1059q55 -15 129 -45q35 -14 60 -21t59.5 -12t64 5t53.5 34q25 26 31 60t-8 65q-23 58 -76 69t-113 -16 t-112.5 -64t-87.5 -75zM721 682q0 -24 55 -59q49 -30 59 -21q7 7 -18 35q-26 30 -94 45h-2z" />
<glyph unicode="&#xc9;" d="M2.5 921.5q9.5 67.5 54.5 112.5q80 86 250 86q186 3 342 -41q62 72 151.5 115t180.5 43q44 0 82.5 -22t56.5 -64q17 -35 10 -74.5t-36 -68.5q-94 -94 -318 -11q-13 5 -27 10.5t-31 11.5t-26 9q-19 -33 -28 -57q-21 -49 -22 -92.5t11.5 -78.5t40.5 -85l13 -15q30 0 75 -18 q29 -15 47 -33q14 -14 20.5 -33.5t-2.5 -35t-36 -15.5q-76 0 -164 101q-80 -24 -141 -113q-78 -118 -78 -274q0 -155 84 -263l18 -18l31 18q96 52 178 52q24 0 54.5 -4t67 -13.5t61 -30t24.5 -49.5q0 -26 -20 -44.5t-53 -27t-58.5 -12t-52.5 -4.5q-199 0 -266 70 q-36 -27 -72 -59q-24 -22 -46.5 -47t-39 -44.5t-29 -35.5t-19.5 -25l-7 -10q0 -4 -7 -4q-1 0 -3 1t-3 1q-4 8 0 12q0 2 17 24t52 62.5t73 77.5q49 43 69 57q-31 27 -43 43q-88 108 -88 273q0 162 80 284q55 80 127 111q42 17 68 22l-9 11q-89 125 -32 272q14 35 43 72 q-179 53 -320 53q-160 0 -237 -82q-41 -41 -50 -99t17 -118q28 -66 84.5 -111.5t130.5 -60.5q30 -6 65 -6q9 0 9 -9q0 -2 -2 -4q-4 -4 -7 -4q-105 0 -188 56q-72 49 -111 131q-25 57 -15.5 124.5zM543 -14q81 -70 213 -86q21 1 44 4t55 10.5t52.5 22t20.5 34.5 q0 29 -47.5 50.5t-141.5 27.5q-29 0 -59 -6q-70 -15 -137 -57zM605 1339q-1 4 1 4q214 151 253 172q38 21 82 21h17q6 -2 7.5 -5.5t-2.5 -6.5l-349 -189q-7 -4 -9 4zM715 1059q55 -15 129 -45q35 -14 60 -21t59.5 -12t64 5t53.5 34q25 26 31 60t-8 65q-23 58 -76 69 t-113 -16t-112.5 -64t-87.5 -75zM721 682q0 -24 55 -59q49 -30 59 -21q7 7 -18 35q-26 30 -94 45h-2z" />
<glyph unicode="&#xca;" d="M2.5 921.5q9.5 67.5 54.5 112.5q80 86 250 86q186 3 342 -41q62 72 151.5 115t180.5 43q44 0 82.5 -22t56.5 -64q17 -35 10 -74.5t-36 -68.5q-94 -94 -318 -11q-13 5 -27 10.5t-31 11.5t-26 9q-19 -33 -28 -57q-21 -49 -22 -92.5t11.5 -78.5t40.5 -85l13 -15q30 0 75 -18 q29 -15 47 -33q14 -14 20.5 -33.5t-2.5 -35t-36 -15.5q-76 0 -164 101q-80 -24 -141 -113q-78 -118 -78 -274q0 -155 84 -263l18 -18l31 18q96 52 178 52q24 0 54.5 -4t67 -13.5t61 -30t24.5 -49.5q0 -26 -20 -44.5t-53 -27t-58.5 -12t-52.5 -4.5q-199 0 -266 70 q-36 -27 -72 -59q-24 -22 -46.5 -47t-39 -44.5t-29 -35.5t-19.5 -25l-7 -10q0 -4 -7 -4q-1 0 -3 1t-3 1q-4 8 0 12q0 2 17 24t52 62.5t73 77.5q49 43 69 57q-31 27 -43 43q-88 108 -88 273q0 162 80 284q55 80 127 111q42 17 68 22l-9 11q-89 125 -32 272q14 35 43 72 q-179 53 -320 53q-160 0 -237 -82q-41 -41 -50 -99t17 -118q28 -66 84.5 -111.5t130.5 -60.5q30 -6 65 -6q9 0 9 -9q0 -2 -2 -4q-4 -4 -7 -4q-105 0 -188 56q-72 49 -111 131q-25 57 -15.5 124.5zM530 1331v2l226 353h10l33 -50l231 -293l-22 -12q-3 -3 -6 -3t-3 3l-233 289 q-3 -5 -25.5 -46.5t-44 -77.5t-50.5 -77.5t-58 -66.5t-53 -25v4h-5zM543 -14q81 -70 213 -86q21 1 44 4t55 10.5t52.5 22t20.5 34.5q0 29 -47.5 50.5t-141.5 27.5q-29 0 -59 -6q-70 -15 -137 -57zM715 1059q55 -15 129 -45q35 -14 60 -21t59.5 -12t64 5t53.5 34q25 26 31 60 t-8 65q-23 58 -76 69t-113 -16t-112.5 -64t-87.5 -75zM721 682q0 -24 55 -59q49 -30 59 -21q7 7 -18 35q-26 30 -94 45h-2z" />
<glyph unicode="&#xcb;" d="M2.5 921.5q9.5 67.5 54.5 112.5q80 86 250 86q186 3 342 -41q62 72 151.5 115t180.5 43q44 0 82.5 -22t56.5 -64q17 -35 10 -74.5t-36 -68.5q-94 -94 -318 -11q-13 5 -27 10.5t-31 11.5t-26 9q-19 -33 -28 -57q-21 -49 -22 -92.5t11.5 -78.5t40.5 -85l13 -15q30 0 75 -18 q29 -15 47 -33q14 -14 20.5 -33.5t-2.5 -35t-36 -15.5q-76 0 -164 101q-80 -24 -141 -113q-78 -118 -78 -274q0 -155 84 -263l18 -18l31 18q96 52 178 52q24 0 54.5 -4t67 -13.5t61 -30t24.5 -49.5q0 -26 -20 -44.5t-53 -27t-58.5 -12t-52.5 -4.5q-199 0 -266 70 q-36 -27 -72 -59q-24 -22 -46.5 -47t-39 -44.5t-29 -35.5t-19.5 -25l-7 -10q0 -4 -7 -4q-1 0 -3 1t-3 1q-4 8 0 12q0 2 17 24t52 62.5t73 77.5q49 43 69 57q-31 27 -43 43q-88 108 -88 273q0 162 80 284q55 80 127 111q42 17 68 22l-9 11q-89 125 -32 272q14 35 43 72 q-179 53 -320 53q-160 0 -237 -82q-41 -41 -50 -99t17 -118q28 -66 84.5 -111.5t130.5 -60.5q30 -6 65 -6q9 0 9 -9q0 -2 -2 -4q-4 -4 -7 -4q-105 0 -188 56q-72 49 -111 131q-25 57 -15.5 124.5zM506 1454q0 31 20.5 52.5t48.5 21.5q31 0 52.5 -21.5t21.5 -52.5 q0 -32 -21.5 -54t-52.5 -22q-28 0 -48.5 22t-20.5 54zM543 -14q81 -70 213 -86q21 1 44 4t55 10.5t52.5 22t20.5 34.5q0 29 -47.5 50.5t-141.5 27.5q-29 0 -59 -6q-70 -15 -137 -57zM715 1059q55 -15 129 -45q35 -14 60 -21t59.5 -12t64 5t53.5 34q25 26 31 60t-8 65 q-23 58 -76 69t-113 -16t-112.5 -64t-87.5 -75zM721 682q0 -24 55 -59q49 -30 59 -21q7 7 -18 35q-26 30 -94 45h-2zM825 1454q0 30 21 52t49 22q31 0 52.5 -21.5t21.5 -52.5q0 -32 -21.5 -54t-52.5 -22q-28 0 -49 22t-21 54z" />
<glyph unicode="&#xcc;" horiz-adv-x="962" d="M4 924q12 89 76 159q114 127 385 127q142 3 278 -30q64 61 166 61q80 0 101 -51q17 -30 -5 -53.5t-57 -32.5q-8 -3 -28 -1t-27 2t-26.5 5t-26.5 7t-27 8t-27 8q-44 -55 -69 -162q-17 -73 -26 -178.5t-10 -178.5t-1 -208q0 -385 -35 -541q-8 -36 -29 -92q102 -40 158 -144 q8 -8 -4 -12h-2q-2 0 -5.5 1t-4.5 1q-53 97 -148 137l-6 -10l-8 -14q-9 -16 -31 -47q-23 -36 -71.5 -56.5t-102 -22t-103 5.5t-82 24t-32.5 36q0 28 30 56.5t83 46.5q103 36 256 18q12 28 22 76q35 154 35 537q0 149 2 228.5t12.5 195t36.5 193t68 128.5q-143 38 -254 41 q-257 8 -371 -121q-58 -62 -72 -145.5t19 -157.5q25 -56 68.5 -91t99.5 -44q10 -2 35 -2q8 0 8 -8v-5q0 -6 -8 -6q-72 0 -130 39.5t-89 108.5q-34 74 -21 164zM190 -324q2 -13 37 -28q11 -4 37 -8q189 -33 266 122q-90 34 -237 -4q-47 -15 -76.5 -39t-26.5 -43z M498.5 1553.5q1.5 4.5 7.5 5.5h1h1h1h2q49 0 78 -13q39 -17 212 -140h1l1 -1l1 -1l1 -1h1l1 -1l1 -1h1l1 -1l1 -1h1l1 -1l1 -1h1l1 -1l1 -1l1 -1h1l1 -1l1 -1h1l1 -1l1 -1h1l2 -2h1v-1l1 -1l1 -1h1l1 -1l1 -1h1l1 -1l1 -1h1l1 -1l1 -1h1l1 -1l1 -1h1l1 -1l1 -1l1 -1h1l1 -1 l1 -1h1l1 -1l1 -1h1l1 -1l1 -1l1 -1h1l1 -1q4 0 0 -6q-3 -5 -8 -2l-348 188q-5 3 -3.5 7.5zM811 1163l86 -28q31 -11 49 -13q25 5 41 21.5t6 40.5q-13 35 -51 35.5t-73 -17.5t-58 -39z" />
<glyph unicode="&#xcd;" horiz-adv-x="962" d="M4 924q12 89 76 159q114 127 385 127q142 3 278 -30q64 61 166 61q80 0 101 -51q17 -30 -5 -53.5t-57 -32.5q-8 -3 -28 -1t-27 2t-26.5 5t-26.5 7t-27 8t-27 8q-44 -55 -69 -162q-17 -73 -26 -178.5t-10 -178.5t-1 -208q0 -385 -35 -541q-8 -36 -29 -92q102 -40 158 -144 q8 -8 -4 -12h-2q-2 0 -5.5 1t-4.5 1q-53 97 -148 137l-6 -10l-8 -14q-9 -16 -31 -47q-23 -36 -71.5 -56.5t-102 -22t-103 5.5t-82 24t-32.5 36q0 28 30 56.5t83 46.5q103 36 256 18q12 28 22 76q35 154 35 537q0 149 2 228.5t12.5 195t36.5 193t68 128.5q-143 38 -254 41 q-257 8 -371 -121q-58 -62 -72 -145.5t19 -157.5q25 -56 68.5 -91t99.5 -44q10 -2 35 -2q8 0 8 -8v-5q0 -6 -8 -6q-72 0 -130 39.5t-89 108.5q-34 74 -21 164zM190 -324q2 -13 37 -28q11 -4 37 -8q189 -33 266 122q-90 34 -237 -4q-47 -15 -76.5 -39t-26.5 -43zM507 1350 q-1 4 1 4l1 1h1l1 1l1 1l1 1h1l1 1l1 1h1l1 1l1 1l1 1h1l1 1l1 1h1l1 1l2 1q200 142 240 162q35 17 80 17h7h6q4 -1 6 -3t1.5 -4.5t-3.5 -4.5l-348 -188q-7 -4 -9 4zM811 1163l86 -28q31 -11 49 -13q25 5 41 21.5t6 40.5q-13 35 -51 35.5t-73 -17.5t-58 -39z" />
<glyph unicode="&#xce;" horiz-adv-x="962" d="M4 924q12 89 76 159q114 127 385 127q142 3 278 -30q64 61 166 61q80 0 101 -51q17 -30 -5 -53.5t-57 -32.5q-8 -3 -28 -1t-27 2t-26.5 5t-26.5 7t-27 8t-27 8q-44 -55 -69 -162q-17 -73 -26 -178.5t-10 -178.5t-1 -208q0 -385 -35 -541q-8 -36 -29 -92q102 -40 158 -144 q8 -8 -4 -12h-2q-2 0 -5.5 1t-4.5 1q-53 97 -148 137l-6 -10l-8 -14q-9 -16 -31 -47q-23 -36 -71.5 -56.5t-102 -22t-103 5.5t-82 24t-32.5 36q0 28 30 56.5t83 46.5q103 36 256 18q12 28 22 76q35 154 35 537q0 149 2 228.5t12.5 195t36.5 193t68 128.5q-143 38 -254 41 q-257 8 -371 -121q-58 -62 -72 -145.5t19 -157.5q25 -56 68.5 -91t99.5 -44q10 -2 35 -2q8 0 8 -8v-5q0 -6 -8 -6q-72 0 -130 39.5t-89 108.5q-34 74 -21 164zM190 -324q2 -13 37 -28q11 -4 37 -8q189 -33 266 122q-90 34 -237 -4q-47 -15 -76.5 -39t-26.5 -43zM416 1370v2 l225 352h10l33 -49l231 -293l-22 -12q-8 -8 -8 0l-234 289q-3 -5 -25.5 -46.5t-44 -77.5t-50.5 -77.5t-58 -66.5t-53 -25v4h-4zM811 1163l86 -28q31 -11 49 -13q25 5 41 21.5t6 40.5q-13 35 -51 35.5t-73 -17.5t-58 -39z" />
<glyph unicode="&#xcf;" horiz-adv-x="962" d="M4 924q12 89 76 159q114 127 385 127q142 3 278 -30q64 61 166 61q80 0 101 -51q17 -30 -5 -53.5t-57 -32.5q-8 -3 -28 -1t-27 2t-26.5 5t-26.5 7t-27 8t-27 8q-44 -55 -69 -162q-17 -73 -26 -178.5t-10 -178.5t-1 -208q0 -385 -35 -541q-8 -36 -29 -92q102 -40 158 -144 q8 -8 -4 -12h-2q-2 0 -5.5 1t-4.5 1q-53 97 -148 137l-6 -10l-8 -14q-9 -16 -31 -47q-23 -36 -71.5 -56.5t-102 -22t-103 5.5t-82 24t-32.5 36q0 28 30 56.5t83 46.5q103 36 256 18q12 28 22 76q35 154 35 537q0 149 2 228.5t12.5 195t36.5 193t68 128.5q-143 38 -254 41 q-257 8 -371 -121q-58 -62 -72 -145.5t19 -157.5q25 -56 68.5 -91t99.5 -44q10 -2 35 -2q8 0 8 -8v-5q0 -6 -8 -6q-72 0 -130 39.5t-89 108.5q-34 74 -21 164zM190 -324q2 -13 37 -28q11 -4 37 -8q189 -33 266 122q-90 34 -237 -4q-47 -15 -76.5 -39t-26.5 -43zM422 1473 q0 30 21 51.5t49 21.5q31 0 52 -21t21 -52q0 -32 -21 -54t-52 -22q-28 0 -49 22t-21 54zM741 1473q0 30 21 51.5t49 21.5q31 0 52.5 -21t21.5 -52q0 -32 -21.5 -54t-52.5 -22q-28 0 -49 22t-21 54zM811 1163l86 -28q31 -11 49 -13q25 5 41 21.5t6 40.5q-13 35 -51 35.5 t-73 -17.5t-58 -39z" />
<glyph unicode="&#xd0;" horiz-adv-x="1341" d="M0 1061q0 75 56 130.5t153 55.5q83 0 139 -20t105 -84q47 -62 86 -170q52 107 108 166q94 98 219 98q44 0 76.5 -4.5t65.5 -17t59 -39t45 -66.5q57 -111 57 -305q0 -160 -41 -327.5t-114 -303.5q-78 -147 -187 -233q-102 -78 -209 -93q-6 -47 -16 -77q-15 -43 -33 -43 h-61q-41 0 -68 125q-92 12 -168 57q-100 62 -100 129q0 41 45 63q48 25 133 25q2 0 4.5 -1t3.5 -1q0 -1 1 -3t1 -3q0 -8 -10 -8q-34 0 -69 -7q-35 -6 -56 -18q-35 -18 -35 -47q0 -27 24.5 -57.5t66.5 -55.5q51 -32 125 -49q15 -6 30 -6q-2 0 -2 4v10q-24 131 -24 330 q0 174 16 305h-221l-4 4l4 15h223l4 20q22 170 60 287l2 12q-26 104 -72 205q-103 187 -252 162q-72 -10 -113 -57.5t-41 -106.5q0 -63 45 -105q38 -38 97 -47q12 -2 37 -2q10 0 10 -8q0 -2 -2 -4q0 -6 -8 -6q-90 0 -146 53q-49 46 -49 119zM426 215q0 -201 27 -336 q0 -2 1 -5.5t1 -4.5q41 -8 88 -2q12 100 14 182q10 267 -10 471h-105q-16 -157 -16 -305zM446 539h99q-10 110 -45 272q-35 -113 -54 -272zM459 -152q22 -102 49 -102q10 10 16 31l6 28l7 27q0 2 1 7t1 7h-35q-7 0 -22.5 1t-22.5 1zM549 948q47 -163 72 -409h258q6 0 6 -15 q0 -4 -6 -4h-256q16 -175 16 -325q0 -174 -16 -312q185 63 315 299q71 135 112.5 300.5t41.5 322.5q0 184 -58 297q-33 65 -88.5 95t-126.5 20q-167 -30 -270 -269z" />
<glyph unicode="&#xd1;" horiz-adv-x="1245" d="M0 1102q0 57 43 100q49 43 137 43q82 0 136.5 -18t99.5 -76q64 -79 106 -231q42 -139 60 -342q10 27 26 77q89 262 172 410q100 180 176 180q127 0 157 -100q21 -73 -4 -259q-3 -23 -10 -71q-9 -68 -14 -104q-12 -98 -18 -151t-14 -150t-8 -157t4.5 -143t18.5 -140 t39 -116t62 -100q102 -114 299 -114q3 0 7 -4t4 -7q0 -8 -11 -8q-37 0 -55 2q-2 -2 -6 -2q-102 0 -184 31q-81 38 -127 92q-120 132 -129 434q-2 170 41 535q18 142 25 222.5t2 161t-31 109.5q-13 23 -48 23q-63 0 -151 -153.5t-180 -424.5q-23 -63 -39 -119q-1 -22 2.5 -82 t7 -128t6 -149t-3.5 -154t-19.5 -134t-44 -97t-75.5 -36q-37 0 -37 88q0 161 94 516q-3 162 -22 318q-35 250 -105 391q-86 164 -209 164q-79 0 -125 -41q-37 -30 -37 -86q0 -48 34.5 -87.5t90.5 -45.5q3 0 9.5 -1t9.5 -1q2 0 5 -3t3 -6q-3 -8 -8 -8q-73 0 -117.5 46.5 t-44.5 105.5zM317 1393q35 74 78 116.5t87 54t92 6.5t96.5 -22t97 -35t97 -29t93 -8t88.5 33t80 88q0 3 3 3t6 -3v-4q-82 -142 -185 -166t-245 52q-34 18 -53 26.5t-51.5 19.5t-54 11.5t-52 -4.5t-55.5 -22.5t-54.5 -49t-58.5 -76.5zM438 -160q0 -69 21 -69q10 25 18 50.5 t14 56t10 52.5t7 60t4.5 56t2.5 62.5t1.5 58t1 65t0.5 61.5q-80 -307 -80 -453z" />
<glyph unicode="&#xd2;" horiz-adv-x="1497" d="M1.5 935q8.5 69 55.5 116q81 84 252 84q31 0 59.5 -1.5t57 -6.5t48 -8.5t50 -12t44 -12.5t49 -15.5t47.5 -15.5q65 85 122 127q100 74 213 74q42 0 77 -7t68.5 -23.5t49.5 -50.5t10 -83q46 -52 88 -154q78 -205 78 -471q0 -285 -94 -465q-42 -88 -117 -147t-170 -66 q-140 0 -235 56q-83 48 -144 147q-110 179 -110 459q0 148 34 291.5t95 253.5l30 47q-192 67 -350 67q-165 0 -239 -80q-41 -41 -50 -99t17 -120q24 -60 81 -110t138 -66q46 -8 70 -8q8 0 8 -8q0 -4 -2 -4q-2 -5 -6 -5q-111 0 -193 58q-77 53 -113 135q-27 55 -18.5 124z M580 459q0 -90 13 -176t44 -169t77 -146.5t116.5 -104.5t158.5 -47q180 12 271 202q94 183 94 457q0 265 -80 467q-35 86 -74 137q-8 -31 -35 -61q-35 -30 -88.5 -43.5t-105 -11.5t-101.5 14q3 -24 19 -37q18 -15 65 -18q3 0 6 -3t3 -6q0 -8 -9 -8q-48 0 -77 23 q-25 21 -25 53q-75 26 -127 47l-18 -33q-60 -109 -93.5 -249.5t-33.5 -286.5zM735 1042q10 -2 40.5 -14t54.5 -21t24 -6q0 7 4 19q16 46 60 84q69 63 163 63q5 0 18 -1t21 -1q-24 52 -67 66.5t-89 -2t-92.5 -48.5t-82.5 -69.5t-54 -69.5zM803.5 1576q1.5 4 7.5 5 q52 0 77 -10q40 -16 197 -127q14 -10 78 -55q5 0 0 -7q-3 -4 -8 -2l-348 189q-5 3 -3.5 7zM870 995q38 -10 75 -12t77.5 9t67.5 38q43 45 36 109q-17 10 -45 10q-87 0 -153 -57q-44 -44 -54 -78q-4 -12 -4 -19z" />
<glyph unicode="&#xd3;" horiz-adv-x="1497" d="M1.5 935q8.5 69 55.5 116q81 84 252 84q31 0 59.5 -1.5t57 -6.5t48 -8.5t50 -12t44 -12.5t49 -15.5t47.5 -15.5q65 85 122 127q100 74 213 74q42 0 77 -7t68.5 -23.5t49.5 -50.5t10 -83q46 -52 88 -154q78 -205 78 -471q0 -285 -94 -465q-42 -88 -117 -147t-170 -66 q-140 0 -235 56q-83 48 -144 147q-110 179 -110 459q0 148 34 291.5t95 253.5l30 47q-192 67 -350 67q-165 0 -239 -80q-41 -41 -50 -99t17 -120q24 -60 81 -110t138 -66q46 -8 70 -8q8 0 8 -8q0 -4 -2 -4q-2 -5 -6 -5q-111 0 -193 58q-77 53 -113 135q-27 55 -18.5 124z M580 459q0 -90 13 -176t44 -169t77 -146.5t116.5 -104.5t158.5 -47q180 12 271 202q94 183 94 457q0 265 -80 467q-35 86 -74 137q-8 -31 -35 -61q-35 -30 -88.5 -43.5t-105 -11.5t-101.5 14q3 -24 19 -37q18 -15 65 -18q3 0 6 -3t3 -6q0 -8 -9 -8q-48 0 -77 23 q-25 21 -25 53q-75 26 -127 47l-18 -33q-60 -109 -93.5 -249.5t-33.5 -286.5zM735 1042q10 -2 40.5 -14t54.5 -21t24 -6q0 7 4 19q16 46 60 84q69 63 163 63q5 0 18 -1t21 -1q-24 52 -67 66.5t-89 -2t-92.5 -48.5t-82.5 -69.5t-54 -69.5zM755 1358q-1 4 1 4l1 1h1l1 1l1 1 l1 1h1l1 1l1 1h1l1 1l1 1l1 1h1l1 1l1 1h1l1 1l2 1q200 142 240 162q35 17 80 17h7h6q4 -1 6 -3t1.5 -4.5t-3.5 -4.5l-348 -188q-7 -4 -9 4zM870 995q38 -10 75 -12t77.5 9t67.5 38q43 45 36 109q-17 10 -45 10q-87 0 -153 -57q-44 -44 -54 -78q-4 -12 -4 -19z" />
<glyph unicode="&#xd4;" horiz-adv-x="1497" d="M1.5 935q8.5 69 55.5 116q81 84 252 84q31 0 59.5 -1.5t57 -6.5t48 -8.5t50 -12t44 -12.5t49 -15.5t47.5 -15.5q65 85 122 127q100 74 213 74q42 0 77 -7t68.5 -23.5t49.5 -50.5t10 -83q46 -52 88 -154q78 -205 78 -471q0 -285 -94 -465q-42 -88 -117 -147t-170 -66 q-140 0 -235 56q-83 48 -144 147q-110 179 -110 459q0 148 34 291.5t95 253.5l30 47q-192 67 -350 67q-165 0 -239 -80q-41 -41 -50 -99t17 -120q24 -60 81 -110t138 -66q46 -8 70 -8q8 0 8 -8q0 -4 -2 -4q-2 -5 -6 -5q-111 0 -193 58q-77 53 -113 135q-27 55 -18.5 124z M580 459q0 -90 13 -176t44 -169t77 -146.5t116.5 -104.5t158.5 -47q180 12 271 202q94 183 94 457q0 265 -80 467q-35 86 -74 137q-8 -31 -35 -61q-35 -30 -88.5 -43.5t-105 -11.5t-101.5 14q3 -24 19 -37q18 -15 65 -18q3 0 6 -3t3 -6q0 -8 -9 -8q-48 0 -77 23 q-25 21 -25 53q-75 26 -127 47l-18 -33q-60 -109 -93.5 -249.5t-33.5 -286.5zM715 1348v2l225 352h10l33 -49l231 -293l-22 -12q-8 -8 -8 0l-234 288q-3 -5 -25.5 -46.5t-44 -77.5t-50.5 -77.5t-58 -66.5t-53 -25v5h-4zM735 1042q10 -2 40.5 -14t54.5 -21t24 -6q0 7 4 19 q16 46 60 84q69 63 163 63q5 0 18 -1t21 -1q-24 52 -67 66.5t-89 -2t-92.5 -48.5t-82.5 -69.5t-54 -69.5zM870 995q38 -10 75 -12t77.5 9t67.5 38q43 45 36 109q-17 10 -45 10q-87 0 -153 -57q-44 -44 -54 -78q-4 -12 -4 -19z" />
<glyph unicode="&#xd5;" horiz-adv-x="1497" d="M1.5 935q8.5 69 55.5 116q81 84 252 84q31 0 59.5 -1.5t57 -6.5t48 -8.5t50 -12t44 -12.5t49 -15.5t47.5 -15.5q65 85 122 127q100 74 213 74q42 0 77 -7t68.5 -23.5t49.5 -50.5t10 -83q46 -52 88 -154q78 -205 78 -471q0 -285 -94 -465q-42 -88 -117 -147t-170 -66 q-140 0 -235 56q-83 48 -144 147q-110 179 -110 459q0 148 34 291.5t95 253.5l30 47q-192 67 -350 67q-165 0 -239 -80q-41 -41 -50 -99t17 -120q24 -60 81 -110t138 -66q46 -8 70 -8q8 0 8 -8q0 -4 -2 -4q-2 -5 -6 -5q-111 0 -193 58q-77 53 -113 135q-27 55 -18.5 124z M551 1407q35 74 78 116.5t87 54t92 6.5t96.5 -21.5t97 -34.5t97 -29t93 -8t88.5 33t80 88q0 8 8 0v-4q-83 -142 -185 -166.5t-245 51.5q-27 14 -41.5 21t-40 17.5t-41.5 13.5t-40.5 6t-42 -2.5t-41 -15t-44 -27.5t-43.5 -45t-45 -62zM580 459q0 -90 13 -176t44 -169 t77 -146.5t116.5 -104.5t158.5 -47q180 12 271 202q94 183 94 457q0 265 -80 467q-35 86 -74 137q-8 -31 -35 -61q-35 -30 -88.5 -43.5t-105 -11.5t-101.5 14q3 -24 19 -37q18 -15 65 -18q3 0 6 -3t3 -6q0 -8 -9 -8q-48 0 -77 23q-25 21 -25 53q-75 26 -127 47l-18 -33 q-60 -109 -93.5 -249.5t-33.5 -286.5zM735 1042q10 -2 40.5 -14t54.5 -21t24 -6q0 7 4 19q16 46 60 84q69 63 163 63q5 0 18 -1t21 -1q-24 52 -67 66.5t-89 -2t-92.5 -48.5t-82.5 -69.5t-54 -69.5zM870 995q38 -10 75 -12t77.5 9t67.5 38q43 45 36 109q-17 10 -45 10 q-87 0 -153 -57q-44 -44 -54 -78q-4 -12 -4 -19z" />
<glyph unicode="&#xd6;" horiz-adv-x="1497" d="M1.5 935q8.5 69 55.5 116q81 84 252 84q31 0 59.5 -1.5t57 -6.5t48 -8.5t50 -12t44 -12.5t49 -15.5t47.5 -15.5q65 85 122 127q100 74 213 74q42 0 77 -7t68.5 -23.5t49.5 -50.5t10 -83q46 -52 88 -154q78 -205 78 -471q0 -285 -94 -465q-42 -88 -117 -147t-170 -66 q-140 0 -235 56q-83 48 -144 147q-110 179 -110 459q0 148 34 291.5t95 253.5l30 47q-192 67 -350 67q-165 0 -239 -80q-41 -41 -50 -99t17 -120q24 -60 81 -110t138 -66q46 -8 70 -8q8 0 8 -8q0 -4 -2 -4q-2 -5 -6 -5q-111 0 -193 58q-77 53 -113 135q-27 55 -18.5 124z M580 459q0 -90 13 -176t44 -169t77 -146.5t116.5 -104.5t158.5 -47q180 12 271 202q94 183 94 457q0 265 -80 467q-35 86 -74 137q-8 -31 -35 -61q-35 -30 -88.5 -43.5t-105 -11.5t-101.5 14q3 -24 19 -37q18 -15 65 -18q3 0 6 -3t3 -6q0 -8 -9 -8q-48 0 -77 23 q-25 21 -25 53q-75 26 -127 47l-18 -33q-60 -109 -93.5 -249.5t-33.5 -286.5zM729 1483q0 30 21 51.5t49 21.5q31 0 52 -21t21 -52q0 -32 -21 -54t-52 -22q-28 0 -49 22t-21 54zM735 1042q10 -2 40.5 -14t54.5 -21t24 -6q0 7 4 19q16 46 60 84q69 63 163 63q5 0 18 -1t21 -1 q-24 52 -67 66.5t-89 -2t-92.5 -48.5t-82.5 -69.5t-54 -69.5zM870 995q38 -10 75 -12t77.5 9t67.5 38q43 45 36 109q-17 10 -45 10q-87 0 -153 -57q-44 -44 -54 -78q-4 -12 -4 -19zM1049 1483q0 30 20.5 51.5t48.5 21.5q31 0 52.5 -21t21.5 -52q0 -32 -21.5 -54t-52.5 -22 q-28 0 -48.5 22t-20.5 54z" />
<glyph unicode="&#xd9;" d="M2 1081.5q-2 64.5 43 110.5q51 45 141 45q63 0 108.5 -17t73 -45t44 -73.5t22.5 -93t8 -113.5q4 -111 -22 -424q-25 -285 -23 -397q6 -193 64 -254q27 -22 53.5 -22.5t57 28t58.5 67t57 94.5t53.5 110.5t47.5 115.5l25 68q-25 177 -25 360q0 185 25 313q24 133 68 133 t65 -51q19 -46 19 -125q0 -183 -88 -489q2 -17 8.5 -71.5t9.5 -77t10 -70.5t13.5 -78.5t17 -72t22.5 -79.5q53 -159 127 -249q86 -95 193 -95q8 0 8 -8t-8 -8q-87 0 -149 19t-117 81q-80 92 -131 252q-27 90 -62 279l-14 -35q-73 -190 -152 -309q-59 -86 -110 -115 q-25 -18 -58 -18q-61 0 -98 40q-23 25 -38 62.5t-21 94t-8.5 104t2 129.5t8.5 130.5l12 145.5q2 22 8 73q30 279 19 411q-22 262 -183 262q-77 0 -129 -41q-36 -31 -39 -74t19 -78.5t62.5 -60.5t86.5 -25q11 0 11 -8q0 -2 -2 -4q0 -6 -9 -6q-84 0 -137 53q-45 42 -47 106.5z M438.5 1546.5q-0.5 2.5 1.5 4.5t6 3q52 0 77 -10q41 -16 199 -128q20 -14 77 -54q4 0 1 -6q-4 -5 -9 -2l-349 188q-3 2 -3.5 4.5zM868 641q0 -58 4 -168q74 261 74 438q0 95 -26 138q-16 -37 -27 -99q-25 -125 -25 -309z" />
<glyph unicode="&#xda;" d="M2 1081.5q-2 64.5 43 110.5q51 45 141 45q63 0 108.5 -17t73 -45t44 -73.5t22.5 -93t8 -113.5q4 -111 -22 -424q-25 -285 -23 -397q6 -193 64 -254q27 -22 53.5 -22.5t57 28t58.5 67t57 94.5t53.5 110.5t47.5 115.5l25 68q-25 177 -25 360q0 185 25 313q24 133 68 133 t65 -51q19 -46 19 -125q0 -183 -88 -489q2 -17 8.5 -71.5t9.5 -77t10 -70.5t13.5 -78.5t17 -72t22.5 -79.5q53 -159 127 -249q86 -95 193 -95q8 0 8 -8t-8 -8q-87 0 -149 19t-117 81q-80 92 -131 252q-27 90 -62 279l-14 -35q-73 -190 -152 -309q-59 -86 -110 -115 q-25 -18 -58 -18q-61 0 -98 40q-23 25 -38 62.5t-21 94t-8.5 104t2 129.5t8.5 130.5l12 145.5q2 22 8 73q30 279 19 411q-22 262 -183 262q-77 0 -129 -41q-36 -31 -39 -74t19 -78.5t62.5 -60.5t86.5 -25q11 0 11 -8q0 -2 -2 -4q0 -6 -9 -6q-84 0 -137 53q-45 42 -47 106.5z M466 1337q-1 4 1 4q214 151 253 172q38 21 82 21h17q6 -2 7.5 -5.5t-3.5 -6.5l-348 -189q-7 -4 -9 4zM868 641q0 -58 4 -168q74 261 74 438q0 95 -26 138q-16 -37 -27 -99q-25 -125 -25 -309z" />
<glyph unicode="&#xdb;" d="M2 1081.5q-2 64.5 43 110.5q51 45 141 45q63 0 108.5 -17t73 -45t44 -73.5t22.5 -93t8 -113.5q4 -111 -22 -424q-25 -285 -23 -397q6 -193 64 -254q27 -22 53.5 -22.5t57 28t58.5 67t57 94.5t53.5 110.5t47.5 115.5l25 68q-25 177 -25 360q0 185 25 313q24 133 68 133 t65 -51q19 -46 19 -125q0 -183 -88 -489q2 -17 8.5 -71.5t9.5 -77t10 -70.5t13.5 -78.5t17 -72t22.5 -79.5q53 -159 127 -249q86 -95 193 -95q8 0 8 -8t-8 -8q-87 0 -149 19t-117 81q-80 92 -131 252q-27 90 -62 279l-14 -35q-73 -190 -152 -309q-59 -86 -110 -115 q-25 -18 -58 -18q-61 0 -98 40q-23 25 -38 62.5t-21 94t-8.5 104t2 129.5t8.5 130.5l12 145.5q2 22 8 73q30 279 19 411q-22 262 -183 262q-77 0 -129 -41q-36 -31 -39 -74t19 -78.5t62.5 -60.5t86.5 -25q11 0 11 -8q0 -2 -2 -4q0 -6 -9 -6q-84 0 -137 53q-45 42 -47 106.5z M414 1221v2l225 352h10l33 -49l231 -293l-22 -12q-8 -8 -8 0l-234 288q-3 -5 -25.5 -46.5t-44 -77t-50.5 -77.5t-58 -66.5t-53 -24.5v4h-4zM868 641q0 -58 4 -168q74 261 74 438q0 95 -26 138q-16 -37 -27 -99q-25 -125 -25 -309z" />
<glyph unicode="&#xdc;" d="M2 1081.5q-2 64.5 43 110.5q51 45 141 45q63 0 108.5 -17t73 -45t44 -73.5t22.5 -93t8 -113.5q4 -111 -22 -424q-25 -285 -23 -397q6 -193 64 -254q27 -22 53.5 -22.5t57 28t58.5 67t57 94.5t53.5 110.5t47.5 115.5l25 68q-25 177 -25 360q0 185 25 313q24 133 68 133 t65 -51q19 -46 19 -125q0 -183 -88 -489q2 -17 8.5 -71.5t9.5 -77t10 -70.5t13.5 -78.5t17 -72t22.5 -79.5q53 -159 127 -249q86 -95 193 -95q8 0 8 -8t-8 -8q-87 0 -149 19t-117 81q-80 92 -131 252q-27 90 -62 279l-14 -35q-73 -190 -152 -309q-59 -86 -110 -115 q-25 -18 -58 -18q-61 0 -98 40q-23 25 -38 62.5t-21 94t-8.5 104t2 129.5t8.5 130.5l12 145.5q2 22 8 73q30 279 19 411q-22 262 -183 262q-77 0 -129 -41q-36 -31 -39 -74t19 -78.5t62.5 -60.5t86.5 -25q11 0 11 -8q0 -2 -2 -4q0 -6 -9 -6q-84 0 -137 53q-45 42 -47 106.5z M403 1360q0 30 21 52t49 22q31 0 52.5 -21.5t21.5 -52.5q0 -32 -21.5 -54t-52.5 -22q-28 0 -49 22t-21 54zM723 1360q0 30 21 52t49 22q31 0 52 -21.5t21 -52.5q0 -32 -21 -54t-52 -22q-28 0 -49 22t-21 54zM868 641q0 -58 4 -168q74 261 74 438q0 95 -26 138 q-16 -37 -27 -99q-25 -125 -25 -309z" />
<glyph unicode="&#xdd;" horiz-adv-x="1128" d="M0 1094q0 55 49 98q51 45 131 45t131 -19.5t78 -64t37.5 -98t13.5 -140.5q0 -92 -22 -385q-23 -242 -21 -360q6 -176 60 -233q27 -23 54 -25t58 22.5t58.5 59.5t57 86t54 101.5t47.5 107.5l13 26v174q0 307 8 416q5 71 20 129q14 53 47 53q44 0 68 -49q19 -40 19 -116 q0 -166 -84 -439q-4 -79 -4.5 -235.5t-7 -288t-27.5 -248.5q71 -8 168 -41q65 -22 110 -43q3 0 4.5 -3.5t-0.5 -6.5q-5 -9 -10 -4q-151 63 -274 82q-21 -95 -48 -150q-23 -46 -64.5 -73t-125.5 -27q-51 0 -74 37.5t-14 85.5t41 80q69 64 209 69q7 49 13 94t9.5 92.5t6 77 t4.5 80t2.5 67.5t2 73.5t1.5 66.5q-75 -166 -148 -268q-56 -74 -104 -100q-43 -19 -62 -19q-62 0 -102 43q-32 35 -47.5 95t-16 151.5t4 165t16.5 196.5q1 43 5.5 107.5t9 116t6 113.5t-1 109.5t-13.5 94.5t-30.5 77.5t-54 49.5t-81.5 19q-20 0 -30 -2q-49 -6 -91 -39 q-41 -35 -41 -84q0 -46 37 -70q24 -21 74 -31q14 -2 47 -2q2 0 5 -3t3 -7q-2 -2 -2 -4q-4 -4 -6 -4q-90 0 -133 36.5t-43 84.5zM450 1292q-1 4 1 4q214 151 253 172q38 21 82 21h17q6 -2 7.5 -5.5t-3.5 -6.5l-348 -189q-7 -4 -9 4zM527 -431q-10 -40 7.5 -73t63.5 -35 q27 4 33 7q47 14 82 86q27 59 41 141l-11 2q-40 1 -59 -4q-70 -14 -121 -58q-26 -26 -36 -66zM877 547q65 224 65 375q0 70 -16 110q-26 52 -40 -121q-1 -6 -1 -8q-8 -125 -8 -356z" />
<glyph unicode="&#xe0;" horiz-adv-x="638" d="M0 299q0 127 45 233q54 123 131 123q45 0 76.5 -41.5t34.5 -91.5l30 127q0 11 20 14t40 -2t20 -14q-1 -23 -5 -83q-22 -320 -4 -419q34 -177 185 111q27 53 54.5 112t42 92t14.5 34q4 7 10 4q7 -4 4 -13q-49 -118 -108 -235q-82 -155 -136 -207q-36 -35 -65 -35 q-32 0 -51 47.5t-24 122t-4.5 146.5t2.5 142.5t1 88.5q-16 -76 -47 -164q-85 -260 -182 -260q-45 0 -66 53q-18 40 -18 115zM78 299q0 -69 18 -109q28 -64 94 64q32 62 60 143q25 92 3 170q-16 57 -48 55q-39 -2 -82 -96q-45 -102 -45 -227zM137.5 1056q1.5 4 7.5 5 q52 0 78 -11q39 -16 199 -128q9 -7 76 -54q5 0 -1 -6q-3 -4 -8 -2l-348 189q-5 3 -3.5 7z" />
<glyph unicode="&#xe1;" horiz-adv-x="638" d="M0 299q0 127 45 233q54 123 131 123q45 0 76.5 -41.5t34.5 -91.5l30 127q0 11 20 14t40 -2t20 -14q-1 -23 -5 -83q-22 -320 -4 -419q34 -177 185 111q27 53 54.5 112t42 92t14.5 34q4 7 10 4q7 -4 4 -13q-49 -118 -108 -235q-82 -155 -136 -207q-36 -35 -65 -35 q-32 0 -51 47.5t-24 122t-4.5 146.5t2.5 142.5t1 88.5q-16 -76 -47 -164q-85 -260 -182 -260q-45 0 -66 53q-18 40 -18 115zM78 299q0 -69 18 -109q28 -64 94 64q32 62 60 143q25 92 3 170q-16 57 -48 55q-39 -2 -82 -96q-45 -102 -45 -227zM91 854q-1 4 1 4 q214 151 253 172q38 21 82 21h17q6 -2 7.5 -6t-2.5 -7l-349 -188q-7 -4 -9 4z" />
<glyph unicode="&#xe2;" horiz-adv-x="638" d="M0 299q0 127 45 233q54 123 131 123q45 0 76.5 -41.5t34.5 -91.5l30 127q0 11 20 14t40 -2t20 -14q-1 -23 -5 -83q-22 -320 -4 -419q34 -177 185 111q27 53 54.5 112t42 92t14.5 34q4 7 10 4q7 -4 4 -13q-49 -118 -108 -235q-82 -155 -136 -207q-36 -35 -65 -35 q-32 0 -51 47.5t-24 122t-4.5 146.5t2.5 142.5t1 88.5q-16 -76 -47 -164q-85 -260 -182 -260q-45 0 -66 53q-18 40 -18 115zM33 834v2l225 352h10l33 -49l231 -293l-22 -12q-8 -8 -8 0l-234 288q-3 -5 -25.5 -46.5t-44 -77.5t-50.5 -77.5t-58 -66.5t-53 -25v5h-4zM78 299 q0 -69 18 -109q28 -64 94 64q32 62 60 143q25 92 3 170q-16 57 -48 55q-39 -2 -82 -96q-45 -102 -45 -227z" />
<glyph unicode="&#xe3;" horiz-adv-x="638" d="M-25 893q36 75 81.5 109.5t92 33.5t97 -16.5t101 -33.5t97.5 -25.5t93.5 15t83.5 81.5q0 3 2.5 3t3.5 -3v-4q-66 -113 -147 -132t-195 42q-29 14 -42.5 20.5t-40.5 16t-43 9.5t-41 -4t-45 -18t-44 -39t-47 -61zM0 299q0 127 45 233q54 123 131 123q45 0 76.5 -41.5 t34.5 -91.5l30 127q0 11 20 14t40 -2t20 -14q-1 -23 -5 -83q-22 -320 -4 -419q34 -177 185 111q27 53 54.5 112t42 92t14.5 34q4 7 10 4q7 -4 4 -13q-49 -118 -108 -235q-82 -155 -136 -207q-36 -35 -65 -35q-32 0 -51 47.5t-24 122t-4.5 146.5t2.5 142.5t1 88.5 q-16 -76 -47 -164q-85 -260 -182 -260q-45 0 -66 53q-18 40 -18 115zM78 299q0 -69 18 -109q28 -64 94 64q32 62 60 143q25 92 3 170q-16 57 -48 55q-39 -2 -82 -96q-45 -102 -45 -227z" />
<glyph unicode="&#xe4;" horiz-adv-x="638" d="M0 299q0 127 45 233q54 123 131 123q45 0 76.5 -41.5t34.5 -91.5l30 127q0 11 20 14t40 -2t20 -14q-1 -23 -5 -83q-22 -320 -4 -419q34 -177 185 111q27 53 54.5 112t42 92t14.5 34q4 7 10 4q7 -4 4 -13q-49 -118 -108 -235q-82 -155 -136 -207q-36 -35 -65 -35 q-32 0 -51 47.5t-24 122t-4.5 146.5t2.5 142.5t1 88.5q-16 -76 -47 -164q-85 -260 -182 -260q-45 0 -66 53q-18 40 -18 115zM6 967q0 30 21 51.5t49 21.5q31 0 52.5 -21t21.5 -52q0 -32 -21.5 -54t-52.5 -22q-28 0 -49 22t-21 54zM78 299q0 -69 18 -109q28 -64 94 64 q32 62 60 143q25 92 3 170q-16 57 -48 55q-39 -2 -82 -96q-45 -102 -45 -227zM326 967q0 30 20.5 51.5t48.5 21.5q31 0 52.5 -21t21.5 -52q0 -32 -21.5 -54t-52.5 -22q-28 0 -48.5 22t-20.5 54z" />
<glyph unicode="&#xe7;" horiz-adv-x="528" d="M0 309q0 54 16.5 113t46.5 112t81 87t112 34q26 0 45.5 -16t29.5 -41.5t14.5 -52t4.5 -53.5q0 -9 -8 -9t-8 9q0 79 -26 113.5t-70 15.5t-93 -89q-67 -98 -67 -223q0 -105 33.5 -150t86.5 -31.5t112.5 58.5t117.5 115q22 27 45 56.5t40 53t31 43t22 30.5l7 12q5 5 13 0 q6 0 2 -13q-66 -96 -148 -192q-88 -104 -140 -146q-41 -32 -77 -45q20 -92 -43 -92q-28 0 -48.5 -26.5t-20.5 -61.5q0 -67 88 -67q5 0 5 -7.5t-5 -7.5q-45 0 -73 21t-28 61q0 34 24.5 67t55.5 33q32 0 37 27t-4 49q-12 -4 -29 -4q-85 0 -133.5 63t-48.5 154z" />
<glyph unicode="&#xe8;" horiz-adv-x="512" d="M-14 272q0 54 17 118t47.5 124.5t83 100.5t114.5 40q44 0 65 -41q23 -40 2 -97t-59 -101q-67 -75 -188 -94q-2 -16 -2 -50q0 -91 36 -149q38 -43 73 -52t79.5 27.5t69.5 65.5t86 110l2 2q36 47 72 101.5t54 85.5l19 31q1 3 5 3.5t5 -1.5q8 0 4 -13q-65 -108 -147 -217 q-159 -223 -258 -223q-88 0 -134 67t-46 162zM17.5 1024.5q1.5 3.5 7.5 5.5q52 0 77 -10q40 -16 197 -127q14 -10 78 -55q5 0 0 -7q-3 -4 -8 -2l-349 189q-4 3 -2.5 6.5zM70 340q81 -5 174 88q41 49 54.5 100t-1.5 78q-58 61 -134.5 -46t-92.5 -220z" />
<glyph unicode="&#xe9;" horiz-adv-x="512" d="M-14 272q0 54 17 118t47.5 124.5t83 100.5t114.5 40q44 0 65 -41q23 -40 2 -97t-59 -101q-67 -75 -188 -94q-2 -16 -2 -50q0 -91 36 -149q38 -43 73 -52t79.5 27.5t69.5 65.5t86 110l2 2q36 47 72 101.5t54 85.5l19 31q1 3 5 3.5t5 -1.5q8 0 4 -13q-65 -108 -147 -217 q-159 -223 -258 -223q-88 0 -134 67t-46 162zM30 813q-1 4 1 4q214 151 253 172q38 21 82 21h17q6 -1 7.5 -5.5t-3.5 -7.5l-348 -188q-7 -4 -9 4zM70 340q81 -5 174 88q41 49 54.5 100t-1.5 78q-58 61 -134.5 -46t-92.5 -220z" />
<glyph unicode="&#xea;" horiz-adv-x="512" d="M-14 272q0 54 17 118t47.5 124.5t83 100.5t114.5 40q44 0 65 -41q23 -40 2 -97t-59 -101q-67 -75 -188 -94q-2 -16 -2 -50q0 -91 36 -149q38 -43 73 -52t79.5 27.5t69.5 65.5t86 110l2 2q36 47 72 101.5t54 85.5l19 31q1 3 5 3.5t5 -1.5q8 0 4 -13q-65 -108 -147 -217 q-159 -223 -258 -223q-88 0 -134 67t-46 162zM2 715v2l188 293h9l28 -41l193 -244l-19 -10q-6 -6 -6 0l-196 239q-1 -1 -29 -51.5t-50.5 -86t-56 -70.5t-57.5 -35v4h-4zM70 340q81 -5 174 88q41 49 54.5 100t-1.5 78q-58 61 -134.5 -46t-92.5 -220z" />
<glyph unicode="&#xeb;" horiz-adv-x="512" d="M-14 272q0 54 17 118t47.5 124.5t83 100.5t114.5 40q44 0 65 -41q23 -40 2 -97t-59 -101q-67 -75 -188 -94q-2 -16 -2 -50q0 -91 36 -149q38 -43 73 -52t79.5 27.5t69.5 65.5t86 110l2 2q36 47 72 101.5t54 85.5l19 31q1 3 5 3.5t5 -1.5q8 0 4 -13q-65 -108 -147 -217 q-159 -223 -258 -223q-88 0 -134 67t-46 162zM29 942q0 23 15.5 39t37.5 16q23 0 39 -16t16 -39q0 -25 -16 -41t-39 -16q-22 0 -37.5 16.5t-15.5 40.5zM70 340q81 -5 174 88q41 49 54.5 100t-1.5 78q-58 61 -134.5 -46t-92.5 -220zM272 942q0 23 15.5 39t36.5 16 q25 0 41 -16t16 -39q0 -25 -16 -41t-41 -16q-21 0 -36.5 16.5t-15.5 40.5z" />
<glyph unicode="&#xec;" horiz-adv-x="395" d="M-62.5 959.5q1.5 4.5 7.5 5.5h1h1h1h2q49 0 78 -13q39 -17 212 -140h1l1 -1l1 -1l1 -1h1l1 -1l1 -1h1l1 -1l1 -1h1l1 -1l1 -1h1l1 -1l1 -1l1 -1h1l1 -1l1 -1h1l1 -1l1 -1h1l2 -2h1v-1l1 -1l1 -1h1l1 -1l1 -1h1l1 -1l1 -1h1l1 -1l1 -1h1l1 -1l1 -1h1l1 -1l1 -1l1 -1h1 l1 -1l1 -1h1l1 -1l1 -1h1l1 -1l1 -1l1 -1h1l1 -1q4 0 1 -6q-4 -5 -9 -2l-348 188q-5 3 -3.5 7.5zM0 328q0 27 1 55t3 49t4 38t3 26l1 10q78 19 78 -4v-2q-4 -32 -6.5 -70t-3.5 -116t14 -145.5t45 -102.5q30 -27 57.5 5t89.5 144q7 11 10.5 18t9.5 17.5t11 19.5 q29 53 59.5 112.5t45.5 92.5l16 33q4 8 13 4q7 -7 4 -12q0 -1 -15.5 -34t-45.5 -91t-60 -111q-130 -252 -182 -252q-51 0 -89 41q-63 76 -63 275z" />
<glyph unicode="&#xed;" horiz-adv-x="395" d="M-62 803q-1 4 1 4l1 1h1l1 1l1 1l1 1h1l1 1l1 1h1l1 1l1 1l1 1h1l1 1l1 1h1l1 1l2 1q200 142 240 162q35 17 80 17h7h6q6 -1 7.5 -5t-3.5 -7l-348 -188q-7 -4 -9 4zM0 328q0 27 1 55t3 49t4 38t3 26l1 10q78 19 78 -4v-2q-4 -32 -6.5 -70t-3.5 -116t14 -145.5t45 -102.5 q30 -27 57.5 5t89.5 144q7 11 10.5 18t9.5 17.5t11 19.5q29 53 59.5 112.5t45.5 92.5l16 33q4 8 13 4q7 -7 4 -12q0 -1 -15.5 -34t-45.5 -91t-60 -111q-130 -252 -182 -252q-51 0 -89 41q-63 76 -63 275z" />
<glyph unicode="&#xee;" horiz-adv-x="395" d="M-170 668v2l225 352h11l32 -49l232 -293l-23 -12q-8 -8 -8 0l-233 288q-2 -4 -25 -46t-45 -77.5t-51 -77.5t-58 -66.5t-53 -24.5v4h-4zM0 328q0 27 1 55t3 49t4 38t3 26l1 10q78 19 78 -4v-2q-4 -32 -6.5 -70t-3.5 -116t14 -145.5t45 -102.5q30 -27 57.5 5t89.5 144 q7 11 10.5 18t9.5 17.5t11 19.5q29 53 59.5 112.5t45.5 92.5l16 33q4 8 13 4q7 -7 4 -12q0 -1 -15.5 -34t-45.5 -91t-60 -111q-130 -252 -182 -252q-51 0 -89 41q-63 76 -63 275z" />
<glyph unicode="&#xef;" horiz-adv-x="395" d="M-152 905q0 30 21 52t49 22q31 0 52.5 -21.5t21.5 -52.5q0 -32 -21.5 -54t-52.5 -22q-28 0 -49 22t-21 54zM0 328q0 27 1 55t3 49t4 38t3 26l1 10q78 19 78 -4v-2q-4 -32 -6.5 -70t-3.5 -116t14 -145.5t45 -102.5q30 -27 57.5 5t89.5 144q7 11 10.5 18t9.5 17.5t11 19.5 q29 53 59.5 112.5t45.5 92.5l16 33q4 8 13 4q7 -7 4 -12q0 -1 -15.5 -34t-45.5 -91t-60 -111q-130 -252 -182 -252q-51 0 -89 41q-63 76 -63 275zM168 905q0 30 21 52t49 22q31 0 52 -21.5t21 -52.5q0 -32 -21 -54t-52 -22q-28 0 -49 22t-21 54z" />
<glyph unicode="&#xf1;" horiz-adv-x="585" d="M3 200.5q-5 126.5 7 303.5q0 12 39 17q41 7 40 -9q0 -2 -1 -4q-12 -239 -4 -336q10 78 27 156q22 117 57 202q42 99 90 99h61q10 0 21 -11q16 -18 17 -80.5t-5 -160.5q-9 -162 -8 -201q3 -111 32 -111q31 1 107 140q14 25 35 65q27 52 54.5 111.5t41.5 92.5l15 34 q5 9 10 4q9 -3 6 -12q-49 -119 -110 -236q-1 -2 -13 -24t-19 -35t-22.5 -38.5t-27 -42t-28 -37.5t-30.5 -33.5t-29.5 -21.5t-29.5 -9q-21 0 -37 16q-30 31 -33.5 133t6.5 205q8 160 2 203q0 9 -4 19.5t-12 10.5q-73 0 -131 -286q-3 -14 -11 -54.5t-12 -62t-9.5 -55.5 t-8 -63.5t-2.5 -57.5q0 -8 -10 -8q-17 0 -33 16q-33 35 -38 161.5zM8 872q32 67 73 98t82.5 30t86 -14.5t89.5 -30t87 -23t83.5 13.5t74.5 72q0 2 2 2t4 -2v-2q-59 -102 -131.5 -119.5t-173.5 37.5q-34 17 -53.5 25.5t-51 14t-55 -3.5t-53.5 -34t-58 -70z" />
<glyph unicode="&#xf2;" horiz-adv-x="628" d="M0 346q0 120 57 205q18 30 49 53q7 63 53.5 78t98 -12t76.5 -72q47 -73 47 -201q0 -41 -4 -61q42 -16 98 -21q24 3 47.5 15.5t42.5 29.5t36.5 37t30.5 39.5t22 35t14 26.5l6 10q4 7 10 4q6 -2 6 -12l-8 -15q-7 -15 -22.5 -39.5t-32.5 -46.5q-50 -62 -99 -86 q-56 -28 -153 -10q-11 -85 -49 -158q-26 -50 -66.5 -86t-89.5 -36q-78 0 -125 96q-45 88 -45 227zM17.5 1012.5q1.5 3.5 7.5 5.5h1h1h1h2q49 0 78 -13q39 -17 212 -140h1l1 -1l1 -1l1 -1h1l1 -1l1 -1h1l1 -1l1 -1h1l1 -1l1 -1h1l1 -1l1 -1l1 -1h1l1 -1l1 -1h1l1 -1l1 -1h1 l2 -2h1v-1l1 -1l1 -1h1l1 -1l1 -1h1l1 -1l1 -1h1l1 -1l1 -1h1l1 -1l1 -1h1l1 -1l1 -1l1 -1h1l1 -1l1 -1h1l1 -1l1 -1h1l1 -1l1 -1l1 -1h1l1 -1q4 0 1 -5q-4 -6 -9 -3l-349 189q-4 3 -2.5 6.5zM76 346q0 -136 43 -221q30 -56 64 -69t66 12.5t60 83.5q35 68 47 153 q-101 25 -166 94q-49 49 -71 117q0 2 -2 4q-41 -74 -41 -174zM194 557q9 -62 70 -145q42 -45 96 -68q5 40 5 53q0 144 -67 210q-40 39 -76 25q-37 -15 -28 -75z" />
<glyph unicode="&#xf3;" horiz-adv-x="628" d="M-3 848q-1 4 1 4l1 1h1l1 1l1 1l1 1h1l1 1l1 1h1l1 1l1 1l1 1h1l1 1l1 1h1l1 1l2 1q200 142 240 162q35 17 80 17h7h6q4 -1 6 -3t1.5 -4.5t-3.5 -4.5l-348 -188q-7 -4 -9 4zM0 346q0 120 57 205q18 30 49 53q7 63 53.5 78t98 -12t76.5 -72q47 -73 47 -201q0 -41 -4 -61 q42 -16 98 -21q24 3 47.5 15.5t42.5 29.5t36.5 37t30.5 39.5t22 35t14 26.5l6 10q4 7 10 4q6 -2 6 -12l-8 -15q-7 -15 -22.5 -39.5t-32.5 -46.5q-50 -62 -99 -86q-56 -28 -153 -10q-11 -85 -49 -158q-26 -50 -66.5 -86t-89.5 -36q-78 0 -125 96q-45 88 -45 227zM76 346 q0 -136 43 -221q30 -56 64 -69t66 12.5t60 83.5q35 68 47 153q-101 25 -166 94q-49 49 -71 117q0 2 -2 4q-41 -74 -41 -174zM194 557q9 -62 70 -145q42 -45 96 -68q5 40 5 53q0 144 -67 210q-40 39 -76 25q-37 -15 -28 -75z" />
<glyph unicode="&#xf4;" horiz-adv-x="628" d="M-31 778v2l211 328h10l31 -45l215 -275l-20 -10q-8 -8 -8 0l-218 269q-3 -5 -24 -43t-41.5 -72t-47.5 -72.5t-54.5 -62t-49.5 -23.5v4h-4zM0 346q0 120 57 205q18 30 49 53q7 63 53.5 78t98 -12t76.5 -72q47 -73 47 -201q0 -41 -4 -61q42 -16 98 -21q24 3 47.5 15.5 t42.5 29.5t36.5 37t30.5 39.5t22 35t14 26.5l6 10q4 7 10 4q6 -2 6 -12l-8 -15q-7 -15 -22.5 -39.5t-32.5 -46.5q-50 -62 -99 -86q-56 -28 -153 -10q-11 -85 -49 -158q-26 -50 -66.5 -86t-89.5 -36q-78 0 -125 96q-45 88 -45 227zM76 346q0 -136 43 -221q30 -56 64 -69 t66 12.5t60 83.5q35 68 47 153q-101 25 -166 94q-49 49 -71 117q0 2 -2 4q-41 -74 -41 -174zM194 557q9 -62 70 -145q42 -45 96 -68q5 40 5 53q0 144 -67 210q-40 39 -76 25q-37 -15 -28 -75z" />
<glyph unicode="&#xf5;" horiz-adv-x="628" d="M-10 913q33 69 75 101t85 31t89 -15t92.5 -31t89.5 -24t86 13.5t77 74.5q0 6 6 0v-2q-61 -105 -137.5 -123t-180.5 39q-25 13 -39 19.5t-37.5 15t-39 8.5t-37.5 -4t-40.5 -17t-40 -36t-42.5 -56zM0 346q0 120 57 205q18 30 49 53q7 63 53.5 78t98 -12t76.5 -72 q47 -73 47 -201q0 -41 -4 -61q42 -16 98 -21q24 3 47.5 15.5t42.5 29.5t36.5 37t30.5 39.5t22 35t14 26.5l6 10q4 7 10 4q6 -2 6 -12l-8 -15q-7 -15 -22.5 -39.5t-32.5 -46.5q-50 -62 -99 -86q-56 -28 -153 -10q-11 -85 -49 -158q-26 -50 -66.5 -86t-89.5 -36q-78 0 -125 96 q-45 88 -45 227zM76 346q0 -136 43 -221q30 -56 64 -69t66 12.5t60 83.5q35 68 47 153q-101 25 -166 94q-49 49 -71 117q0 2 -2 4q-41 -74 -41 -174zM194 557q9 -62 70 -145q42 -45 96 -68q5 40 5 53q0 144 -67 210q-40 39 -76 25q-37 -15 -28 -75z" />
<glyph unicode="&#xf6;" horiz-adv-x="628" d="M-14 958q0 31 20.5 52.5t48.5 21.5q31 0 52.5 -21.5t21.5 -52.5q0 -32 -21.5 -53.5t-52.5 -21.5q-28 0 -48.5 21.5t-20.5 53.5zM0 346q0 120 57 205q18 30 49 53q7 63 53.5 78t98 -12t76.5 -72q47 -73 47 -201q0 -41 -4 -61q42 -16 98 -21q24 3 47.5 15.5t42.5 29.5 t36.5 37t30.5 39.5t22 35t14 26.5l6 10q4 7 10 4q6 -2 6 -12l-8 -15q-7 -15 -22.5 -39.5t-32.5 -46.5q-50 -62 -99 -86q-56 -28 -153 -10q-11 -85 -49 -158q-26 -50 -66.5 -86t-89.5 -36q-78 0 -125 96q-45 88 -45 227zM76 346q0 -136 43 -221q30 -56 64 -69t66 12.5 t60 83.5q35 68 47 153q-101 25 -166 94q-49 49 -71 117q0 2 -2 4q-41 -74 -41 -174zM194 557q9 -62 70 -145q42 -45 96 -68q5 40 5 53q0 144 -67 210q-40 39 -76 25q-37 -15 -28 -75zM305 958q0 30 21 52t49 22q31 0 52.5 -21.5t21.5 -52.5q0 -32 -21.5 -53.5t-52.5 -21.5 q-28 0 -49 21.5t-21 53.5z" />
<glyph unicode="&#xf9;" horiz-adv-x="684" d="M0.5 268.5q1.5 60.5 7.5 186.5l4 49q0 21 39 15.5t39 -15.5l-4 -49q-35 -173 -2 -300q22 -88 64 -90q53 -4 105 138q11 30 21 65q29 110 39 230q-2 5 2 10t11 4q4 -1 22.5 0.5t31.5 -0.5t13 -10q2 -20 2 -154q-2 -81 -0.5 -144.5t6.5 -107t18 -59t35.5 -1.5t58 66 t85.5 144q32 59 64.5 123.5t49.5 100.5t17 38q3 7 12 4q5 -4 2 -12q0 -2 -17 -38t-49.5 -101t-64.5 -123q-182 -337 -252 -250q-12 12 -20 26.5t-13 38.5t-8 42.5t-4 57t-1 61.5t0.5 76t0.5 83q-4 -37 -24 -109q-27 -105 -68 -164q-19 -27 -48 -48.5t-65 -28.5t-63 24 q-27 27 -37.5 94t-9 127.5zM6.5 987.5q-0.5 2.5 1.5 4.5t6 3q52 0 77 -10q41 -16 199 -128q20 -14 77 -54q5 0 -1 -6q-3 -4 -8 -2l-348 188q-3 2 -3.5 4.5z" />
<glyph unicode="&#xfa;" horiz-adv-x="684" d="M0.5 268.5q1.5 60.5 7.5 186.5l4 49q0 21 39 15.5t39 -15.5l-4 -49q-35 -173 -2 -300q22 -88 64 -90q53 -4 105 138q11 30 21 65q29 110 39 230q-2 5 2 10t11 4q4 -1 22.5 0.5t31.5 -0.5t13 -10q2 -20 2 -154q-2 -81 -0.5 -144.5t6.5 -107t18 -59t35.5 -1.5t58 66 t85.5 144q32 59 64.5 123.5t49.5 100.5t17 38q3 7 12 4q5 -4 2 -12q0 -2 -17 -38t-49.5 -101t-64.5 -123q-182 -337 -252 -250q-12 12 -20 26.5t-13 38.5t-8 42.5t-4 57t-1 61.5t0.5 76t0.5 83q-4 -37 -24 -109q-27 -105 -68 -164q-19 -27 -48 -48.5t-65 -28.5t-63 24 q-27 27 -37.5 94t-9 127.5zM19 816q-1 3 1 3q215 152 255 173q38 20 82 20h16q6 -1 7.5 -5.5t-3.5 -7.5l-348 -188q-8 -4 -10 5z" />
<glyph unicode="&#xfb;" horiz-adv-x="684" d="M-61 715v2l225 352h10l33 -49l231 -293l-22 -12q-8 -8 -8 0l-234 289q-3 -5 -25.5 -46.5t-44 -77.5t-50.5 -77.5t-58 -66.5t-53 -25v4h-4zM0.5 268.5q1.5 60.5 7.5 186.5l4 49q0 21 39 15.5t39 -15.5l-4 -49q-35 -173 -2 -300q22 -88 64 -90q53 -4 105 138q11 30 21 65 q29 110 39 230q-2 5 2 10t11 4q4 -1 22.5 0.5t31.5 -0.5t13 -10q2 -20 2 -154q-2 -81 -0.5 -144.5t6.5 -107t18 -59t35.5 -1.5t58 66t85.5 144q32 59 64.5 123.5t49.5 100.5t17 38q3 7 12 4q5 -4 2 -12q0 -2 -17 -38t-49.5 -101t-64.5 -123q-182 -337 -252 -250 q-12 12 -20 26.5t-13 38.5t-8 42.5t-4 57t-1 61.5t0.5 76t0.5 83q-4 -37 -24 -109q-27 -105 -68 -164q-19 -27 -48 -48.5t-65 -28.5t-63 24q-27 27 -37.5 94t-9 127.5z" />
<glyph unicode="&#xfc;" horiz-adv-x="684" d="M-27 950q0 30 21 52t49 22q31 0 52.5 -21.5t21.5 -52.5q0 -32 -21.5 -54t-52.5 -22q-28 0 -49 22t-21 54zM0.5 268.5q1.5 60.5 7.5 186.5l4 49q0 21 39 15.5t39 -15.5l-4 -49q-35 -173 -2 -300q22 -88 64 -90q53 -4 105 138q11 30 21 65q29 110 39 230q-2 5 2 10t11 4 q4 -1 22.5 0.5t31.5 -0.5t13 -10q2 -20 2 -154q-2 -81 -0.5 -144.5t6.5 -107t18 -59t35.5 -1.5t58 66t85.5 144q32 59 64.5 123.5t49.5 100.5t17 38q3 7 12 4q5 -4 2 -12q0 -2 -17 -38t-49.5 -101t-64.5 -123q-182 -337 -252 -250q-12 12 -20 26.5t-13 38.5t-8 42.5t-4 57 t-1 61.5t0.5 76t0.5 83q-4 -37 -24 -109q-27 -105 -68 -164q-19 -27 -48 -48.5t-65 -28.5t-63 24q-27 27 -37.5 94t-9 127.5zM293 950q0 31 20.5 52.5t48.5 21.5q31 0 52.5 -21.5t21.5 -52.5q0 -32 -21.5 -54t-52.5 -22q-28 0 -48.5 22t-20.5 54z" />
<glyph unicode="&#xfd;" horiz-adv-x="710" d="M3.5 334.5q-9.5 84.5 19.5 173.5q0 10 43 7q34 -3 32 -13q-26 -85 -16.5 -164t53.5 -139q30 -46 76 -62q61 28 113 168q13 40 23.5 85t15 68.5t4.5 26.5q0 9 21 14.5t41 1.5t17 -18q73 -300 78 -546v-5q5 0 15.5 -1t15.5 -1q85 -3 180 -34q7 -1 31 -11q7 0 4 -10 q-4 -7 -10 -4q-110 38 -193 41q-29 0 -41 -2q0 -346 -143 -539q-81 -100 -139 -131q-71 -38 -164 -8q-60 41 -60 160q0 117 60 243q84 177 242 252q61 28 122 37v10q-3 231 -67 508q-49 -247 -141 -311q-23 -11 -25 -12q-15 -6 -31 -6q-65 0 -121 75q-46 62 -55.5 146.5z M34 809q-1 4 1 4q214 151 253 172q38 21 82 21h17q6 -1 7.5 -5.5t-3.5 -7.5l-348 -188q-7 -4 -9 4zM37 -608q0 -114 51 -144q20 -11 43 -8.5t43 15.5q58 33 133 129q136 180 139 507v17l-34 -8q-67 -17 -124 -52.5t-95 -79t-60 -76t-37 -63.5q-59 -124 -59 -237z" />
<glyph unicode="&#xff;" horiz-adv-x="710" d="M-12 915q0 31 20.5 52.5t48.5 21.5q31 0 52.5 -21.5t21.5 -52.5q0 -32 -21.5 -53.5t-52.5 -21.5q-28 0 -48.5 21.5t-20.5 53.5zM3.5 334.5q-9.5 84.5 19.5 173.5q0 10 43 7q34 -3 32 -13q-26 -85 -16.5 -164t53.5 -139q30 -46 76 -62q61 28 113 168q13 40 23.5 85 t15 68.5t4.5 26.5q0 9 21 14.5t41 1.5t17 -18q73 -300 78 -546v-5q5 0 15.5 -1t15.5 -1q85 -3 180 -34q7 -1 31 -11q7 0 4 -10q-4 -7 -10 -4q-110 38 -193 41q-29 0 -41 -2q0 -346 -143 -539q-81 -100 -139 -131q-71 -38 -164 -8q-60 41 -60 160q0 117 60 243 q84 177 242 252q61 28 122 37v10q-3 231 -67 508q-49 -247 -141 -311q-23 -11 -25 -12q-15 -6 -31 -6q-65 0 -121 75q-46 62 -55.5 146.5zM37 -608q0 -114 51 -144q20 -11 43 -8.5t43 15.5q58 33 133 129q136 180 139 507v17l-34 -8q-67 -17 -124 -52.5t-95 -79t-60 -76 t-37 -63.5q-59 -124 -59 -237zM307 915q0 30 21 52t49 22q31 0 52.5 -21.5t21.5 -52.5q0 -32 -21.5 -53.5t-52.5 -21.5q-28 0 -49 21.5t-21 53.5z" />
<glyph unicode="&#x178;" horiz-adv-x="1128" d="M0 1094q0 55 49 98q51 45 131 45t131 -19.5t78 -64t37.5 -98t13.5 -140.5q0 -92 -22 -385q-23 -242 -21 -360q6 -176 60 -233q27 -23 54 -25t58 22.5t58.5 59.5t57 86t54 101.5t47.5 107.5l13 26v174q0 307 8 416q5 71 20 129q14 53 47 53q44 0 68 -49q19 -40 19 -116 q0 -166 -84 -439q-4 -79 -4.5 -235.5t-7 -288t-27.5 -248.5q71 -8 168 -41q65 -22 110 -43q3 0 4.5 -3.5t-0.5 -6.5q-5 -9 -10 -4q-151 63 -274 82q-21 -95 -48 -150q-23 -46 -64.5 -73t-125.5 -27q-51 0 -74 37.5t-14 85.5t41 80q69 64 209 69q7 49 13 94t9.5 92.5t6 77 t4.5 80t2.5 67.5t2 73.5t1.5 66.5q-75 -166 -148 -268q-56 -74 -104 -100q-43 -19 -62 -19q-62 0 -102 43q-32 35 -47.5 95t-16 151.5t4 165t16.5 196.5q1 43 5.5 107.5t9 116t6 113.5t-1 109.5t-13.5 94.5t-30.5 77.5t-54 49.5t-81.5 19q-20 0 -30 -2q-49 -6 -91 -39 q-41 -35 -41 -84q0 -46 37 -70q24 -21 74 -31q14 -2 47 -2q2 0 5 -3t3 -7q-2 -2 -2 -4q-4 -4 -6 -4q-90 0 -133 36.5t-43 84.5zM332 1688q0 30 20.5 51.5t48.5 21.5q31 0 52.5 -21t21.5 -52q0 -32 -21.5 -54t-52.5 -22q-28 0 -48.5 22t-20.5 54zM527 -431q-10 -40 7.5 -73 t63.5 -35q27 4 33 7q47 14 82 86q27 59 41 141l-11 2q-40 1 -59 -4q-70 -14 -121 -58q-26 -26 -36 -66zM651 1688q0 30 21 51.5t49 21.5q31 0 52.5 -21t21.5 -52q0 -32 -21.5 -54t-52.5 -22q-28 0 -49 22t-21 54zM877 547q65 224 65 375q0 70 -16 110q-26 52 -40 -121 q-1 -6 -1 -8q-8 -125 -8 -356z" />
<glyph unicode="&#x2c6;" horiz-adv-x="565" d="M23 1079v2l225 353h10l33 -50l231 -292l-22 -13q-8 -8 -8 0l-234 289q-3 -5 -25.5 -46.5t-44 -77.5t-50.5 -77.5t-58 -66.5t-53 -25v4h-4z" />
<glyph unicode="&#x2dc;" horiz-adv-x="964" d="M49 1165q35 74 78 116.5t87 54t92 6.5t96.5 -21.5t97 -34.5t97 -29t93 -8t88.5 33t80 88q0 8 8 0v-4q-83 -142 -185 -166.5t-245 51.5q-27 14 -41.5 21t-40 17.5t-41.5 13.5t-40.5 6t-42 -2.5t-41 -15t-44 -27.5t-43.5 -45t-45 -62z" />
<glyph unicode="&#x2000;" horiz-adv-x="880" />
<glyph unicode="&#x2001;" horiz-adv-x="1761" />
<glyph unicode="&#x2002;" horiz-adv-x="880" />
<glyph unicode="&#x2003;" horiz-adv-x="1761" />
<glyph unicode="&#x2004;" horiz-adv-x="587" />
<glyph unicode="&#x2005;" horiz-adv-x="440" />
<glyph unicode="&#x2006;" horiz-adv-x="293" />
<glyph unicode="&#x2007;" horiz-adv-x="293" />
<glyph unicode="&#x2008;" horiz-adv-x="220" />
<glyph unicode="&#x2009;" horiz-adv-x="352" />
<glyph unicode="&#x200a;" horiz-adv-x="97" />
<glyph unicode="&#x2010;" horiz-adv-x="772" d="M39 821l4 15h674q6 0 6 -15q0 -4 -6 -4h-674z" />
<glyph unicode="&#x2011;" horiz-adv-x="772" d="M39 821l4 15h674q6 0 6 -15q0 -4 -6 -4h-674z" />
<glyph unicode="&#x2012;" horiz-adv-x="772" d="M39 821l4 15h674q6 0 6 -15q0 -4 -6 -4h-674z" />
<glyph unicode="&#x2013;" horiz-adv-x="772" d="M39 821l4 15h674q6 0 6 -15q0 -4 -6 -4h-674z" />
<glyph unicode="&#x2014;" horiz-adv-x="995" d="M39 821l4 15h889q6 0 6 -15q0 -4 -6 -4h-889z" />
<glyph unicode="&#x2018;" horiz-adv-x="178" d="M18 1268v4q0 46 23 95.5t44.5 76t25.5 26.5h2q6 0 0 -6q6 -14 -33 -73q-34 -52 -24 -60q6 -4 22 0q23 6 40 -15t17 -48t-16.5 -45.5t-40.5 -18.5q-26 0 -43 18.5t-17 45.5z" />
<glyph unicode="&#x2019;" horiz-adv-x="178" d="M2 1407q0 27 16 45t41 18q26 0 43 -18t17 -45v-4q0 -29 -9 -60t-22 -55t-26.5 -43.5t-23 -30t-11.5 -10.5h-2q-6 0 0 6q-6 14 32 73q34 52 24 60q-6 4 -22 0q-23 -6 -40 15.5t-17 48.5z" />
<glyph unicode="&#x201a;" horiz-adv-x="145" d="M2 143q0 27 16.5 45.5t40.5 18.5q26 0 43 -18.5t17 -45.5v-4q0 -46 -22.5 -95.5t-44 -76t-25.5 -26.5h-2q-6 0 0 6q-6 14 32 73q34 52 24 60q-6 4 -22 0q-23 -6 -40 15t-17 48z" />
<glyph unicode="&#x201c;" horiz-adv-x="294" d="M18 1268v4q0 46 23 95.5t44.5 76t25.5 26.5h2q6 0 0 -6q6 -14 -33 -73q-34 -52 -24 -60q6 -4 22 0q23 6 40 -15t17 -48t-16.5 -45.5t-40.5 -18.5q-26 0 -43 18.5t-17 45.5zM184 1268v4q0 46 22.5 95.5t44 76t25.5 26.5h3q6 0 0 -6q6 -14 -33 -73q-34 -52 -24 -60 q6 -4 22 0q23 6 40 -15t17 -48t-16.5 -45.5t-40.5 -18.5q-26 0 -43 18.5t-17 45.5z" />
<glyph unicode="&#x201d;" horiz-adv-x="294" d="M2 1407q0 27 16 45t41 18q26 0 43 -18t17 -45v-4q0 -29 -9 -60t-22 -55t-26.5 -43.5t-23 -30t-11.5 -10.5h-2q-6 0 0 6q-6 14 32 73q34 52 24 60q-6 4 -22 0q-23 -6 -40 15.5t-17 48.5zM168 1407q0 27 16 45t41 18q26 0 43 -18t17 -45v-4q0 -29 -9 -60t-22 -55 t-26.5 -43.5t-23 -30t-11.5 -10.5h-3q-6 0 0 6q-6 14 33 73q34 52 24 60q-6 4 -22 0q-23 -6 -40 15.5t-17 48.5z" />
<glyph unicode="&#x201e;" horiz-adv-x="294" d="M2 143q0 27 16.5 45.5t40.5 18.5q26 0 43 -18.5t17 -45.5v-4q0 -46 -22.5 -95.5t-44 -76t-25.5 -26.5h-2q-6 0 0 6q-6 14 32 73q34 52 24 60q-6 4 -22 0q-23 -6 -40 15t-17 48zM168 143q0 27 16.5 45.5t40.5 18.5q26 0 43 -18.5t17 -45.5v-4q0 -46 -22.5 -95.5t-44 -76 t-25.5 -26.5h-3q-6 0 0 6q-6 14 33 73q34 52 24 60q-6 4 -22 0q-23 -6 -40 15t-17 48z" />
<glyph unicode="&#x2026;" horiz-adv-x="712" d="M70 150q0 30 20.5 51.5t48.5 21.5q31 0 52.5 -21t21.5 -52q0 -32 -21.5 -54t-52.5 -22q-28 0 -48.5 22t-20.5 54zM307 150q0 30 21 51.5t49 21.5q31 0 52.5 -21t21.5 -52q0 -32 -21.5 -54t-52.5 -22q-28 0 -49 22t-21 54zM545 150q0 30 20.5 51.5t48.5 21.5 q31 0 52.5 -21t21.5 -52q0 -32 -21.5 -54t-52.5 -22q-28 0 -48.5 22t-20.5 54z" />
<glyph unicode="&#x202f;" horiz-adv-x="352" />
<glyph unicode="&#x2039;" horiz-adv-x="518" d="M29 752l413 385q20 16 23 -11q0 -23 -14 -34l-385 -338q189 -148 279 -220.5t106.5 -89.5t15.5 -24q0 -3 -5.5 -4.5t-14.5 1.5t-15 9q-372 316 -403 326z" />
<glyph unicode="&#x203a;" horiz-adv-x="518" d="M12 420q-1 7 16 24t106.5 89t279.5 221l-385 338q-15 12 -15 34q3 27 23 11l414 -385q-3 -1 -19.5 -12t-117 -92t-267.5 -222q-6 -6 -15 -9t-14.5 -1.5t-5.5 4.5z" />
<glyph unicode="&#x205f;" horiz-adv-x="440" />
<glyph unicode="&#x20ac;" horiz-adv-x="385" d="M-197 1114q-4 4 0 8l2 2q219 -65 414 -75q73 105 170.5 168t206.5 63q103 0 121 -47q12 -31 -19 -70q-46 -52 -153.5 -89t-261.5 -38q-30 -55 -60 -149l275 -8q4 -5 4 -7l-4 -4l-279 11q-41 -168 -24 -248l288 -8q2 0 2 -9q0 -2 -2 -2l-288 11q9 -158 92 -261 q106 -133 309 -133q4 0 4 -2l-4 -4q-253 0 -383 133q-103 97 -113 269l-184 6l-2 4q0 6 2 6l184 -6q0 129 37 246l-209 6l-2 4l2 6l213 -10q24 73 72 151q-187 10 -410 76zM289 1044q149 3 254.5 38.5t146.5 82.5q35 35 21 64q-19 45 -115 45q-91 0 -169.5 -62t-137.5 -168z " />
<glyph unicode="&#x25fc;" horiz-adv-x="819" d="M0 0v819h819v-819h-819z" />
</font>
</defs>
</svg>
